<?xml version="1.0" encoding="utf-8"?>
<!-- Generator: Adobe Illustrator 25.2.0, SVG Export Plug-In . SVG Version: 6.00 Build 0)  -->
<svg version="1.1" id="Layer_1" xmlns="http://www.w3.org/2000/svg" xmlns:xlink="http://www.w3.org/1999/xlink" x="0px" y="0px"
	 viewBox="0 0 424.4 286" style="enable-background:new 0 0 424.4 286;" xml:space="preserve">
<style type="text/css">
	.st0{fill:#00B8B1;}
	.st1{fill:#354B60;}
	.st2{fill:#374F68;}
	.st3{fill:#374F68;stroke:#374F68;stroke-miterlimit:10;}
	.st4{fill:#A3A7AC;}
</style>
<path class="st0" d="M86.1,172.6c6.5,0.2,12.3-2.4,16.4-6.7c5.3-5.6,12.4-9,20-9h5.3c0.4,5.8,1.3,11.3,2.7,16.7h26.4
	c0.9-1.9,2.4-3.4,4.5-4.2c2.2-0.9,4.6-0.8,6.6,0.2c2.7,1.2,5.8,1.4,8.6,0.4c-0.9-2.9-1.4-6-1.6-9.2h-2.5c-3.6,0-6.9,1.6-9.4,4.2
	c-1.9,2-4.6,3.2-7.6,3.1c-5.2-0.2-9.5-4.5-9.7-9.7c-0.2-5.8,4.4-10.5,10.1-10.5c2.9,0,5.4,1.2,7.3,3.1c2.5,2.6,5.9,4.2,9.6,4.2h2.3
	c0.3-4.2,1.2-8.1,2.6-11.9l-0.1,0c-2.7-1.2-5.8-1.1-8.6,0.1c-2.1,0.9-4.6,0.9-6.9-0.1c-3.9-1.9-5.8-6.6-4.2-10.6
	c1.7-4.5,6.8-6.6,11.2-4.7c2.2,0.9,3.8,2.7,4.5,4.8c1.1,2.8,3.1,5.2,5.9,6.4c1.6-3,3.5-5.9,5.7-8.4l-1.8-1.8c-2.5-2.5-6-3.7-9.6-3.6
	c-2.8,0.1-5.6-1-7.6-3.2c-3.6-3.8-3.6-9.9,0-13.7c3.9-4.2,10.5-4.3,14.5-0.3c2,2,3,4.7,2.9,7.3c-0.1,3.7,1.2,7.2,3.8,9.8l1.6,1.6
	c2.9-2.6,6.2-4.7,9.8-6.4l-0.1-0.2c-1.1-2.8-3.4-4.8-6.1-6c-2.1-0.9-3.9-2.6-4.8-5c-1.5-4.1,0.5-8.8,4.5-10.5
	c4.4-1.9,9.5,0.2,11.2,4.6c0.9,2.2,0.8,4.6-0.2,6.6c-1.3,2.8-1.5,5.9-0.3,8.7c3.3-1.1,6.8-1.8,10.5-2.1v-2.5c0-3.6-1.6-6.9-4.2-9.4
	c-2-1.9-3.2-4.6-3.1-7.7c0.2-5.2,4.5-9.5,9.7-9.7c5.8-0.2,10.5,4.4,10.5,10.1c0,2.9-1.2,5.4-3.1,7.3c-2.6,2.5-4.2,5.9-4.2,9.6v2.3
	c3.6,0.2,7.2,0.9,10.5,2.1l0.1-0.2c1.2-2.7,1.1-5.8-0.1-8.6c-0.9-2.1-0.9-4.6,0.1-6.9c1.9-3.9,6.6-5.8,10.6-4.2
	c4.5,1.7,6.6,6.8,4.7,11.2c-0.9,2.2-2.7,3.8-4.8,4.5c-2.8,1.1-5.1,3.1-6.4,5.8c3.6,1.7,6.8,3.8,9.7,6.4l1.8-1.8
	c2.5-2.5,3.7-6,3.6-9.6c-0.1-2.8,1-5.6,3.2-7.6c3.8-3.6,9.9-3.6,13.7,0c4.2,3.9,4.3,10.5,0.3,14.5c-2,2-4.7,3-7.3,2.9
	c-3.6-0.1-7.2,1.2-9.8,3.8l-1.6,1.6c2.3,2.6,4.3,5.6,5.9,8.8c2.4-1.2,4.2-3.3,5.3-5.8c0.9-2.1,2.6-3.9,5-4.8
	c4.1-1.5,8.8,0.5,10.5,4.5c1.9,4.4-0.2,9.5-4.6,11.2c-2.2,0.9-4.6,0.8-6.6-0.2c-2.4-1.1-5.2-1.4-7.7-0.7c1.3,3.6,2.1,7.4,2.4,11.4
	h2.5c3.6,0,6.9-1.6,9.4-4.2c1.9-2,4.6-3.2,7.6-3.1c5.2,0.2,9.5,4.5,9.7,9.7c0.2,5.8-4.4,10.5-10.1,10.5c-2.9,0-5.4-1.2-7.3-3.1
	c-2.5-2.6-5.9-4.2-9.6-4.2h-2.3c-0.2,3.8-1,7.4-2.2,10.9c2.3,0.6,4.8,0.4,7.1-0.6c2.1-0.9,4.6-0.9,6.9,0.1c1.2,0.6,2.2,1.4,3,2.4
	h29.6c1.4-5.4,2.4-11,2.7-16.7h4.9c7.8,0,15.1,3.4,20.5,9.1c3.9,4.1,9.5,6.7,15.6,6.7c12.2,0,22.1-10.1,21.6-22.5
	c-0.4-11.1-9.7-20.4-20.8-20.7c-6.5-0.2-12.3,2.4-16.4,6.7c-5.3,5.6-12.4,9-20,9h-5.3c-0.6-8.5-2.3-16.7-5.1-24.4
	c5.5-1.5,11.3-0.9,16.5,1.5c4.3,2,9.4,2.3,14.1,0.4c9.5-3.8,14-14.6,9.8-24c-3.8-8.5-13.8-12.8-22.5-9.7c-5.1,1.8-8.8,5.6-10.6,10.2
	c-2.2,5.4-6.1,9.9-11.3,12.5c-3.4-6.8-7.7-13.2-12.7-18.9l3.5-3.5c5.5-5.5,13.1-8.3,20.9-8.1c5.7,0.1,11.4-2,15.7-6.3
	c8.6-8.6,8.4-22.8-0.6-31.2c-8.2-7.6-21.2-7.5-29.4,0.1c-4.7,4.4-7,10.4-6.8,16.3c0.2,7.7-2.4,15.1-7.8,20.6l-3.8,3.8
	c-6.2-5.5-13.2-10.1-20.9-13.6c2.6-5.9,7.6-10.3,13.6-12.5c4.4-1.7,8.2-5,10.2-9.7c4-9.3-0.5-20.2-10-23.9
	c-8.7-3.4-18.8,0.7-22.8,9.1c-2.3,4.9-2.2,10.2-0.3,14.8c2.5,5.9,2.8,12.5,0.3,18.3l-0.1,0.3c-7.1-2.4-14.7-3.9-22.5-4.5v-4.9
	c0-7.8,3.4-15.1,9.1-20.5c4.1-3.9,6.7-9.5,6.7-15.6c0-12.2-10.1-22.1-22.5-21.6c-11.1,0.4-20.4,9.7-20.7,20.8
	c-0.2,6.5,2.4,12.3,6.7,16.4c5.6,5.3,9,12.4,9,20v5.3c-7.8,0.5-15.3,2-22.4,4.4c-2.4-6-2-12.8,0.7-18.7c2-4.3,2.3-9.4,0.4-14.1
	c-3.8-9.5-14.6-14-24-9.8c-8.5,3.8-12.8,13.8-9.7,22.5c1.8,5.1,5.6,8.8,10.2,10.6c5.9,2.4,10.8,6.8,13.1,12.8l0.1,0.3
	c-7.6,3.6-14.7,8.2-21,13.7l-3.5-3.5c-5.5-5.5-8.3-13.1-8.1-20.9c0.1-5.7-2-11.4-6.3-15.7c-8.6-8.6-22.8-8.4-31.2,0.6
	c-7.6,8.2-7.6,21.2,0.1,29.4c4.4,4.7,10.4,7,16.3,6.8c7.7-0.2,15.1,2.4,20.6,7.8l3.8,3.8c-4.8,5.5-8.9,11.5-12.2,18
	c-5.9-2.6-10.3-7.6-12.6-13.7c-1.7-4.4-5-8.2-9.7-10.2c-9.3-4-20.2,0.5-23.9,10c-3.4,8.7,0.7,18.8,9.1,22.8
	c4.9,2.3,10.2,2.2,14.8,0.3c5.9-2.5,12.5-2.8,18.3-0.3l0.1,0.1c-3,8-4.9,16.6-5.5,25.5H123c-7.8,0-15.1-3.4-20.5-9.1
	c-3.9-4.1-9.4-6.7-15.6-6.7c-12.2,0-22.1,10.1-21.6,22.5C65.6,163,74.9,172.2,86.1,172.6z"/>
<circle class="st1" cx="216.2" cy="155.3" r="16.7"/>
<g>
	<g>
		<path class="st2" d="M0,215.9c0-18.3,13.9-33.3,33.8-33.3c13.7,0,20,5.2,24.6,9.1l-5.1,7.3c-5.7-5-11.9-8-20.1-8
			c-14.9,0-23.8,11-23.8,24.9c0,13.5,9.1,23.7,24.6,23.7c10.8,0,17.2-5.7,21.7-9.8l5,6.4C57.1,240.4,48.6,248,34,248
			C11.2,248,0,233.6,0,215.9z"/>
		<path class="st2" d="M134.6,214.9c0,19-13.7,33.1-33.6,33.1c-18.9,0-33.6-13.1-33.6-33.1c0-18.3,14.8-32.4,33.6-32.4
			C119.8,182.6,134.6,196.6,134.6,214.9z M77.2,214.9c0,15.7,10.4,24.7,23.8,24.7s23.8-8.9,23.8-24.7c0-14.3-10.3-23.9-23.8-23.9
			C87.4,191,77.2,200.6,77.2,214.9z"/>
		<path class="st2" d="M139.4,183.7h10.1l16.8,39.1c1.2,3.1,3.7,11.4,3.7,11.4h0.6c0,0,2.5-8.4,3.7-11.4l16.8-39.1h10.1L174,246.9
			h-7.5L139.4,183.7z"/>
		<path class="st2" d="M220.7,183.7v63.2h-9.4v-63.2H220.7z"/>
		<path class="st2" d="M257.2,183.7c27.6,0,37.8,13.7,37.8,31.5c0,21.1-12,31.7-33.8,31.7h-22.3v-63.2L257.2,183.7L257.2,183.7z
			 M248.4,238.4h12.8c16.6,0,24.3-7,24.3-23.2c0-12.9-6.6-23-26.5-23h-10.6L248.4,238.4L248.4,238.4z"/>
		<path class="st2" d="M359.1,191.2h-8.4V184h16.4v62.9h-8L359.1,191.2L359.1,191.2z"/>
		<path class="st3" d="M390.9,230c1.1,6.5,5.3,10.4,12.6,10.4c9.2,0,14.2-6.3,13.9-24.7c-2.5,5.3-8.8,8.4-15.6,8.4
			c-11.6,0-20.2-7.2-20.2-20.5c0-12,7.1-20.7,20.7-20.7c17,0,22,12,22,31.5c0,21-4.8,32.7-21.3,32.7c-12.5,0-18.6-7.7-19.5-17
			L390.9,230L390.9,230z M416.4,203.9c0-8.5-4.9-14.5-13.9-14.5c-8.2,0-13.3,5.6-13.3,13.9c0,8.1,4.5,14,13.9,14
			C410.7,217.3,416.4,212.3,416.4,203.9z"/>
	</g>
	<g>
		<path class="st2" d="M324.9,203.9c1.6,0,3.3,0.4,4.9,1.3s2.8,2.1,3.7,3.7c0.9,1.6,1.3,3.2,1.3,4.9c0,2.7-1,5.1-2.9,7
			s-4.3,2.9-7,2.9c-2.7,0-5.1-1-7-2.9s-2.9-4.3-2.9-7c0-1.7,0.4-3.4,1.3-4.9c0.9-1.6,2.1-2.8,3.7-3.6
			C321.6,204.3,323.2,203.9,324.9,203.9z"/>
	</g>
</g>
<g>
	<path class="st4" d="M71.9,268.3c0-6.5,5.1-11.8,11.7-11.8c4.7,0,7.1,1.9,8.6,3.3l-0.8,1.2c-1.7-1.5-3.9-3.1-7.8-3.1
		c-5.8,0-10.1,4.6-10.1,10.4s3.9,10,10.2,10c4.4,0,7.2-2.5,8.5-3.9l0.8,1c-1.2,1.5-4.3,4.2-9.4,4.2
		C76.2,279.7,71.9,274.8,71.9,268.3z"/>
	<path class="st4" d="M123.5,268c0,6.7-4.8,11.7-11.6,11.7c-6.6,0-11.6-4.7-11.6-11.7c0-6.5,5.1-11.5,11.6-11.5
		S123.5,261.5,123.5,268z M101.8,268c0,6.3,4.4,10.3,10.1,10.3c5.9,0,10.1-4.2,10.1-10.3c0-5.8-4.3-10.1-10.1-10.1
		C106.2,257.9,101.8,262.2,101.8,268z"/>
	<path class="st4" d="M133.1,256.9h7.3c5.6,0,8.1,2.9,8.1,6.5c0,2.5-1.3,5.3-4.9,6.1v0.1l7.2,9.7h-1.8l-7.1-9.5h-7.2v9.5h-1.5
		L133.1,256.9L133.1,256.9z M140.9,268.5c4.3,0,6-2.5,6-5.1c0-2.9-1.9-5.1-6.5-5.1h-5.8v10.2H140.9z"/>
	<path class="st4" d="M180.4,268c0,6.7-4.8,11.7-11.6,11.7c-6.6,0-11.6-4.7-11.6-11.7c0-6.5,5.1-11.5,11.6-11.5
		S180.4,261.5,180.4,268z M158.7,268c0,6.3,4.4,10.3,10.1,10.3c5.9,0,10.1-4.2,10.1-10.3c0-5.8-4.4-10.1-10.1-10.1
		C163.1,257.9,158.7,262.2,158.7,268z"/>
	<path class="st4" d="M207.3,256.9h1.5v22.4h-1.4l-16-20h0c0,0,0.1,3.3,0.1,5.3v14.7H190v-22.4h1.4l16,20h0c0,0-0.1-4.3-0.1-5.6
		L207.3,256.9L207.3,256.9z"/>
	<path class="st4" d="M228.6,256.9l10.3,22.4h-1.6l-3.2-6.9H222l-3.2,6.9h-1.6l10.3-22.4H228.6z M222.5,271.1h11.1l-3.9-8.4
		c-0.5-1-1.4-3.4-1.6-3.9H228c-0.2,0.5-1.1,2.8-1.5,3.9L222.5,271.1z"/>
	<path class="st4" d="M242.5,256.9h1.6l7.6,17.1c0.4,1,1.2,3.3,1.2,3.3h0.1c0,0,0.8-2.3,1.2-3.3l7.6-17.1h1.6l-10,22.4h-1.2
		L242.5,256.9z"/>
	<path class="st4" d="M273.6,256.9v22.4H272v-22.4H273.6z"/>
	<path class="st4" d="M285.1,256.9h7.3c5.6,0,8.1,2.9,8.1,6.5c0,2.5-1.3,5.3-4.9,6.1v0.1l7.2,9.7H301l-7.1-9.5h-7.2v9.5h-1.5
		L285.1,256.9L285.1,256.9z M293,268.5c4.3,0,6-2.5,6-5.1c0-2.9-1.9-5.1-6.5-5.1h-5.8v10.2H293z"/>
	<path class="st4" d="M329.8,256.9v13.8c0,6.2-4.3,9-9.5,9c-5.2,0-9.5-2.8-9.5-9v-13.8h1.5v13.8c0,5.1,3.3,7.6,8,7.6s8-2.5,8-7.6
		v-13.8H329.8z"/>
	<path class="st4" d="M339.3,277.5l0.5-1.3c1.9,1,4.4,1.9,7.5,1.9c4.8,0,7-2.5,7-5.2c0-1.6-0.7-2.8-2.1-3.5c-1-0.5-2.9-0.9-5-1.1
		c-2.2-0.2-4.1-0.5-5.4-1.2c-2.1-1-2.8-2.5-2.8-4.6c0-3.4,3.3-6,8.2-6c3,0,5.4,0.6,7.3,1.6l-0.5,1.3c-1.8-0.9-4.1-1.5-6.8-1.5
		c-4.3,0-6.7,2.1-6.7,4.6c0,1.5,0.5,2.6,2.1,3.4c1.1,0.5,2.9,0.8,4.9,1c2.2,0.3,4.3,0.6,5.4,1.3c1.9,1,2.9,2.5,2.9,4.7
		c0,3.4-2.9,6.6-8.5,6.6C344,279.4,341.5,278.6,339.3,277.5z"/>
</g>
</svg>
