<svg id="Layer_1" data-name="Layer 1" xmlns="http://www.w3.org/2000/svg" viewBox="0 0 4119.92 1094.4"><defs><style>.cls-1{fill:#354b60;}.cls-2{fill:#fff;}</style></defs><rect class="cls-1" width="4119.92" height="1094.4"/><path class="cls-2" d="M1789.14,3.9c-4.9.3-9.9,1.1-11,1.7s-9,1.4-17.5,1.7c-14.1.5-37.8,3.2-39,4.5-.3.2.1.7.8.9,1.3.5,1.7,3.3.5,3.3-.5.1-5.7.7-11.7,1.4-11.6,1.5-14.1,2.8-10.7,5.7,1.8,1.5,4.8,2.2,19.4,4.8,9.9,1.8,14.1,6.5,10.2,11.7-2.2,3-1.8,4,2.3,5.1l3.7,1-4.2.8c-3.4.6-4.3,1.2-4.3,2.8s.5,1.9,3.4,1.4,3.4-.3,2.9.9a3,3,0,0,1-2.8,1.4c-1.4,0-3.3,1.3-4.9,3.4-2.4,3.1-2.6,4.3-2.6,12.4,0,10,2.2,19,4.8,19.8.9.3,3.6,1.4,5.9,2.5,5.8,2.9,9.4,1.9,13.6-3.5,1.8-2.4,6.1-7.4,9.5-11.1l6.2-6.8,9.8-2.2c7.1-1.6,11.3-3.2,15.2-5.8,5.3-3.5,27.8-11.2,34.5-11.9,2.8-.3,3-.6,3.3-4.5.3-4.5,2.4-6.9,9.3-10.6,2.4-1.4,2.9-2.1,2-2.7-1.8-1-.6-6,1.4-6,2.3,0,2.7-1.8,1-4.9-1.7-3.4-1.5-3.6,5.5-5.7a84.38,84.38,0,0,0,11.2-4.5l6.3-3-7,.6a88.72,88.72,0,0,0-9.2,1.1,3.05,3.05,0,0,1-3-1c-.4-.7-5-2.3-10.1-3.5C1824.14,2.9,1810.54,2.6,1789.14,3.9Z" transform="translate(117.47 231.53)"/><path class="cls-2" d="M1692.64,6.1c-8.2,1.5-34,3.9-35.5,3.3-.9-.4-3.4.6-5.7,2.2-2.8,2-4.3,2.5-4.5,1.6-.9-2.5-2.3-1.1-2.3,2.2,0,4.4,3,6.8,7.3,5.9,5.8-1.2,1.8,1.6-5.4,3.7-6.3,1.9-7.3,2-8.7.6a12.75,12.75,0,0,0-5.7-1.8c-3.7-.3-4-.1-4.5,2.7-.4,2.5-1,3-3.5,3-2.2,0-2.9-.4-2.7-1.7.3-1.9-.2-2.3-4.5-3.2-2.9-.7-3.3-.4-4.8,2.4-.9,1.8-1.5,3.4-1.2,3.6s4.4.9,9.3,1.5l8.9,1,2.1-2.7c2.1-2.6,4.8-2.6,3.8-.1-.8,2.2,10.9,3.9,17.9,2.8a29.83,29.83,0,0,1,8.5-.5c2.9.6,7.3-1.9,5.9-3.3-.5-.4-5.3-.8-10.7-.8-9.7,0-9.8,0-7.1-1.8,2.1-1.5,4.3-1.7,11.6-1.5,5,.1,9.5-.1,10.2-.5a3.54,3.54,0,0,1,2.7-.1c.8.3,5.9-1.5,11.3-4.1,9.8-4.7,17.8-7.3,30.8-10,17.4-3.5,19.5-4,19.5-4.5C1735.64,5.1,1697.44,5.2,1692.64,6.1Z" transform="translate(117.47 231.53)"/><path class="cls-2" d="M1633.94,16c-2,.8-2.1,1.2-1.2,3.4,1.1,2.3,4.2,4,5.3,2.8a8.92,8.92,0,0,0,.6-3.9C1638.64,14.8,1637.84,14.4,1633.94,16Z" transform="translate(117.47 231.53)"/><path class="cls-2" d="M1594.34,17.6a22,22,0,0,0-4.8,3.5c-1.9,1.9-1.9,1.9.7,1.9,3.2,0,9.6-3.8,9.1-5.3C1598.84,16,1597.34,16,1594.34,17.6Z" transform="translate(117.47 231.53)"/><path class="cls-2" d="M1615.34,16.7c-1.5,1.5-.4,2.3,4.8,3.8,4.1,1.2,5.9,1.4,7.5.5,2.8-1.5,1.9-2.5-3.4-3.9C1619.14,15.8,1616.24,15.7,1615.34,16.7Z" transform="translate(117.47 231.53)"/><path class="cls-2" d="M1566.64,23.2c-4.1,1.1-9.2,2.2-11.2,2.5-4.6.6-4,2.3.8,2.3a7.93,7.93,0,0,1,5.4,2,7,7,0,0,0,3.9,2,13,13,0,0,1,4.9,1.7c2.9,1.7,3.3,1.7,7.9,0a39.1,39.1,0,0,1,10.5-1.7c4.1,0,6.1-.5,7.4-1.8,1.7-1.6,1.7-1.7,0-2a1.36,1.36,0,0,1-1.2-1.8c.8-2-1.7-1.7-5.9.7-3.7,2.2-5.1,2.2-11.9-.4-2.2-.8-3.4-1.7-2.7-2.1,1.2-.8,1.5-3.6.4-3.5C1574.44,21.1,1570.74,22.1,1566.64,23.2Z" transform="translate(117.47 231.53)"/><path class="cls-2" d="M2173.64,22.9c-1.4.4-2.5,1.2-2.5,1.9,0,2.2-2.8,3.2-9.1,3.2s-21.8,2.5-24.4,4c-1.3.8-1.3,1,.3,1.5,3.7,1.5,1.3,2.5-6,2.5l-7.8.1,3.5,2.9c1.9,1.7,4.6,3,6,3,2.3.1,2.3.2.6,1.2-1.4.8-2.7.7-5.3-.6-3.3-1.6-10.4-2.2-11.6-1s.5,3.4,2.6,3.4c1.5,0,1.8.3,1,1.1-1.9,1.9-5.2-.1-7.3-4.2-1.1-2.2-2.8-3.9-3.7-3.9-1.4,0-1.3.4.6,2.4s2,2.4.7,2.9c-2.3.9-1.9,3.1.7,4.2a5,5,0,0,1,2.5,3.2c.5,3.5,2.7,4.7,6.4,3.4,2.1-.8,3.5-.8,4.2-.1,1,1-.3,1.4-3.1,1.1-1.8-.2-2.6,1.8-1.4,3.3,2,2.4-.7,6.6-4.1,6.6-3,0-3.8-1.4-1.3-2.4,2.2-.8,1.9-5.9-.5-7.4-1.1-.6-2.8-2.9-3.9-5.1s-2.7-4.1-3.6-4.4a3.79,3.79,0,0,1-1.5-3.2c0-1.8-.5-2.5-1.9-2.5a5.41,5.41,0,0,1-3.5-1.6c-2.4-2.4-5.4-.9-6.2,3.1-.3,1.8-1.3,3.6-2.1,4-1.4.5-1.4.7-.1,2.3a11.22,11.22,0,0,1,2.1,3.4c.3.9,2,1.9,3.7,2.3,2.8.6,5,2.9,3.8,4-.2.2-3.8-.7-7.9-2.1a70,70,0,0,0-12.9-3.1,25.12,25.12,0,0,1-7.7-1.9,8.48,8.48,0,0,0-3.8-1.4c-2.8,0-1.5,1.7,2.6,3.3,3.7,1.4,4,1.9,2.9,3.2-1.2,1.5-1.5,1.4-2.4-.4-.9-1.6-1.5-1.8-3.1-.9a19.47,19.47,0,0,1-5.5,1.9,26.72,26.72,0,0,0-5.2,1.4c-1.3.5-1.8.2-1.8-.9A1.58,1.58,0,0,0,2055,55c-2.5,0-14.8,5.1-16,6.6s-4.6,1.9-5.7.7c-.4-.3-.2-1.2.4-2,1.8-2.1-.8-4.3-5.1-4.3h-3.8l2.4,4.6c2.7,5.2,2.5,6.2-.9,4.7-1.8-.8-2.8-.7-4.6.8a7.85,7.85,0,0,1-3.8,1.9c-1,0-1.2.6-.8,1.9.6,2.1-1,3.8-2,2.1-.8-1.3-8.5-1.3-8.5,0,0,.5,1.1,1.2,2.5,1.6s2.5,1.1,2.5,1.6c0,1.3-4.6.2-8.5-2.1-1.7-1-3-2.5-3-3.7a4.36,4.36,0,0,0-2-3.1c-1.9-1.2-1.9-1.2.5-1.2,1.4,0,5,.4,8,.8,7,1.1,13-.9,13-4.3,0-2-.8-2.5-5.7-3.5-3.2-.7-10.7-2.6-16.6-4.2s-11.5-2.8-12.4-2.5-1.3.1-.8-1.3c.5-1.6-.2-2.1-4.2-2.9-3.3-.7-5.2-.7-6,0s-3.1.8-5.6.5c-4.8-.7-16.2,1.9-27.4,6.1-6.9,2.6-9.1,4.2-5.8,4.2.8,0,1.5.4,1.5,1,0,1-5.1,6-6.1,6s-4.9,6.8-4.9,8.2c0,2.4-3.2,4.8-5,3.8-5.1-2.7-16,5.1-16,11.6,0,1.9.6,3.7,1.3,4s1.2,1.6.9,3.3c-.3,2.4.1,3,3.1,4.4,4.5,2.2,4.4,2.2,9.6-1.3,5-3.4,6.1-3.7,6.1-1.5,0,.9,1.1,3.3,2.5,5.4,2.6,3.8,2.5,7.1,0,7.1a10.07,10.07,0,0,0-2.8.6c-1.2.4-1.4,0-1-1.4.2-1.1,0-2.3-.6-2.6a1.76,1.76,0,0,1-.4-2.1c.9-2.5-3.5-1.8-6.2,1-2.9,2.8-3.1,5.4-.9,9.7,1.9,3.8,1.1,4.8-4.7,5.5-6.5.8-9.7,2.8-10.1,6-.2,2.3-1.3,3.3-5.6,5.3-2.8,1.4-5.5,3.3-5.8,4.3s-2,2.4-3.7,3.1c-2.7,1.1-3.6,1.1-5.9-.1-3.1-1.5-3.2-1.4-1.9,2,.9,2.4.9,2.5-2.9,2-4.4-.6-9,.3-9,1.7,0,.5,2.1,2.1,4.8,3.4,6,3,8.6,7.8,7.6,14.2-.4,2.9-1.2,4.5-2.4,4.9-2.6.8-18.3.3-20.3-.7-1.2-.6-2.9-.5-4.8.4-2.9,1.3-3,1.5-2.4,6.3a20.74,20.74,0,0,1-1.4,10.5c-1.3,3.7-1.6,6-1,7.2a10.93,10.93,0,0,1,.9,4.3c0,2.5.2,2.6,3.9,2s4-.4,5.8,2.7,1.9,3.5.3,7c-1,2.4-3.7,5.2-7.1,7.7-6.1,4.4-7.9,7.3-7.9,13,0,3.3-.7,4.5-5,8.5-2.7,2.5-5.8,4.6-6.9,4.6a4.18,4.18,0,0,0-3.2,2.2,40.2,40.2,0,0,1-4.6,6.1c-1.9,2.1-3.2,4.5-2.9,5.2s-.8,2.5-2.4,4a13.51,13.51,0,0,0-3.4,6,9.94,9.94,0,0,1-2.1,4.5c-1.9,1.6-1.9,6-.1,8.6,1,1.3,1.1,2.3.4,3.1s-.6,1.8.1,3.2a11.7,11.7,0,0,1,1.1,4.8c-.1,3.7-3.5,13.6-4.9,14.1-1.7.6-1.3,2.9.5,3.6,1.2.5,1.5,1.4,1,4-.8,4.4.8,8.4,3.8,9.5,3.4,1.3,9.2,8.8,10.7,13.9,1.3,4.6,2.6,5.8,15.6,15l7.2,5.1,4.3-1.9c4.7-2.1,14.7-2.7,17.8-1,1.5.8,3.6.3,9.4-2.5,13.3-6.3,20.4-5.6,24,2.3l1.7,3.9,5.3-.5c3.9-.3,6,0,8,1.3,2.3,1.5,2.6,2.4,2.6,7.6a33.34,33.34,0,0,1-1.9,10.7l-2,4.9,5.6,8.4c6.7,9.9,13.7,26.3,12.4,28.8-.6,1-.4,2.8.5,5,2,4.8,1.7,8.8-1.2,15.6-6.6,15.6-6.3,20.4,2,38,5.1,10.9,5.6,12.6,5.6,18.8,0,5.9.5,7.7,3.8,14,7.9,15.4,10.6,22.7,8.2,22.7-1.3,0,3.2,8.7,4.9,9.5.7.3,4.3-.2,7.8-1.1s7.8-1.3,9.5-1a9.78,9.78,0,0,0,5.8-.9,15.58,15.58,0,0,1,5.8-1.5c3,0,7.2-4,19.8-18.6,6.6-7.7,6.6-7.7,7.3-14.3.6-5.4.8-5.7,5.8-8.9,4.4-2.9,5.3-4,5.8-7.3a35.21,35.21,0,0,0-.6-10.4l-1.3-6.5,6-5.5a60.79,60.79,0,0,1,10.4-7.9c7.1-3.8,7.8-5,8.6-15.1.6-8.3.4-10-2.6-20.3-4.2-15-4.2-18.1-.3-26.5,3.5-7.4,16.8-23.5,23.9-28.8,4.4-3.3,14.9-19.2,20-30.3,4.3-9.4,4.3-20.3.1-16.7-.7.5-4,1.4-7.2,2a76.94,76.94,0,0,0-11.7,2.9l-5.7,1.9-2.6-2.7c-1.5-1.6-2.3-3.3-2-4.2.7-1.8-8.1-12.6-14.7-18-3.3-2.7-4.8-4.9-5.8-8.2-.7-2.4-2.3-5.5-3.6-6.7a7.29,7.29,0,0,1-2.4-5.9c0-2.6-1.5-6.3-4.9-12.2-2.7-4.7-6.5-12.2-8.4-16.6-3.5-8-3.5-8.1-1.4-8.8,2.6-.8,6.8,3.8,12.8,13.8,2.1,3.7,4.3,7,4.8,7.3s1.5,3,2.1,6c.9,4.4,2,6.3,5.1,9.2,2.1,2,4.1,4.5,4.5,5.7s1.9,3.4,3.4,5.1c4.9,5.3,6.3,9.9,1.8,5.8-1.5-1.4-1.8-1.4-1.8-.1a6,6,0,0,0,2,3.3c1,.9,2.9,4.7,4.1,8.4s2.7,6.9,3.3,7.3c1.5,1.1,6.9-.1,8.2-1.8.6-.8,2.5-1.4,4.3-1.4,2.8,0,4.8-.7,9.1-3.2.8-.5,4.3-2.2,7.6-3.9s6.4-3.8,6.6-4.7c.3-1.1,2.6-2.4,6.1-3.5,3.7-1.2,5.8-2.4,6.2-3.7.4-1.1,1.2-2,2-2,2.2,0,7.5-6,7.5-8.5a2.56,2.56,0,0,1,2.1-2.8c1.2-.3,1.8-1,1.4-1.6s.3-2.4,1.4-4a10.86,10.86,0,0,0,2.1-4c0-1.8-6.3-7-8.5-7.1-3.7-.1-6.5-3.7-6.5-8.4,0-3.5-.9-3.3-5.5,1.4-3.8,3.9-10.4,6.8-12.5,5.5-.6-.3-1-1.9-1-3.4a7.17,7.17,0,0,0-2-4.6c-1.8-1.6-2-1.6-2.6-.1-.9,2.3-2.3,1.1-4.4-3.8a22.49,22.49,0,0,0-4.4-6.5c-3.2-3-3.5-7.5-.7-9.1,3.9-2.1,5.7-1.2,9.2,4.6,2.7,4.5,4.6,6.4,9.3,8.9,6,3.3,8.2,3.4,12,.9,2-1.4,6.2-.1,5.1,1.6-2,3.3,8.7,5.9,27,6.6l12,.5,4,3.8a38.14,38.14,0,0,0,7.5,5.7c1.9.9,2.9,1.9,2.3,2.1-2.2.8-1.4,3,2.2,6.2,3.1,2.7,3.8,2.9,6,1.9,1.4-.6,2.5-1.9,2.5-2.9a2.9,2.9,0,0,1,.9-2.3c1-.7,2.1,2.7,2.1,7,0,5.2,5.5,22.3,11.9,36.8,3.3,7.6,6.5,15.5,7.1,17.7,1.5,5.4,4.5,6.2,8,1.9,2.3-2.8,2.9-3.1,4.6-2s2,2.4,2,6.8c.1,4.1.6,5.9,1.9,6.9,1.6,1.1,2.1,1,3.6-.3a13.85,13.85,0,0,0,2.8-4.4c.8-2.5.5-3.5-1.9-6.8-3.5-4.8-5-5.9-6-4.2-.9,1.5-3,.5-3-1.5a2.14,2.14,0,0,1,1.4-1.8c1.2-.5,1.4-3.1,1.3-13.3l-.2-12.7,2.7-.9c1.5-.5,3-1.7,3.3-2.7s3-3.8,5.9-6.4,5.8-5.6,6.1-6.7a8.12,8.12,0,0,1,3.6-3.5c2-1.1,2.9-2.3,2.9-3.9,0-3.4,1.7-4.3,8.5-4.4,4.7,0,6.3-.5,7.6-2.1,1.9-2.3,3.1-1.5,4.4,2.9,1.2,4.2,5.4,9,7.1,8.3,1.3-.5,1.5-.2.9,1.6s0,2.7,1.9,4.2c2.2,1.8,2.6,2.8,2.6,7.5,0,4.9.2,5.4,2.6,6a4.55,4.55,0,0,0,4.7-1.3c5.8-5,5.3-5.3,8.6,5.4,3.9,12.7,5.2,18.5,4.3,19.8-.4.5-.7,3.9-.7,7.5,0,5.6.2,6.5,1.7,6.2,2.7-.4,9.8,11.3,9.1,15s3.4,9.8,8.3,12.4a18,18,0,0,1,5,4.1c3.5,5.4,4.7.7,1.4-5.7a20,20,0,0,1-2-7.4c0-3.9-5.4-11.1-11.4-15.2-2.4-1.7-3.6-3.2-3.6-4.9,0-1.3-1.2-3.8-2.6-5.5l-2.7-3.1,1.6-5.7a58.18,58.18,0,0,0,1.9-8.2c.4-3.6,3.4-3.3,3.1.3-.2,2.4.1,2.7,1.9,2.2,1.5-.5,3.1.4,6.4,3.7,2.4,2.3,4.4,4.8,4.4,5.5s1,1.3,2.3,1.5c1.7.2,2.2,1,2.4,3.6a14.47,14.47,0,0,0,.5,3.8c.8.7,7.8-5.7,7.8-7.2,0-.7,1.1-1.6,2.4-2a14.13,14.13,0,0,0,5.1-3.4c2.5-2.7,2.7-3.4,2.2-8.3-.7-7.3-2.2-9.9-11.2-19.7-4.9-5.3-7.5-9-7.5-10.5,0-3.6,7.7-10.5,11.7-10.5,2.7,0,3.2.4,3.5,2.7.4,3.6,3.8,4.5,3.8,1.1,0-2.5,4.1-5.1,6.6-4.1a4.07,4.07,0,0,0,3.2-.8c1.5-1.3,5.1-3.1,10.7-5.5,4.7-2,11.3-10.8,13.9-18.4,3.1-9.2,4.5-19.1,2.5-17.3-1.8,1.8-4.3,1.6-3.5-.2.3-.8.9-2.2,1.2-3,.4-1,0-1.5-1.1-1.5s-1.5-.5-1.1-1.5c.7-1.9-7.3-11.3-12.3-14.6l-2.4-1.5,3.2-4.7c2-2.9,3.9-4.7,5.1-4.7s2-.6,2-1.4c0-2-7.7-2.5-11.1-.7-2.4,1.2-2.8,1.1-5.2-1.3-1.4-1.4-3.3-2.6-4.2-2.6-2.5,0-1.7-1.6,3.5-7,4.8-5,7.7-5.8,6.7-1.9-.5,2,1.3,6.9,2.5,6.9.4,0,1.2-.8,1.7-1.9,1.3-2.4,5.2-3.4,8.5-2.1,2.1.8,2.6,1.6,2.6,4.4,0,3.3.2,3.4,5,4.6,4.4,1,5,1.5,4.4,3.2a2.64,2.64,0,0,0,1.2,3.2c1.1.8,1.7,2.6,1.7,4.7,0,5.2,1.2,6.1,5.5,4.3a22.6,22.6,0,0,0,5.3-3c1.6-1.5,1.6-1.9-.4-6.6-1.6-3.9-3.2-5.8-7.8-8.9a49.88,49.88,0,0,1-6.3-4.7c-.3-.5.6-2,1.9-3.2a7.54,7.54,0,0,0,2.5-6.2c0-4.2,3.1-8.4,5.6-7.4.8.3,2,.9,2.8,1.2,2.4.9,6.4-3.8,8-9.8a54,54,0,0,0,1.6-12.5c0-6.3-.4-7.7-4.3-14.9-6.4-11.8-6.8-12.3-11.6-14.5-5.2-2.3-7.7-2.4-8.5-.4-.9,2.4-2,1.8-4.5-2.3-2.2-3.6-2.2-3.6-1.6-.7s.6,2.9-1.3,1.2a6.68,6.68,0,0,0-3.5-1.7c-2.6,0-3-1.8-.9-4.5a15.71,15.71,0,0,0,2.6-6.2c1.4-7.7,2.3-9,7.3-9.7,8-1.1,25.3-.7,25.3.5,0,.8,1.7,1,5.6.6,5.5-.6,8-1.6,5.8-2.4-3.7-1.3-4.4-2.7-3.2-6.6,1-3.4,1.5-3.7,4.7-3.7,2.6,0,4.4.8,6.8,3.2l3.3,3.2,2.4-2.3c2-1.9,2.3-2.6,1.3-4.2-1.2-2-.5-3.5,1.2-2.4a10,10,0,0,1,2.6,3.5c1.3,2.5,1.3,3.3,0,7a28.79,28.79,0,0,0-1.5,6.1,4,4,0,0,1-1.8,3c-1.7,1.1-1.8,1.5-.5,5.3a21.3,21.3,0,0,0,5.6,7.6c2.3,1.9,7.9,7,12.5,11.3s8.7,7.5,9.3,7.2c1.3-.9,1.1-6.2-.3-7.1-.8-.5-.5-1.1.7-2,1.7-1.3,1.7-1.5.2-3.2-1.9-2-.7-5,1.4-3.6.8.4.2-.7-1.3-2.5-3.1-3.6-3.6-5.3-1.3-4.5,3.1,1.2,1.4-1.3-2-2.9-1.9-.9-3.5-2.3-3.5-3.2s-1.2-1.7-2.7-2.1c-4.9-1-5.4-1.4-5.1-3.2a4.59,4.59,0,0,0-1-3.4c-1-1.3-.8-1.7,1.9-2.8,2.5-1.1,3.5-1.1,5.1-.1s2.3.9,3.9-.5c1.8-1.6,2.2-1.6,5.9-.1,2.7,1,4,1.2,4,.4,0-2.3,5.3-8.6,8.2-9.8a7.18,7.18,0,0,1,5.9-.2c5,1.9,4.3-.6-.8-2.7-2.6-1.1-6.2-2.8-8-3.7-3.1-1.6-3.1-1.7-1.2-3.1,1.2-.8,1.8-2,1.5-2.9-.5-1.3.2-1.4,4.6-.8a29.42,29.42,0,0,1,8.5,2.6c3.7,2.3,13.3,3.8,13.3,2.1a3.28,3.28,0,0,0-1.7-2.1c-1.6-.9-1.6-1.2-.3-2.1,2.5-1.7-1-3.5-9.2-4.9-4-.6-15.8-3.4-26.3-6.1s-24.6-5.6-31.5-6.5-13.3-1.8-14.4-2c-1.5-.3-1.3.2,1,2.6l2.9,3.1-2.5-.6c-10.2-2.1-14.4-2.6-23.9-2.6-9.3,0-11-.3-12.5-1.9-2.3-2.5-4.6-2.9-22.1-4-8.6-.6-16.5-1.6-18.5-2.4-3.9-1.6-30.7-4.3-31.8-3.2-.4.3.4,1.5,1.8,2.6l2.5,2.1-9.3-.7a80,80,0,0,1-10.7-1.1c-1.1-.5-1.5.1-1.5,2,0,1.4-.2,2.6-.4,2.6-1.6,0-10.6-4.7-12.6-6.6-2.5-2.3-13.8-5.4-19.7-5.4-2.1,0-2.4.2-1.3,1.5s.3,1.5-5.8,1.5c-3.9,0-7.4-.5-7.7-1s-3.8-1-7.7-1c-5.4,0-7.6-.5-9.8-2-2.8-2-5-1.9-8,.5-1.5,1.2-8,2.9-8,2a31.14,31.14,0,0,1,5-3.1c4.9-2.7,5.7-3.8,4.2-5.9-1.2-1.7-9.9-3.5-17.1-3.5-5.2,0-7-.4-7.5-1.5C2186.64,21.9,2178.54,21.5,2173.64,22.9Zm-203,46.4c0,.6-2.7,3-6,5.2l-5.9,4,.1,5.7c.1,8.6,1.4,9.5,12.5,7.8,12.8-1.9,15.9-1.6,13.4,1.4-.8,1-3.1,1.4-7.4,1.4-3.4-.1-7.3.4-8.6,1.2l-2.5,1.3,2.3,1.8c1.7,1.4,2.2,2.5,1.7,4.4-.7,2.9-1.8,3.2-3.6,1a4.57,4.57,0,0,0-3-1.5c-3,0-4.3,2.6-3.6,7,.6,3.8.5,4-3.3,6s-4,1.9-5.3.1-1.5-1.8-6.8.5c-6.5,2.8-8.6,2.9-9.8.8-.8-1.5-1.2-1.5-4.1.1-3.9,2-4.9,1.5-2.1-1a5.93,5.93,0,0,0,2-3.1c0-1.5,5.5-.9,7.8.9.8.6,1.2.6,1.2-.1a2.33,2.33,0,0,0-1-1.7c-1.6-1-.1-2.5,2.6-2.5s4.6-3.4,3.8-6.6c-.5-2.3.2-3.4,4.4-6.3,1.7-1.2,3.2-2.5,3.2-2.9s-1.4-1.5-3-2.4c-6-3.4-2.6-11.9,6.3-15.6,1.5-.6,2.7-1.7,2.7-2.5a8,8,0,0,1,1.6-3.5c1.2-1.7,2.5-2.2,6-2.2C1969.14,68,1970.64,68.4,1970.64,69.3Zm55.9,85.2c-1.2,1.9-2.5,3.5-3,3.5-2.4,0-.3,2.2,4.9,5.1,6,3.4,14.2,10.5,14.2,12.5a5,5,0,0,1-1.7,2.6c-2.4,2.1-14.3.9-19.9-2-3.9-2-4.4-2-10.4-.6-3.5.8-6.9,1.9-7.6,2.5-1.7,1.4-7.8.1-10.7-2.2-1.8-1.4-2.3-2.5-1.9-4.8.2-1.7.8-3.1,1.2-3.1s1.1-1.3,1.5-2.9,1.3-3.2,2.1-3.5a2.15,2.15,0,0,0,1.4-1.9c0-.7,1-2.3,2.3-3.5,1.8-1.7,3-2,6-1.5,3.7.6,4.6,1.6,2.7,2.8-.7.4,0,1.7,1.6,3.2,2.1,2,3.1,2.3,4.8,1.5,1.2-.5,3.2-1.4,4.6-2,1.7-.7,1.9-1.1.8-1.1-4.4-.2-2.5-5.5,2.5-7C2028.24,150.3,2028.84,150.6,2026.54,154.5Zm52.5-2c3.6,1.5,4.5,3.6,2.7,6.4-.5.7-1.3,1.1-1.9.7-1.5-.9-4.2.4-4.2,1.9a1.91,1.91,0,0,1-1.1,1.7c-.6.2,1.4,2.6,4.5,5.3,3.8,3.3,5.6,5.6,5.6,7.2,0,2.7.8,2.9,2.6.5,1.3-1.6,1.5-1.6,3.4.7,2.7,3.2,2.5,4.1-.9,4.1-4.4,0-4.6,1.6-.8,5.2a11.12,11.12,0,0,1,4,8l.6,4.6-4.8.7c-4.8.6-9.1-.5-9.1-2.5,0-.5-1.2-1-2.6-1.2-3.8-.4-5.3-3.2-3.1-5.6a7.12,7.12,0,0,0,1.7-3.9,2.89,2.89,0,0,1,1.3-2.6c.7-.2-1.6-3-5.5-6.6-5.4-5-6.8-6.9-6.8-9.2,0-1.9-.5-2.9-1.5-2.9a1.66,1.66,0,0,1-1.5-1.7c0-1.9,3.8-6.3,5.4-6.3a17.27,17.27,0,0,0,4.6-3,40.23,40.23,0,0,1,3.6-3C2075.34,151,2077,151.7,2079,152.5Zm-136,14.9c1.7,1.3,5.9,4,9.4,6.1,5.7,3.3,6.2,3.9,6.2,7.1,0,4.6,2.3,9,5.7,10.6a6.74,6.74,0,0,1,3.5,4.5c.5,1.8,1.3,3.3,1.7,3.3a11,11,0,0,1,2.5.6c1.1.4,1.6.1,1.6-1,0-.8,1.1-2.3,2.5-3.2,3.2-2.1,3.1-2.7-.5-6.4-1.6-1.7-3-3.7-3-4.5,0-1.8,1.2-1.9,2.8-.3.8.8,1.6.6,3-1.2,2.9-3.6,5.5-2,7.5,4.8,2.8,8.9,4,11.2,6.1,11.2,1,0,3.6,1,5.8,2.2,3.7,2.1,4,2.1,4.9.5,1.2-2.1,3.9-2.2,6.5-.2a6.13,6.13,0,0,0,7.8,0,9.4,9.4,0,0,1,4.8-1.5c2.4,0,2.8.4,3,2.7.3,5.6-.4,8.9-2.9,14.6-3.4,7.6-5,8.6-12.4,8a25,25,0,0,0-9.8.7c-3.6,1.1-4.5.9-16.9-3.9-12.6-5-13.2-5.1-16.5-3.8-4.6,2-7,5.3-5.5,8,1.6,3.1-2.7,5.2-5.1,2.3-.6-.7-3.2-1.6-5.8-1.9-2.9-.3-5.2-1.2-6.2-2.4-2.8-3.5-7.8-6.3-11.3-6.3a11.64,11.64,0,0,1-6.6-2.9c-3.2-2.7-3.2-2.8-1.8-6.2,1.8-4.3.3-10.4-2.9-11.4-2.7-.9-9.1-.6-14,.7-2.2.5-8.2,1.4-13.3,1.9-9.8.9-12.1,1.7-16.2,5.4-2.3,2.1-3.2,2.3-9.3,1.8s-6.8-.8-6.5-2.7c.3-2.3,3.4-4.1,9.5-5.6,4.5-1.1,12.9-8.2,11.8-10-1.2-2,3.9-9.2,8-11.2,4.6-2.4,5.7-3.6,4.9-6-.8-2.6,4.1-4.3,8.5-2.9,3,.9,3.9.7,7.7-1.9,5.8-4.1,7.9-3.9,10.3.9,2.4,4.6,6.8,8.5,12.8,11.3,4,1.9,9.3,6.9,9.3,8.7a9.16,9.16,0,0,1-2.1,3.4c-1.8,2.3-2.5,2.6-6.3,2.1-6.7-1-6.7,1.2,0,4.1,3.1,1.4,5.8,2.5,6,2.5s.4-1.4.4-3c0-2.2.5-3,1.8-3,1,0,2.6-1.3,3.5-3,1.4-2.4,1.6-3.4.7-5.1-1.7-3,.1-4.6,3.5-3.1,2.1,1,2.5.9,2.5-.4,0-.8-2.1-2.4-4.7-3.5s-5.2-2.7-5.6-3.5a3.12,3.12,0,0,0-2.6-1.4c-1.8,0-5.3-3.4-8.9-8.7-2.6-3.7-2.7-5.1-.6-7.4,1.6-1.8,1.8-1.6,4.7,2.7A31.78,31.78,0,0,0,1943,167.4Z" transform="translate(117.47 231.53)"/><path class="cls-2" d="M1538,33.8a5,5,0,0,0-1.6,2.3c-.4.9-3.6,2.7-7.1,4l-6.6,2.4,1.9,2.5c1.7,2.3,2,2.3,7,1.2a24.41,24.41,0,0,0,7.7-3.2c4.1-3.2,4.4-2.4,1.3,3.4a36.12,36.12,0,0,0-3,6.1c0,.3,1.4,1.1,3,1.6s3,1.7,3,2.5c0,1.8,2.3,1.8,5.8,0,5.3-2.6,19-3.6,25.8-1.7,2.5.7,3.8.4,6.3-1.1,3.6-2.3,3.6-2.2,1.5-5.2-1-1.6-1.2-2.6-.5-3.1.6-.3,1.1-2.4,1.1-4.7,0-3.8-.1-4-2.6-3.4a12.46,12.46,0,0,0-4.9,3.4c-2.2,2.5-2.4,2.6-4.2,1-1-.9-4.1-2-6.9-2.3-4.2-.6-5.4-1.2-6.8-3.6-1.7-2.8-1.9-2.9-10.4-2.9C1543,33,1538.64,33.4,1538,33.8Z" transform="translate(117.47 231.53)"/><path class="cls-2" d="M1600.34,35.7a3.92,3.92,0,0,0-.7,2.5c0,2-1.1,2.3-2.7.7a1.87,1.87,0,0,0-2.2-.4c-.7.4,0,1.7,1.9,3.6,3.2,3.3,4.3,3.3,11.1-.2,2.4-1.2,3.8-2.7,4.1-4.4.5-2.4.4-2.5-5.2-2.5C1603.54,35,1600.64,35.3,1600.34,35.7Z" transform="translate(117.47 231.53)"/><path class="cls-2" d="M1616.24,38c-1.3,1.7-5.3,4.9-8.7,7.1s-6.4,5-6.7,6.1c-.4,1.6-1.1,1.9-3.7,1.4-4.3-.8-10.5,1.8-10.5,4.4,0,1.8-.7,2-6.2,2.1-9.4.2-11.1-.1-13.4-2.2-1.9-1.8-2.5-1.9-6.8-.7-2.5.7-4.6,1.8-4.6,2.5,0,1-2.5,1.3-10.2,1.2-8.2,0-9.8-.3-8-1.1,4.3-2.1,3.5-2.6-10.9-5.8-3.2-.7-6.9-1-8.3-.6-1.9.5-2.6.3-2.6-.9s-.5-1.3-2.7-.4-3,.7-4-.7a2.29,2.29,0,0,0-3-.9c-4.2,1.7-17,4-19.3,3.5a13.11,13.11,0,0,0-6,.7c-4.8,1.7-8.6,1.6-11.6-.3-1.6-1.1-6.1-1.9-13.2-2.5-13.8-1-26.4-3.2-28.7-4.9-1.3-1-15.5,2-27.5,5.8-5.2,1.7-11.1,3.3-13,3.7-6.5,1.2-7.1,1.6-6.5,3.6.3,1,.8,2.8,1.1,3.9.4,1.7.1,2-2.5,2-1.7,0-3.1-.4-3.1-.9s-3.7,0-8.2,1.3c-6.3,1.7-8.3,2.7-8.9,4.4s-.4,2.3,1.6,2.8a26.76,26.76,0,0,0,6.5.2c3.1-.3,3.9,0,3.5,1a7.44,7.44,0,0,0-.5,2.2c0,.4-2.1,1-4.7,1.3-12.8,1.3-23,5.6-26.6,11.1-2.7,4.1-2.2,5.7,1.4,4.9l3.1-.6-1.7,2.7c-1.6,2.3-1.6,2.6-.1,2,2-.8,8.6.4,8.6,1.5,0,.8-39,16.1-41.2,16.1a13.8,13.8,0,0,0-3.8,1.5c-2.5,1.4-2.5,1.4,1,.9,11.9-1.9,32.3-7.8,39.4-11.4,4.3-2.2,8.9-4,10.1-4,3.1,0,11.7-2.8,13.9-4.5,1.6-1.2,1.7-1.7.6-3s-.9-1.5,1.4-1.5a30.52,30.52,0,0,0,7.8-2c2.8-1.1,5.3-1.8,5.5-1.6s-1.5,1.5-3.7,3a20,20,0,0,0-4,3c0,.7,12.8-2.4,17.6-4.2s5.1-1.9,8.4-.2a32,32,0,0,0,8.7,2.5c7.4,1,8.7,3.3,8,13.7l-.5,7.8h3.4c3.2,0,3.3.1,2.3,2.7-.7,1.7-.8,5.5-.4,9.7l.6,6.9-2.5-.7c-3.9-1-3.8,2.3.2,6.6,2.7,2.8,3.3,4,2.4,5a51.42,51.42,0,0,0-3.2,6.8,52.53,52.53,0,0,1-7.5,11.6c-3,3.3-5.7,7.4-6.1,9a20.6,20.6,0,0,1-3.3,6.4c-3,4.1-3.2,6.8-1.8,20.3l1.1,9.9,4.2,2.9c4.8,3.3,5,3.7,6,13.4a47.12,47.12,0,0,0,2.1,10.3c1.3,3.1,1.2,3.5-.3,4.7s-1.5,1.5-.3,3.2a31.61,31.61,0,0,0,4.5,4.6c2.4,2,3,3.3,2.7,5.1s.4,3.6,2.6,6.3c1.7,2.1,3.1,4.3,3.1,5a1.23,1.23,0,0,0,1,1.3c2.1,0,2.2-3.3.3-7.4a39,39,0,0,1-2.7-7.3,116.17,116.17,0,0,0-4.1-11.7c-2.5-6.4-3.2-9.5-2.8-12.1.3-1.9.7-3.5.9-3.5a25.16,25.16,0,0,1,2.7.9c2,.8,2.5,1.8,3,6.2a24,24,0,0,0,4.2,10.6c2.1,3.1,3.5,6.5,3.5,8.3,0,2.3,1.5,4.8,6,10.1,4.9,5.7,6,7.6,6,10.5a13.9,13.9,0,0,1-.9,5.2,5.46,5.46,0,0,0-.1,3.8c1,2.5,10,9.4,12.3,9.4a2.91,2.91,0,0,1,2.4,1.4c1.2,2,15,8.7,18.1,8.8a42.56,42.56,0,0,0,6.5-.7c3.6-.7,4-.6,8.6,4.2s5.8,5.4,17.9,8.6c3,.8,4.4,1.8,4.8,3.4a9.28,9.28,0,0,0,2.5,3.9,6.53,6.53,0,0,1,1.9,4.1c0,3.1,10.2,12.7,13.8,13a9.5,9.5,0,0,1,4.8,2.4c2.7,2.6,5.9,1.9,5.1-1.1-.6-2.3,2.6-5.5,4.8-4.6a4.32,4.32,0,0,1,2.1,2.3,31.57,31.57,0,0,0,2,4.5c1.7,3.2,1.9,17,.2,20.1a10.18,10.18,0,0,1-3,3.5,4.6,4.6,0,0,0-1.8,3.3,3.88,3.88,0,0,1-2.2,3c-3.2,1.4-7.2,11.8-5.9,15.2a8.81,8.81,0,0,0,2,3.2c.7.4.2,1.8-1.5,4-2.4,3.1-2.4,3.6-1.3,7.7a22.44,22.44,0,0,0,4,7.3,44.82,44.82,0,0,1,5.4,8.5,100.06,100.06,0,0,0,5.5,9.5,140.41,140.41,0,0,1,7.3,13.2c4.6,9.1,4.7,9.2,15.4,16.8,5.9,4.3,11,7.9,11.1,8.1s1.2,5.1,2.3,11.1a175.7,175.7,0,0,1,1.9,26.6c0,11.6.4,17.3,1.7,21.8,1.4,5.2,1.5,7.7.6,18.7-.9,11.3-.8,13.1.7,16.2a37.66,37.66,0,0,1,2.4,9c.9,8.1,2.5,13,4.2,13,1,0,1.3-.7.8-2.5-.4-1.4-.2-2.5.4-2.5s1.5,2.3,2.1,5c1.4,6.4,1.4,6.3-.3,5.7-2.1-.8-4.2,1.9-2.8,3.6.7.8.9,2.9.5,5-.4,2.9-.2,3.7.9,3.7a3.24,3.24,0,0,1,2.9,4.8c-.8,1.6,0,3.4,4.5,10a111.53,111.53,0,0,0,11.8,14c5.9,5.4,6.8,6,16.1,8.4l9.8,2.5,3.4-1.9c1.8-1.1,3.3-2.3,3.3-2.7s-2.5-1.5-5.4-2.5c-4.2-1.2-6.5-2.8-9.7-6.4-5.2-5.9-6.1-8.2-4.3-10.3a3.32,3.32,0,0,0,.8-3.2c-.3-.9.4-3.3,1.7-5.4,1.5-2.4,1.9-3.8,1.1-4.1a17.86,17.86,0,0,1-3.6-2.3c-3-2.4-3.7-8.5-1.1-9.5,1-.4,1.5-2,1.5-4.4,0-2.1.7-4.3,1.5-5,2.1-1.7,1.9-3-.4-3-2,0-5.1-3.5-5.1-5.7,0-.8,1.3-1.2,3.5-1.1,4.3.2,6.8-1.8,6.1-4.8-1-3.7.3-5.4,3.9-5.4,6.4,0,9.5-1.2,11-4.1,2.2-4.2,1.9-9.6-.5-10.9a6.18,6.18,0,0,1-2.6-3.5c-.3-1.4-1.3-2.5-2.2-2.5-1.2,0-1.3-.3-.4-1.2s1.6-.7,3.1.6a13.21,13.21,0,0,0,6.1,2.3c3.3.5,4.5.2,6.5-1.7,2.5-2.4,7.5-13.6,7.5-17a1.77,1.77,0,0,1,1.9-2c3.6,0,6.6-6.6,6.8-15,.1-4.1.2-7.8.2-8.1.2-1.4,14.3-10,19-11.6,8-2.5,11.3-7.6,13.6-20.7a143.06,143.06,0,0,0,2-17.7c.2-7.3.4-7.9,4.7-14a97.23,97.23,0,0,0,8.1-14.2c3.6-7.7,3.6-7.7,2-12.2-1.2-3.6-2.2-4.9-4.9-6-1.9-.8-6.1-3.8-9.3-6.6l-5.8-5.3-8.4-.2c-4.6-.2-9.2-.4-10.1-.4-1.1-.1-1.8-.9-1.8-2.3-.1-1.7-1.4-2.8-6.2-5-5.5-2.5-6.3-2.6-7.8-1.2-2.3,2.1-3,1.9-3-.8,0-1.4-1.1-2.8-3-3.9-2.5-1.4-2.9-2.2-2.4-4.2a3.19,3.19,0,0,0-1.4-3.8c-1.1-.7-2.3-3.1-2.7-5.3-1-5.2-1.2-5.6-6.3-9.9-3.8-3.1-5.1-3.6-9.5-3.6-6.5,0-15.2-4.3-16.6-8-.5-1.5-2.5-3.3-4.8-4.5s-4.4-2.8-4.9-4a8.33,8.33,0,0,0-3.6-3.3c-3-1.4-3.5-2.7-1.5-3.6.6-.3-1-.3-3.8,0s-5.3,1-5.6,1.5-2.1.3-4.2-.6a23.16,23.16,0,0,0-7.2-1.5c-4.2,0-9-2.2-9.9-4.6-.5-1.4-1.2-1-4.1,2.2-1.9,2.1-3.4,5-3.5,6.3,0,2-.2,2.2-1.5,1.1-1.1-.9-1.3-1.6-.5-2.4a6.68,6.68,0,0,0,1-3.8c0-1.5.7-3.1,1.5-3.5a1.49,1.49,0,0,0,.7-2c-.6-.9-2-.4-5.2,1.7a29.45,29.45,0,0,1-7.5,3.6c-3.3.7-5.4,2.9-5.5,5.6,0,1-1.3,3.2-2.8,5l-2.9,3.1-3.6-2.9c-2.9-2.2-4.5-2.8-7.4-2.5a16,16,0,0,0-5.7,1.3c-4.1,2.2-10.6-4.8-10.6-11.3a52.62,52.62,0,0,1,1.7-10.3l1.6-6.8-2.4-1.9c-1.9-1.5-4.2-1.9-11.1-1.9h-8.7l2.6-6.3c1.4-3.4,3.4-8.7,4.5-11.7a69.28,69.28,0,0,1,2.9-6.6c.6-.8-.5-1.3-3.7-1.8-6.3-.8-9.8,1.1-11.6,6.6-1.4,4.2-1.6,4.3-8.7,6.2-8.4,2.2-10.7,1.5-14.4-4.3-4.4-7-4.7-10.6-1.5-20,1.5-4.7,2.8-10.1,2.8-12.2,0-3.5.4-3.9,9.3-9.8,7.6-5,10-6.1,13.4-6.1,2.3,0,4.5.4,4.8,1,1.1,1.7,4.8,1.1,7.2-1.2,3-2.8,15-3.6,16-1.1.4,1.1,1.5,1.3,3.8.9,2.5-.5,3.6-.1,5.5,1.9,2,2.2,2.3,3,1.4,5.3-1.2,3-.2,8.1,2.3,11.8,4,6.2,6.8-.5,5.8-14l-.6-9.1,4.8-5.2a72.74,72.74,0,0,1,11.8-9.7,78.8,78.8,0,0,0,10.8-8.3c3.2-3.2,3.7-4.3,3.3-7.1-.3-2.3-.1-3.2,1-3.2.8,0,2.2-1.5,3.1-3.4s2.1-3.2,2.8-3,2.6-1.2,4.3-3.3c2.2-2.9,4.5-4.3,8.5-5.6a42.82,42.82,0,0,1,6.9-1.7c2.1,0,4.2-2.6,2.9-3.5-1.6-.9,2.9-7.3,5.9-8.4l11-4c8.3-3,8.4-3,5.6-.7-3.9,3.2-3,5.9,1.4,4.6a17.21,17.21,0,0,0,4.4-1.9,20.56,20.56,0,0,1,5.8-2.1,17.28,17.28,0,0,0,6.4-3.1,5.82,5.82,0,0,1,3.6-1.9c1.3,0,1.8-.7,1.8-2.5,0-1.5-.6-2.5-1.4-2.5s-2.3,1.1-3.4,2.5c-2.7,3.4-8.5,3.5-10.7.2-1.4-2.2-1.3-2.7,1.1-7.1,2.2-4,2.4-5,1.3-5.7-2.3-1.5-4.6-1-11.7,2.1l-6.7,3,3.5-3c1.9-1.7,4.1-3,4.9-3a6.65,6.65,0,0,0,3.4-1.8c1.5-1.4,4.5-1.8,15.1-2.3,12.2-.5,13.5-.8,19.4-3.7,3.4-1.8,6.2-2.9,6.2-2.4s-3.4,4.1-7.5,8.2-7.5,7.8-7.5,8.2,2.9.8,6.4.8,6.8.5,7.1,1.1a1.78,1.78,0,0,0,2.1.5,2.06,2.06,0,0,1,2.3,1.1c.8,1.5,1.1,1.5,3.5,0,2.1-1.4,2.4-2.1,1.6-4.1a8.71,8.71,0,0,1-.3-4.5c.4-1.8.1-2.1-2.3-2.1-3.6,0-6.1-4.2-3.8-6.1.8-.6,1.1-1.5.8-2s.4-2.2,1.5-3.8c2-2.7,2-3.1.5-7.5-.9-2.6-2.5-5.1-3.8-5.7a31.2,31.2,0,0,1-4.8-3.7c-2.1-1.9-2.5-2.9-1.7-4.3,1-2-.8-15.9-2.2-15.9a13.76,13.76,0,0,0-3.6,2.4,41,41,0,0,1-6.9,4.4c-4.1,2.1-4.2,2.1-6.2.2a5,5,0,0,1,.6-7.7c1.3-1.1,1.1-1.4-1.1-2.2a18.68,18.68,0,0,1-5.6-4.3c-2.1-2.3-3.3-3-4-2.2-.7.6-3.3.8-6.7.4-5.5-.6-5.6-.6-8,2.9-1.3,2-2.4,4.3-2.4,5.1s-1.8,3.4-4,5.5c-3.3,3.2-3.7,4.1-2.5,4.8,1.8,1,1.9,2.7.4,6-1.2,2.6-10.1,8.3-13.9,8.9-2.1.3-2.7,1.1-3.9,6.4s-1.8,6.3-5.1,8.2l-3.8,2.1-.6-2.3c-.3-1.3-.9-3.1-1.2-4-.4-1.2-.2-1.5.9-1a1.93,1.93,0,0,0,2.2-.5c.3-.6-.1-1.1-.9-1.1-2.1,0-2-1.8.4-5.8l2-3.2h-3.3a22.46,22.46,0,0,1-7.2-2,27.11,27.11,0,0,0-5.2-2c-.7,0-1.3-.4-1.3-1,0-1.7-5-4.3-8.1-4.2-2.7.1-2.9-.2-2.9-3.9,0-3-.4-3.9-1.7-3.9-3.7,0,5.5-7.3,15.8-12.5,5.8-2.9,11.1-6,11.8-6.9a4.93,4.93,0,0,1,3.1-1.6c2.6,0,11-3.7,14.7-6.6a15.1,15.1,0,0,1,3.9-2.4c1.3,0-5.9,7.1-8.1,8-1.6.7-1.7.9-.3.9a2.41,2.41,0,0,1,2,1.6c.3,1.3.9,1.2,4.2-.6s4.4-1.9,6.3-1c3.3,1.5,6.3,1.4,6.3-.3,0-.7-2-3-4.5-5-5-4.1-5.9-6.2-2-4.4,1.9.9,2.8.9,3.7,0a5.1,5.1,0,0,1,3.3-1.2c2.7,0,8.5-3.6,8.5-5.3a5.77,5.77,0,0,1,2-3.2c1.4-1.3,1.7-2.2,1-2.9-2.1-2.1-.8-2.6,7.3-2.6,6.6.1,8.6.4,10.5,2,2.8,2.4,2.1,4-1.8,4-3,0-6.4,2.5-5.5,4.1s4.8,1,6.9-1c3.1-2.9,6-3.1,6.4-.4.3,1.8-.6,2.7-4.2,4.5-3.1,1.5-4.6,2.8-4.6,4.1,0,1.8-.5,1.9-6,1.4-4.7-.4-6.5-.2-8.1,1.2-1.8,1.5-1.9,1.8-.6,2.9s2.3.9,5.6-.4c4-1.6,4.3-1.6,6.2.2a18.4,18.4,0,0,1,3.4,4.5c1.1,2,3,3,8.4,4.6,7.8,2.3,8.8,1.7,5-3.1-2.6-3.3-1.1-3.3,3.8-.1,3.6,2.5,3.7,2.5,4.4.6a7.06,7.06,0,0,1,2.5-2.9c1.9-1,1.9-1.1-3.1-7.8-.7-1-.4-1.9.8-3.1,1.7-1.7,1.9-1.7,4.5,1.5,2.9,3.4,5.6,4.2,6.6,1.7a2.94,2.94,0,0,1,2.6-1.5,6.72,6.72,0,0,0,4.1-1.9c2-1.8,2-1.8-1.7-5-2.3-2-4.4-3.1-5.5-2.8-2.8.7-4.5-1.9-2.5-3.8a5.32,5.32,0,0,0,1.6-2.9c0-1.7-3.3-4.6-5.2-4.6a2.68,2.68,0,0,1-2.2-1.5,3.28,3.28,0,0,0-3-1.5c-1.5,0-3.4-1.2-5.2-3.2-2.5-3.1-3.2-3.3-10.8-3.9-8.7-.7-15.3.6-18.7,3.7-1.6,1.5-1.9,1.5-1.9.2a4.63,4.63,0,0,1,2.3-3.1c2.1-1.6,2.2-1.6.1-1.6-3.7-.1-10.8,2.9-14.6,6.2-3,2.7-3.5,3.6-2.7,5.4.6,1.7,1.6,2.3,4,2.3s3,.3,2.5,1.6a16.16,16.16,0,0,0-.6,1.9c0,.7-9.8,7.3-11.8,7.9-2.7.9-3.1-1.8-.6-3.2,2.2-1.2,1.4-4.6-1.3-5-1.7-.3-2.2-1.1-2.5-5-.6-5.8.2-6.9,5.5-7.7a29.36,29.36,0,0,0,8.2-3.1l4-2.4h-7.2C1619.24,35,1618.64,35.2,1616.24,38Z" transform="translate(117.47 231.53)"/><path class="cls-2" d="M1814.24,66.9l-2.8,1.9,2.2,1.2a5.49,5.49,0,0,0,3.6.6c.9-.3,1.4.1,1.4,1.3,0,1,1.1,2.4,2.5,3.1s2.5,1.8,2.5,2.3c0,1.1,6.6.1,13.9-2.1,6.4-2,8.7-5.2,5.5-7.7a6.06,6.06,0,0,0-4.4-1c-9.3,1.6-16.1,1.7-18.5.1C1817.14,64.7,1817.74,64.6,1814.24,66.9Z" transform="translate(117.47 231.53)"/><path class="cls-2" d="M1876.64,97.5a2.66,2.66,0,0,1-2.7,1.1c-.8-.3-2.8.4-4.5,1.7-3.7,2.7-5.3,6.4-3.7,8.3.9,1.1.8,1.4-.2,1.4s-.6.8.9,1.9c1.2,1.1,2.2,2.4,2.2,3s1.1,1.1,2.4,1.1c1.8,0,2.7.8,3.4,2.9,1,2.7.8,2.9-1.9,3.5s-4.2,2.6-1.9,2.6c2,0,.9,1.8-1.5,2.4-3.2.8-3.2,2.6-.1,2.6,1.4,0,2.8.4,3.1,1s0,1-.8,1c-1.3,0-5.7,4-5.7,5.2,0,.9,5.9-.9,7.5-2.2.7-.6,4.4-.9,8.2-.8,7.5.2,9.8-.6,8.9-2.9a3.36,3.36,0,0,1,.9-3c2.1-2,1.4-3.7-1.6-4.3-1.3-.3-2.5-1.1-2.7-1.9-.4-1.9-6.2-10.3-8.1-11.8-1.4-1-1.4-1.3.2-3,2.4-2.7,2.1-4.3-.7-4.3s-4.3-1.5-2.2-2.3c1.7-.7,4.1-4.7,2.8-4.7A4.29,4.29,0,0,0,1876.64,97.5Z" transform="translate(117.47 231.53)"/><path class="cls-2" d="M1856.44,115.6c-.8,1.8-1.7,2.4-3.1,2-2.6-.6-4.1,3.4-1.9,5.2,1.5,1.1,1.4,1.4-.6,2.8-5.4,3.8-.7,6.1,6.9,3.4,5.7-1.9,6.9-3.2,6.9-7.2,0-1.5.5-3,1-3.3,2.2-1.4,1-4.3-2.1-4.9C1858.54,112.6,1857.64,112.9,1856.44,115.6Z" transform="translate(117.47 231.53)"/><path class="cls-2" d="M2375.24,256.9c-2.1,4-2,7,.4,10.5l1.9,3,1-2.7c1.9-4.8,2.1-7.1,1.3-10.1C2378.74,253.5,2377,253.3,2375.24,256.9Z" transform="translate(117.47 231.53)"/><path class="cls-2" d="M1535.44,267c-1.6,1.2-2.8,3-2.8,4.1,0,2.6,1.5,2.4,3.7-.4,3-3.8,4-3.9,10.6-1.6,7.2,2.5,9.7,4.4,9.7,7.3,0,4.1,1.2,4.6,8.3,3.9,3.7-.3,7.5-1.1,8.4-1.8,1.5-1.1,1.2-1.4-1.9-2.4a18,18,0,0,1-6.3-4.1c-3.5-3.6-9.9-5.7-19.8-6.5C1539,265,1537.84,265.2,1535.44,267Z" transform="translate(117.47 231.53)"/><path class="cls-2" d="M1579.14,281.2c.7,3.1-.4,4.6-3.9,5-5,.5-4.4,2.8.8,2.8,2.5,0,4.6.4,4.6,1,0,1.6,3.2,1.1,4.5-.7.8-1,3.2-1.8,6.9-2.1,3.1-.2,5.6-.8,5.6-1.3s-1.5-1.9-3.3-3.3a10.16,10.16,0,0,0-7.2-2.4,22.78,22.78,0,0,1-6.3-.6C1578.84,278.9,1578.64,279.1,1579.14,281.2Z" transform="translate(117.47 231.53)"/><path class="cls-2" d="M2333.84,279.7a5.09,5.09,0,0,0-3.2,2.3c-2.5,4.8,3.6,7.1,6.6,2.5,1.5-2.4,1.4-5.7-.3-5.4C2336.54,279.2,2335.14,279.5,2333.84,279.7Z" transform="translate(117.47 231.53)"/><path class="cls-2" d="M2382.44,285.1c-1.1.6-1.8,2.2-1.8,4.2a15.18,15.18,0,0,1-1.5,6c-1.8,3.5-.9,8.4,1.7,9.8a2.43,2.43,0,0,1,1.4,3.2,5.55,5.55,0,0,0,1.4,4.4c2.4,3,3,2.9,3-.7,0-2.9.1-2.9,2.7-1.7,1.5.6,4.4,3,6.4,5.2,3.2,3.4,3.5,4.1,2.2,4.9-1,.6-2.5.3-4.3-.8a16.36,16.36,0,0,0-3.4-1.6c-1.4,0-.5,5.1,1.2,6.8a14.34,14.34,0,0,1,2.5,3.5c.7,1.8,2.4,2.1,5.1,1.1,2.1-.8,2-2.3-.1-4.6-1.5-1.7-1.5-2-.3-2.8,2.3-1.5,3.2-.7,4.6,4.1,1.3,4.1,1.2,4.5-.8,6a5.59,5.59,0,0,1-3.9,1.2c-2.2-.6-5.4,2.6-6.3,6.3-.6,2.7-.5,2.8.9,1a6.4,6.4,0,0,1,3.9-2.2c2-.2,2.5.3,3,3.1a9,9,0,0,0,3.6,5.5l3,2.1v-3.6c0-2.9.4-3.5,1.8-3.3,1.1.2,1.6-.2,1.3-1.2-.1-.8-.4-3.8-.5-6.7-.1-3.8-.7-5.8-2.4-7.6a8.92,8.92,0,0,1-2.2-5.1c0-4-1.6-6.4-5-7.1-2.6-.6-2.9-1-2.4-3.4s.2-2.9-2.3-3.9a27.78,27.78,0,0,0-5.3-1.4c-2.1-.3-2.5-.9-2.8-4-.2-2,.1-4.6.7-5.6.7-1.3.7-3.2,0-5.8C2386.14,285.3,2384.64,283.8,2382.44,285.1Z" transform="translate(117.47 231.53)"/><path class="cls-2" d="M2368.34,344a16.79,16.79,0,0,1-5.2,6,33.6,33.6,0,0,0-6.2,5.3,20.78,20.78,0,0,1-5.5,4.4,10.74,10.74,0,0,0-4.3,4.4c-1.5,2.8-2,3.1-5.2,2.6-2.7-.5-3.4-.3-2.9.8a1.72,1.72,0,0,1-.4,2c-1.6,1-1.1,5.8,1,9.3a15.24,15.24,0,0,1,2,6.6c0,4.3,2.2,6,7,5.8a18.47,18.47,0,0,1,7.6,1.3c4.3,1.8,7.7,1.9,10.6.4,1.6-.9,1.9-1.7,1.4-4.4s-.2-3.8,2.4-6.5c2.2-2.2,3-4,3-6.5,0-2.9.4-3.6,2.5-4.1,3-.7,3.1-1.4.5-4.7s-2.5-7.5.5-11.9c1.4-2,2.5-4.3,2.5-5,0-1.2-7.9-9.8-9-9.8C2370.34,340,2369.34,341.8,2368.34,344Z" transform="translate(117.47 231.53)"/><path class="cls-2" d="M2279.24,348.7c-1.3,1.3-.5,2.9,2.3,4.5a18.38,18.38,0,0,1,5.5,5.6c1.4,2.2,3.4,4.3,4.5,4.7a7.29,7.29,0,0,1,3.5,3.3,138.23,138.23,0,0,1,8.6,19.5,26.61,26.61,0,0,0,14,15.3c3.3,1.5,3.5,1.5,5.3-.7a5.46,5.46,0,0,0,1.3-4.4c-.3-1.2.3-3.8,1.4-5.8l2-3.7h-2.5c-1.4,0-2.5-.5-2.5-1s-1.9-2.8-4.1-5c-3.2-3.1-3.9-4.3-3.1-5.3s.2-2.1-3.1-4.8c-2.3-1.9-5.9-4.5-7.9-5.8a16.49,16.49,0,0,1-5.5-5.3c-1.3-2.1-4.5-4.3-10.4-7.4C2283.74,350.1,2279.64,348.4,2279.24,348.7Z" transform="translate(117.47 231.53)"/><path class="cls-2" d="M2402.14,368.1c-2.4,1.4-4,1.6-8,.9-8-1.4-9.1-1.2-10.3,1.5a13.51,13.51,0,0,0-1.2,5,23.4,23.4,0,0,1-2,6.9c-1.5,3.7-1.7,5.2-.9,7.4a22,22,0,0,1,1,7.4c-.1,4.9.8,5.8,3.9,3.8,1.1-.7,1.4-2.5,1.3-7-.2-5.7.7-7.5,2.4-4.8a5.77,5.77,0,0,1,.8,2.3c.3,2.9,2,7.1,3.4,8.1,3.9,3,5.5-2.6,2.4-8.8-.9-1.8-2-4.1-2.5-5.1-.7-1.4-.3-2.3,1.6-3.8,1.5-1.1,2.6-2.5,2.6-3,0-1.3-4.7-1.1-7.1.3-1.7,1.1-2.2,1-3.5-.7-3.4-4.6.4-8.9,5.8-6.5,7,3,14.4,1,13.6-3.7C2405.14,366.4,2405,366.4,2402.14,368.1Z" transform="translate(117.47 231.53)"/><path class="cls-2" d="M2429.94,377.7c-1.3.2-2.3.8-2.3,1.2,0,1.1,3.4,4.1,4.7,4.1s4.8,3.9,4,4.6c-1.2,1.2,2.3,6.4,4.1,6.1,2.3-.3,15.3,4.2,17.4,6,2.5,2.2,3.5,9.3,1.4,10.5-2.4,1.4-1.9,2.8.9,2.8,1.4,0,4.8,1.1,7.5,2.5,6.9,3.5,9.2,3.2,14.1-1.5,2.3-2.2,4.5-4,5-4s2.9,2.5,5.5,5.5c3.5,4.1,6,5.9,9.6,7.1,2.6.8,5.3,1.4,6,1.2s-1.6-3.2-4.9-6.7c-6.7-6.8-8.4-10.1-5.2-10.1,1,0,1.9-.6,1.9-1.4,0-1.9-4.7-5.6-7.1-5.6a1.74,1.74,0,0,1-1.9-1.9c0-1.1-1.5-3.1-3.2-4.4-6.3-4.7-24.3-12.7-28.6-12.7-.8,0-3.3,2.1-5.7,4.7l-4.3,4.6-3.6-3.9c-2.9-3.1-3.5-4.4-3-6.7.6-2.7.5-2.7-4.8-2.6C2434.54,377.2,2431.14,377.5,2429.94,377.7Z" transform="translate(117.47 231.53)"/><path class="cls-2" d="M2326.14,402.7c-4.8,1.2-6,4.3-1.6,4.3a11.12,11.12,0,0,1,6.1,2.6c2.5,2.1,5,2.9,13.3,4.1a114.31,114.31,0,0,1,14.1,2.8c3.3,1.2,4.6,1.2,7.9,0,3-1,4.6-1.1,6-.3,1.1.5,4.5.8,7.6.6a32.65,32.65,0,0,1,8.6.3,12.19,12.19,0,0,0,6,0c1.6-.5,4.8-1.2,7-1.6l4-.6-4,2.7-4.1,2.8a16.69,16.69,0,0,0-.9,2.5c-.6,2.1,0,1.8,4.7-2.2,3-2.5,6.7-5.1,8.3-5.7,2.7-1,2.8-1.3,1.2-2.1-1.2-.7-3.5-.6-7.2.2-4.1.9-6.1.9-8,.1s-3.2-.8-5.7.2-4.5,1.2-8.8.4a84.23,84.23,0,0,0-11.5-1.3c-11-.3-17.6-2.4-13-4.1,2.6-1,.5-2.4-3.6-2.4a13,13,0,0,1-6.5-1.7c-2.4-1.5-2.5-1.5-3.1.5-.8,3.2-6.6,3-10.5-.3a12.7,12.7,0,0,0-3.6-2.4C2328.44,402.2,2327.24,402.5,2326.14,402.7Z" transform="translate(117.47 231.53)"/><path class="cls-2" d="M2431.94,429c.6,2.6.3,3-2.1,3.5a29.18,29.18,0,0,0-4.2,1.4c-1.9,1-6,8.2-5.4,9.3.3.4.4.8.2.8s-1.8.4-3.6.9c-3,.9-3.4.7-4.4-1.5-2.2-4.7-8.3-4.1-9,.9-.2,1.6-.9,2.1-2.5,1.9-1.3-.2-2.3.2-2.3.8s-1.6,2.6-3.5,4.6c-2.8,2.8-3.6,3.2-4.1,1.9s-.9-1.2-2.5.6a7.29,7.29,0,0,0-1.9,4c0,4-5.8,8.6-14.6,11.8-4.7,1.7-9.2,3.1-10,3.1s-3.6,1.5-6.2,3.2-5.4,3.3-6.2,3.3c-1,0-1.6,1.3-1.8,4.2-.2,2.3-.9,4.7-1.7,5.3-.9.8-1.2,2.2-.8,4.1.4,2.2.1,3.3-1.2,4.3-1.5,1.1-1.6,1.6-.5,3.5.7,1.4,1.2,7,1.3,14,.2,9.5-.1,12.4-1.7,15.9-1,2.3-2.5,4.2-3.3,4.2-2.5,0-1.4,3.9,1.7,5.5,4.1,2.1,6,1.9,12.3-1.5,4.8-2.5,6.8-3,12.7-3,3.9,0,7-.4,7-1,0-3.2,20.2-9.5,30.2-9.3,8.7.1,17.2,6.6,15.2,11.7-1.1,2.8,2.5,3.2,4.9.4,2.7-3.1,7.7-6.2,7.7-4.8,0,.5-1.3,2.2-3,3.7-3.6,3.2-4,5.2-.5,2.9,3.1-2.1,3.4-2,2.8.4-.3,1.1-2.3,2.7-4.4,3.7-4.1,1.8-4.8,2.7-2.5,3.6.8.3,2.4-.5,3.7-1.9,3.2-3.4,4.2-3,3.6,1.5-.7,5.4,2,9.6,7,11,5.2,1.5,7.8,1.4,9.3-.4s3-1.9,3-.1a4.08,4.08,0,0,0,1.3,2.5c1.1.8,2.4.3,5.8-2.3a20,20,0,0,1,8.3-3.9c2.1-.3,4.1-.9,4.5-1.4,3.2-4.9,17.5-21.2,19.4-22.2,4.1-2.2,10.7-14.6,13.7-25.6l2.7-10.1-2.8-3.9a24.78,24.78,0,0,1-3.4-6.7,8.31,8.31,0,0,0-2.7-4.2,7.08,7.08,0,0,1-2.3-4.8c-.2-2.1-1.6-4.8-4-7.6a27.56,27.56,0,0,1-6.5-16.8c0-5.2-1.7-8.6-3.9-7.9-1.6.5-2-.1-2.6-3.7-2.7-17-4.9-16.9-7.9.7-1.7,9.8-5.9,18.5-8.8,18.5-2.1,0-6.9-2.8-8.1-4.7a43.42,43.42,0,0,0-5.2-5.4l-4.3-4.1,2.9-4.4c1.7-2.4,3.4-4.6,4-4.9,1.1-.8,1.1-1.6,0-3.4-.7-1.1-1.5-1.1-4.3-.1-3,1.1-3.9,1-7.5-.9a16.88,16.88,0,0,1-4.8-3.1C2432.74,424.8,2431.44,426.1,2431.94,429Z" transform="translate(117.47 231.53)"/><path class="cls-2" d="M2084.54,434.7a74.17,74.17,0,0,0-5.7,7.4c-2.3,3.5-4.5,5.2-8.6,7-6.8,2.9-9.3,7.2-7.6,12.9,1.6,5.4,1.2,9-1.4,13.4a20.4,20.4,0,0,0-2.6,9.1c-.4,7.1-.3,7.3,2.6,10,5.9,5.5,13,1.6,15.8-8.7,2.6-9.8,5.5-19.7,7.8-26.6,1.1-3.4,1.7-7,1.4-7.8-.4-1.1.1-1.8,1.4-2.1,1.7-.5,2-1.4,2-6.7-.1-3.3-.6-7.1-1.3-8.4L2087,432Z" transform="translate(117.47 231.53)"/><path class="cls-2" d="M2567.24,542.8a54.49,54.49,0,0,0-.6,6.4c0,4.3-3,9.6-6.2,10.9-2.6,1.1-2.7,1.3-1.3,2.9,2.1,2.3,1.9,3.6-.7,5.4-2.8,2-3.8,2-3.8.1,0-1.3-.4-1.4-2.1-.5a5.19,5.19,0,0,1-3.2.7c-.7-.2-3,1-5.2,2.7a89.55,89.55,0,0,1-10.6,6.8c-3.6,2-10.7,6.1-15.8,9.3l-9.3,5.7,3.1,1.9c3.1,1.9,3.2,1.9,6.9,0a87.61,87.61,0,0,0,9.7-6.4c3.3-2.4,7.4-4.8,9.2-5.1,1.9-.5,3.5-1.5,3.8-2.7a9.35,9.35,0,0,1,3.8-3.5,28.16,28.16,0,0,0,5.4-3.6,10.36,10.36,0,0,1,6-2.2c4.4-.2,12.8-5.4,13.8-8.6a2.88,2.88,0,0,1,2.5-2c1.9,0,8-5.4,8-7.2,0-.6-.8-.7-1.7-.3-3.3,1.3-4.8,1-5.8-1.3-.5-1.2-1.3-2.2-1.8-2.2s-.5-2-.2-4.4c.6-3.8.4-4.6-1.3-5.5S2567.84,539.5,2567.24,542.8Z" transform="translate(117.47 231.53)"/><path class="cls-2" d="M2439.74,572.5c-2.6,8.3-2.6,8.3.2,8.7,3.8.7,9.3-3.1,12.2-8.3l2.6-4.9-4.6.6c-3.5.5-5,.3-6.4-1.1C2441.84,565.9,2441.74,566,2439.74,572.5Z" transform="translate(117.47 231.53)"/><path class="cls-2" d="M511.38.86c-4.9.3-9.9,1.1-11,1.7s-9,1.4-17.5,1.7c-14.1.5-37.8,3.2-39,4.5-.3.2.1.7.8.9,1.3.5,1.7,3.3.5,3.3-.5.1-5.7.7-11.7,1.4-11.6,1.5-14.1,2.8-10.7,5.7,1.8,1.5,4.8,2.2,19.4,4.8,9.9,1.8,14.1,6.5,10.2,11.7-2.2,3-1.8,4,2.3,5.1l3.7,1-4.2.8c-3.4.6-4.3,1.2-4.3,2.8s.5,1.9,3.4,1.4,3.4-.3,2.9.9a3,3,0,0,1-2.8,1.4c-1.4,0-3.3,1.3-4.9,3.4-2.4,3.1-2.6,4.3-2.6,12.4,0,10,2.2,19,4.8,19.8.9.3,3.6,1.4,5.9,2.5,5.8,2.9,9.4,1.9,13.6-3.5,1.8-2.4,6.1-7.4,9.5-11.1l6.2-6.8,9.8-2.2c7.1-1.6,11.3-3.2,15.2-5.8,5.3-3.5,27.8-11.2,34.5-11.9,2.8-.3,3-.6,3.3-4.5.3-4.5,2.4-6.9,9.3-10.6,2.4-1.4,2.9-2.1,2-2.7-1.8-1-.6-6,1.4-6,2.3,0,2.7-1.8,1-4.9-1.7-3.4-1.5-3.6,5.5-5.7a84.38,84.38,0,0,0,11.2-4.5l6.3-3-7,.6a88.72,88.72,0,0,0-9.2,1.1,3.05,3.05,0,0,1-3-1c-.4-.7-5-2.3-10.1-3.5C546.38-.14,532.78-.44,511.38.86Z" transform="translate(117.47 231.53)"/><path class="cls-2" d="M414.88,3.06c-8.2,1.5-34,3.9-35.5,3.3-.9-.4-3.4.6-5.7,2.2-2.8,2-4.3,2.5-4.5,1.6-.9-2.5-2.3-1.1-2.3,2.2,0,4.4,3,6.8,7.3,5.9,5.8-1.2,1.8,1.6-5.4,3.7-6.3,1.9-7.3,2-8.7.6a12.75,12.75,0,0,0-5.7-1.8c-3.7-.3-4-.1-4.5,2.7-.4,2.5-1,3-3.5,3-2.2,0-2.9-.4-2.7-1.7.3-1.9-.2-2.3-4.5-3.2-2.9-.7-3.3-.4-4.8,2.4-.9,1.8-1.5,3.4-1.2,3.6s4.4.9,9.3,1.5l8.9,1,2.1-2.7c2.1-2.6,4.8-2.6,3.8-.1-.8,2.2,10.9,3.9,17.9,2.8a29.83,29.83,0,0,1,8.5-.5c2.9.6,7.3-1.9,5.9-3.3-.5-.4-5.3-.8-10.7-.8-9.7,0-9.8,0-7.1-1.8,2.1-1.5,4.3-1.7,11.6-1.5,5,.1,9.5-.1,10.2-.5a3.54,3.54,0,0,1,2.7-.1c.8.3,5.9-1.5,11.3-4.1,9.8-4.7,17.8-7.3,30.8-10,17.4-3.5,19.5-4,19.5-4.5C457.88,2.06,419.68,2.16,414.88,3.06Z" transform="translate(117.47 231.53)"/><path class="cls-2" d="M356.18,13c-2,.8-2.1,1.2-1.2,3.4,1.1,2.3,4.2,4,5.3,2.8a8.92,8.92,0,0,0,.6-3.9C360.88,11.76,360.08,11.36,356.18,13Z" transform="translate(117.47 231.53)"/><path class="cls-2" d="M316.58,14.56a22,22,0,0,0-4.8,3.5c-1.9,1.9-1.9,1.9.7,1.9,3.2,0,9.6-3.8,9.1-5.3C321.08,13,319.58,13,316.58,14.56Z" transform="translate(117.47 231.53)"/><path class="cls-2" d="M337.58,13.66c-1.5,1.5-.4,2.3,4.8,3.8,4.1,1.2,5.9,1.4,7.5.5,2.8-1.5,1.9-2.5-3.4-3.9C341.38,12.76,338.48,12.66,337.58,13.66Z" transform="translate(117.47 231.53)"/><path class="cls-2" d="M288.88,20.16c-4.1,1.1-9.2,2.2-11.2,2.5-4.6.6-4,2.3.8,2.3a7.93,7.93,0,0,1,5.4,2,7,7,0,0,0,3.9,2,13,13,0,0,1,4.9,1.7c2.9,1.7,3.3,1.7,7.9,0a39.1,39.1,0,0,1,10.5-1.7c4.1,0,6.1-.5,7.4-1.8,1.7-1.6,1.7-1.7,0-2a1.36,1.36,0,0,1-1.2-1.8c.8-2-1.7-1.7-5.9.7-3.7,2.2-5.1,2.2-11.9-.4-2.2-.8-3.4-1.7-2.7-2.1,1.2-.8,1.5-3.6.4-3.5C296.68,18.06,293,19.06,288.88,20.16Z" transform="translate(117.47 231.53)"/><path class="cls-2" d="M895.88,19.86c-1.4.4-2.5,1.2-2.5,1.9,0,2.2-2.8,3.2-9.1,3.2s-21.8,2.5-24.4,4c-1.3.8-1.3,1,.3,1.5,3.7,1.5,1.3,2.5-6,2.5l-7.8.1,3.5,2.9c1.9,1.7,4.6,3,6,3,2.3.1,2.3.2.6,1.2-1.4.8-2.7.7-5.3-.6-3.3-1.6-10.4-2.2-11.6-1s.5,3.4,2.6,3.4c1.5,0,1.8.3,1,1.1-1.9,1.9-5.2-.1-7.3-4.2-1.1-2.2-2.8-3.9-3.7-3.9-1.4,0-1.3.4.6,2.4s2,2.4.7,2.9c-2.3.9-1.9,3.1.7,4.2a5,5,0,0,1,2.5,3.2c.5,3.5,2.7,4.7,6.4,3.4,2.1-.8,3.5-.8,4.2-.1,1,1-.3,1.4-3.1,1.1-1.8-.2-2.6,1.8-1.4,3.3,2,2.4-.7,6.6-4.1,6.6-3,0-3.8-1.4-1.3-2.4,2.2-.8,1.9-5.9-.5-7.4-1.1-.6-2.8-2.9-3.9-5.1s-2.7-4.1-3.6-4.4a3.79,3.79,0,0,1-1.5-3.2c0-1.8-.5-2.5-1.9-2.5a5.41,5.41,0,0,1-3.5-1.6c-2.4-2.4-5.4-.9-6.2,3.1-.3,1.8-1.3,3.6-2.1,4-1.4.5-1.4.7-.1,2.3a11.22,11.22,0,0,1,2.1,3.4c.3.9,2,1.9,3.7,2.3,2.8.6,5,2.9,3.8,4-.2.2-3.8-.7-7.9-2.1a70,70,0,0,0-12.9-3.1,25.12,25.12,0,0,1-7.7-1.9,8.48,8.48,0,0,0-3.8-1.4c-2.8,0-1.5,1.7,2.6,3.3,3.7,1.4,4,1.9,2.9,3.2-1.2,1.5-1.5,1.4-2.4-.4-.9-1.6-1.5-1.8-3.1-.9a19.47,19.47,0,0,1-5.5,1.9,26.72,26.72,0,0,0-5.2,1.4c-1.3.5-1.8.2-1.8-.9a1.58,1.58,0,0,0-1.6-1.6c-2.5,0-14.8,5.1-16,6.6s-4.6,1.9-5.7.7c-.4-.3-.2-1.2.4-2,1.8-2.1-.8-4.3-5.1-4.3h-3.8l2.4,4.6c2.7,5.2,2.5,6.2-.9,4.7-1.8-.8-2.8-.7-4.6.8a7.85,7.85,0,0,1-3.8,1.9c-1,0-1.2.6-.8,1.9.6,2.1-1,3.8-2,2.1-.8-1.3-8.5-1.3-8.5,0,0,.5,1.1,1.2,2.5,1.6s2.5,1.1,2.5,1.6c0,1.3-4.6.2-8.5-2.1-1.7-1-3-2.5-3-3.7a4.36,4.36,0,0,0-2-3.1c-1.9-1.2-1.9-1.2.5-1.2,1.4,0,5,.4,8,.8,7,1.1,13-.9,13-4.3,0-2-.8-2.5-5.7-3.5-3.2-.7-10.7-2.6-16.6-4.2s-11.5-2.8-12.4-2.5-1.3.1-.8-1.3c.5-1.6-.2-2.1-4.2-2.9-3.3-.7-5.2-.7-6,0s-3.1.8-5.6.5c-4.8-.7-16.2,1.9-27.4,6.1-6.9,2.6-9.1,4.2-5.8,4.2.8,0,1.5.4,1.5,1,0,1-5.1,6-6.1,6s-4.9,6.8-4.9,8.2c0,2.4-3.2,4.8-5,3.8-5.1-2.7-16,5.1-16,11.6,0,1.9.6,3.7,1.3,4s1.2,1.6.9,3.3c-.3,2.4.1,3,3.1,4.4,4.5,2.2,4.4,2.2,9.6-1.3,5-3.4,6.1-3.7,6.1-1.5,0,.9,1.1,3.3,2.5,5.4,2.6,3.8,2.5,7.1,0,7.1a10.07,10.07,0,0,0-2.8.6c-1.2.4-1.4,0-1-1.4.2-1.1,0-2.3-.6-2.6a1.76,1.76,0,0,1-.4-2.1c.9-2.5-3.5-1.8-6.2,1-2.9,2.8-3.1,5.4-.9,9.7,1.9,3.8,1.1,4.8-4.7,5.5-6.5.8-9.7,2.8-10.1,6-.2,2.3-1.3,3.3-5.6,5.3-2.8,1.4-5.5,3.3-5.8,4.3s-2,2.4-3.7,3.1c-2.7,1.1-3.6,1.1-5.9-.1-3.1-1.5-3.2-1.4-1.9,2,.9,2.4.9,2.5-2.9,2-4.4-.6-9,.3-9,1.7,0,.5,2.1,2.1,4.8,3.4,6,3,8.6,7.8,7.6,14.2-.4,2.9-1.2,4.5-2.4,4.9-2.6.8-18.3.3-20.3-.7-1.2-.6-2.9-.5-4.8.4-2.9,1.3-3,1.5-2.4,6.3A20.74,20.74,0,0,1,570,181c-1.3,3.7-1.6,6-1,7.2a10.93,10.93,0,0,1,.9,4.3c0,2.5.2,2.6,3.9,2s4-.4,5.8,2.7,1.9,3.5.3,7c-1,2.4-3.7,5.2-7.1,7.7-6.1,4.4-7.9,7.3-7.9,13,0,3.3-.7,4.5-5,8.5-2.7,2.5-5.8,4.6-6.9,4.6a4.18,4.18,0,0,0-3.2,2.2,40.2,40.2,0,0,1-4.6,6.1c-1.9,2.1-3.2,4.5-2.9,5.2s-.8,2.5-2.4,4a13.51,13.51,0,0,0-3.4,6,9.94,9.94,0,0,1-2.1,4.5c-1.9,1.6-1.9,6-.1,8.6,1,1.3,1.1,2.3.4,3.1s-.6,1.8.1,3.2a11.7,11.7,0,0,1,1.1,4.8c-.1,3.7-3.5,13.6-4.9,14.1-1.7.6-1.3,2.9.5,3.6,1.2.5,1.5,1.4,1,4-.8,4.4.8,8.4,3.8,9.5,3.4,1.3,9.2,8.8,10.7,13.9,1.3,4.6,2.6,5.8,15.6,15l7.2,5.1,4.3-1.9c4.7-2.1,14.7-2.7,17.8-1,1.5.8,3.6.3,9.4-2.5,13.3-6.3,20.4-5.6,24,2.3l1.7,3.9,5.3-.5c3.9-.3,6,0,8,1.3,2.3,1.5,2.6,2.4,2.6,7.6a33.34,33.34,0,0,1-1.9,10.7l-2,4.9,5.6,8.4c6.7,9.9,13.7,26.3,12.4,28.8-.6,1-.4,2.8.5,5,2,4.8,1.7,8.8-1.2,15.6-6.6,15.6-6.3,20.4,2,38,5.1,10.9,5.6,12.6,5.6,18.8,0,5.9.5,7.7,3.8,14,7.9,15.4,10.6,22.7,8.2,22.7-1.3,0,3.2,8.7,4.9,9.5.7.3,4.3-.2,7.8-1.1s7.8-1.3,9.5-1a9.78,9.78,0,0,0,5.8-.9,15.58,15.58,0,0,1,5.8-1.5c3,0,7.2-4,19.8-18.6,6.6-7.7,6.6-7.7,7.3-14.3.6-5.4.8-5.7,5.8-8.9,4.4-2.9,5.3-4,5.8-7.3a35.21,35.21,0,0,0-.6-10.4l-1.3-6.5,6-5.5a60.79,60.79,0,0,1,10.4-7.9c7.1-3.8,7.8-5,8.6-15.1.6-8.3.4-10-2.6-20.3-4.2-15-4.2-18.1-.3-26.5,3.5-7.4,16.8-23.5,23.9-28.8,4.4-3.3,14.9-19.2,20-30.3,4.3-9.4,4.3-20.3.1-16.7-.7.5-4,1.4-7.2,2a76.94,76.94,0,0,0-11.7,2.9l-5.7,1.9-2.6-2.7c-1.5-1.6-2.3-3.3-2-4.2.7-1.8-8.1-12.6-14.7-18-3.3-2.7-4.8-4.9-5.8-8.2-.7-2.4-2.3-5.5-3.6-6.7a7.29,7.29,0,0,1-2.4-5.9c0-2.6-1.5-6.3-4.9-12.2-2.7-4.7-6.5-12.2-8.4-16.6-3.5-8-3.5-8.1-1.4-8.8,2.6-.8,6.8,3.8,12.8,13.8,2.1,3.7,4.3,7,4.8,7.3s1.5,3,2.1,6c.9,4.4,2,6.3,5.1,9.2,2.1,2,4.1,4.5,4.5,5.7s1.9,3.4,3.4,5.1c4.9,5.3,6.3,9.9,1.8,5.8-1.5-1.4-1.8-1.4-1.8-.1a6,6,0,0,0,2,3.3c1,.9,2.9,4.7,4.1,8.4s2.7,6.9,3.3,7.3c1.5,1.1,6.9-.1,8.2-1.8.6-.8,2.5-1.4,4.3-1.4,2.8,0,4.8-.7,9.1-3.2.8-.5,4.3-2.2,7.6-3.9s6.4-3.8,6.6-4.7c.3-1.1,2.6-2.4,6.1-3.5,3.7-1.2,5.8-2.4,6.2-3.7.4-1.1,1.2-2,2-2,2.2,0,7.5-6,7.5-8.5a2.56,2.56,0,0,1,2.1-2.8c1.2-.3,1.8-1,1.4-1.6s.3-2.4,1.4-4a10.86,10.86,0,0,0,2.1-4c0-1.8-6.3-7-8.5-7.1-3.7-.1-6.5-3.7-6.5-8.4,0-3.5-.9-3.3-5.5,1.4-3.8,3.9-10.4,6.8-12.5,5.5-.6-.3-1-1.9-1-3.4a7.17,7.17,0,0,0-2-4.6c-1.8-1.6-2-1.6-2.6-.1-.9,2.3-2.3,1.1-4.4-3.8a22.49,22.49,0,0,0-4.4-6.5c-3.2-3-3.5-7.5-.7-9.1,3.9-2.1,5.7-1.2,9.2,4.6,2.7,4.5,4.6,6.4,9.3,8.9,6,3.3,8.2,3.4,12,.9,2-1.4,6.2-.1,5.1,1.6-2,3.3,8.7,5.9,27,6.6l12,.5,4,3.8a38.14,38.14,0,0,0,7.5,5.7c1.9.9,2.9,1.9,2.3,2.1-2.2.8-1.4,3,2.2,6.2,3.1,2.7,3.8,2.9,6,1.9,1.4-.6,2.5-1.9,2.5-2.9a2.9,2.9,0,0,1,.9-2.3c1-.7,2.1,2.7,2.1,7,0,5.2,5.5,22.3,11.9,36.8,3.3,7.6,6.5,15.5,7.1,17.7,1.5,5.4,4.5,6.2,8,1.9,2.3-2.8,2.9-3.1,4.6-2s2,2.4,2,6.8c.1,4.1.6,5.9,1.9,6.9,1.6,1.1,2.1,1,3.6-.3a13.85,13.85,0,0,0,2.8-4.4c.8-2.5.5-3.5-1.9-6.8-3.5-4.8-5-5.9-6-4.2-.9,1.5-3,.5-3-1.5a2.14,2.14,0,0,1,1.4-1.8c1.2-.5,1.4-3.1,1.3-13.3l-.2-12.7,2.7-.9c1.5-.5,3-1.7,3.3-2.7s3-3.8,5.9-6.4,5.8-5.6,6.1-6.7a8.12,8.12,0,0,1,3.6-3.5c2-1.1,2.9-2.3,2.9-3.9,0-3.4,1.7-4.3,8.5-4.4,4.7,0,6.3-.5,7.6-2.1,1.9-2.3,3.1-1.5,4.4,2.9,1.2,4.2,5.4,9,7.1,8.3,1.3-.5,1.5-.2.9,1.6s0,2.7,1.9,4.2c2.2,1.8,2.6,2.8,2.6,7.5,0,4.9.2,5.4,2.6,6a4.55,4.55,0,0,0,4.7-1.3c5.8-5,5.3-5.3,8.6,5.4,3.9,12.7,5.2,18.5,4.3,19.8-.4.5-.7,3.9-.7,7.5,0,5.6.2,6.5,1.7,6.2,2.7-.4,9.8,11.3,9.1,15s3.4,9.8,8.3,12.4a18,18,0,0,1,5,4.1c3.5,5.4,4.7.7,1.4-5.7a20,20,0,0,1-2-7.4c0-3.9-5.4-11.1-11.4-15.2-2.4-1.7-3.6-3.2-3.6-4.9,0-1.3-1.2-3.8-2.6-5.5l-2.7-3.1,1.6-5.7a58.18,58.18,0,0,0,1.9-8.2c.4-3.6,3.4-3.3,3.1.3-.2,2.4.1,2.7,1.9,2.2,1.5-.5,3.1.4,6.4,3.7,2.4,2.3,4.4,4.8,4.4,5.5s1,1.3,2.3,1.5c1.7.2,2.2,1,2.4,3.6a14.47,14.47,0,0,0,.5,3.8c.8.7,7.8-5.7,7.8-7.2,0-.7,1.1-1.6,2.4-2a14.13,14.13,0,0,0,5.1-3.4c2.5-2.7,2.7-3.4,2.2-8.3-.7-7.3-2.2-9.9-11.2-19.7-4.9-5.3-7.5-9-7.5-10.5,0-3.6,7.7-10.5,11.7-10.5,2.7,0,3.2.4,3.5,2.7.4,3.6,3.8,4.5,3.8,1.1,0-2.5,4.1-5.1,6.6-4.1a4.07,4.07,0,0,0,3.2-.8c1.5-1.3,5.1-3.1,10.7-5.5,4.7-2,11.3-10.8,13.9-18.4,3.1-9.2,4.5-19.1,2.5-17.3-1.8,1.8-4.3,1.6-3.5-.2.3-.8.9-2.2,1.2-3,.4-1,0-1.5-1.1-1.5s-1.5-.5-1.1-1.5c.7-1.9-7.3-11.3-12.3-14.6l-2.4-1.5,3.2-4.7c2-2.9,3.9-4.7,5.1-4.7s2-.6,2-1.4c0-2-7.7-2.5-11.1-.7-2.4,1.2-2.8,1.1-5.2-1.3-1.4-1.4-3.3-2.6-4.2-2.6-2.5,0-1.7-1.6,3.5-7,4.8-5,7.7-5.8,6.7-1.9-.5,2,1.3,6.9,2.5,6.9.4,0,1.2-.8,1.7-1.9,1.3-2.4,5.2-3.4,8.5-2.1,2.1.8,2.6,1.6,2.6,4.4,0,3.3.2,3.4,5,4.6,4.4,1,5,1.5,4.4,3.2a2.64,2.64,0,0,0,1.2,3.2c1.1.8,1.7,2.6,1.7,4.7,0,5.2,1.2,6.1,5.5,4.3a22.6,22.6,0,0,0,5.3-3c1.6-1.5,1.6-1.9-.4-6.6-1.6-3.9-3.2-5.8-7.8-8.9a49.88,49.88,0,0,1-6.3-4.7c-.3-.5.6-2,1.9-3.2a7.54,7.54,0,0,0,2.5-6.2c0-4.2,3.1-8.4,5.6-7.4.8.3,2,.9,2.8,1.2,2.4.9,6.4-3.8,8-9.8a54,54,0,0,0,1.6-12.5c0-6.3-.4-7.7-4.3-14.9-6.4-11.8-6.8-12.3-11.6-14.5-5.2-2.3-7.7-2.4-8.5-.4-.9,2.4-2,1.8-4.5-2.3-2.2-3.6-2.2-3.6-1.6-.7s.6,2.9-1.3,1.2a6.68,6.68,0,0,0-3.5-1.7c-2.6,0-3-1.8-.9-4.5a15.71,15.71,0,0,0,2.6-6.2c1.4-7.7,2.3-9,7.3-9.7,8-1.1,25.3-.7,25.3.5,0,.8,1.7,1,5.6.6,5.5-.6,8-1.6,5.8-2.4-3.7-1.3-4.4-2.7-3.2-6.6,1-3.4,1.5-3.7,4.7-3.7,2.6,0,4.4.8,6.8,3.2l3.3,3.2,2.4-2.3c2-1.9,2.3-2.6,1.3-4.2-1.2-2-.5-3.5,1.2-2.4a10,10,0,0,1,2.6,3.5c1.3,2.5,1.3,3.3,0,7a28.79,28.79,0,0,0-1.5,6.1,4,4,0,0,1-1.8,3c-1.7,1.1-1.8,1.5-.5,5.3a21.3,21.3,0,0,0,5.6,7.6c2.3,1.9,7.9,7,12.5,11.3s8.7,7.5,9.3,7.2c1.3-.9,1.1-6.2-.3-7.1-.8-.5-.5-1.1.7-2,1.7-1.3,1.7-1.5.2-3.2-1.9-2-.7-5,1.4-3.6.8.4.2-.7-1.3-2.5-3.1-3.6-3.6-5.3-1.3-4.5,3.1,1.2,1.4-1.3-2-2.9-1.9-.9-3.5-2.3-3.5-3.2s-1.2-1.7-2.7-2.1c-4.9-1-5.4-1.4-5.1-3.2a4.59,4.59,0,0,0-1-3.4c-1-1.3-.8-1.7,1.9-2.8,2.5-1.1,3.5-1.1,5.1-.1s2.3.9,3.9-.5c1.8-1.6,2.2-1.6,5.9-.1,2.7,1,4,1.2,4,.4,0-2.3,5.3-8.6,8.2-9.8a7.18,7.18,0,0,1,5.9-.2c5,1.9,4.3-.6-.8-2.7-2.6-1.1-6.2-2.8-8-3.7-3.1-1.6-3.1-1.7-1.2-3.1,1.2-.8,1.8-2,1.5-2.9-.5-1.3.2-1.4,4.6-.8a29.42,29.42,0,0,1,8.5,2.6c3.7,2.3,13.3,3.8,13.3,2.1a3.28,3.28,0,0,0-1.7-2.1c-1.6-.9-1.6-1.2-.3-2.1,2.5-1.7-1-3.5-9.2-4.9-4-.6-15.8-3.4-26.3-6.1s-24.6-5.6-31.5-6.5-13.3-1.8-14.4-2c-1.5-.3-1.3.2,1,2.6l2.9,3.1-2.5-.6c-10.2-2.1-14.4-2.6-23.9-2.6-9.3,0-11-.3-12.5-1.9-2.3-2.5-4.6-2.9-22.1-4-8.6-.6-16.5-1.6-18.5-2.4-3.9-1.6-30.7-4.3-31.8-3.2-.4.3.4,1.5,1.8,2.6l2.5,2.1-9.3-.7a80,80,0,0,1-10.7-1.1c-1.1-.5-1.5.1-1.5,2,0,1.4-.2,2.6-.4,2.6-1.6,0-10.6-4.7-12.6-6.6-2.5-2.3-13.8-5.4-19.7-5.4-2.1,0-2.4.2-1.3,1.5s.3,1.5-5.8,1.5c-3.9,0-7.4-.5-7.7-1s-3.8-1-7.7-1c-5.4,0-7.6-.5-9.8-2-2.8-2-5-1.9-8,.5-1.5,1.2-8,2.9-8,2a31.14,31.14,0,0,1,5-3.1c4.9-2.7,5.7-3.8,4.2-5.9-1.2-1.7-9.9-3.5-17.1-3.5-5.2,0-7-.4-7.5-1.5C908.88,18.86,900.78,18.46,895.88,19.86Zm-203,46.4c0,.6-2.7,3-6,5.2l-5.9,4,.1,5.7c.1,8.6,1.4,9.5,12.5,7.8,12.8-1.9,15.9-1.6,13.4,1.4-.8,1-3.1,1.4-7.4,1.4-3.4-.1-7.3.4-8.6,1.2l-2.5,1.3,2.3,1.8c1.7,1.4,2.2,2.5,1.7,4.4-.7,2.9-1.8,3.2-3.6,1a4.57,4.57,0,0,0-3-1.5c-3,0-4.3,2.6-3.6,7,.6,3.8.5,4-3.3,6s-4,1.9-5.3.1-1.5-1.8-6.8.5c-6.5,2.8-8.6,2.9-9.8.8-.8-1.5-1.2-1.5-4.1.1-3.9,2-4.9,1.5-2.1-1a5.93,5.93,0,0,0,2-3.1c0-1.5,5.5-.9,7.8.9.8.6,1.2.6,1.2-.1a2.33,2.33,0,0,0-1-1.7c-1.6-1-.1-2.5,2.6-2.5s4.6-3.4,3.8-6.6c-.5-2.3.2-3.4,4.4-6.3,1.7-1.2,3.2-2.5,3.2-2.9s-1.4-1.5-3-2.4c-6-3.4-2.6-11.9,6.3-15.6,1.5-.6,2.7-1.7,2.7-2.5a8,8,0,0,1,1.6-3.5c1.2-1.7,2.5-2.2,6-2.2C691.38,65,692.88,65.36,692.88,66.26Zm55.9,85.2c-1.2,1.9-2.5,3.5-3,3.5-2.4,0-.3,2.2,4.9,5.1,6,3.4,14.2,10.5,14.2,12.5a5,5,0,0,1-1.7,2.6c-2.4,2.1-14.3.9-19.9-2-3.9-2-4.4-2-10.4-.6-3.5.8-6.9,1.9-7.6,2.5-1.7,1.4-7.8.1-10.7-2.2-1.8-1.4-2.3-2.5-1.9-4.8.2-1.7.8-3.1,1.2-3.1s1.1-1.3,1.5-2.9,1.3-3.2,2.1-3.5a2.15,2.15,0,0,0,1.4-1.9c0-.7,1-2.3,2.3-3.5,1.8-1.7,3-2,6-1.5,3.7.6,4.6,1.6,2.7,2.8-.7.4,0,1.7,1.6,3.2,2.1,2,3.1,2.3,4.8,1.5,1.2-.5,3.2-1.4,4.6-2,1.7-.7,1.9-1.1.8-1.1-4.4-.2-2.5-5.5,2.5-7C750.48,147.26,751.08,147.56,748.78,151.46Zm52.5-2c3.6,1.5,4.5,3.6,2.7,6.4-.5.7-1.3,1.1-1.9.7-1.5-.9-4.2.4-4.2,1.9a1.91,1.91,0,0,1-1.1,1.7c-.6.2,1.4,2.6,4.5,5.3,3.8,3.3,5.6,5.6,5.6,7.2,0,2.7.8,2.9,2.6.5,1.3-1.6,1.5-1.6,3.4.7,2.7,3.2,2.5,4.1-.9,4.1-4.4,0-4.6,1.6-.8,5.2a11.12,11.12,0,0,1,4,8l.6,4.6-4.8.7c-4.8.6-9.1-.5-9.1-2.5,0-.5-1.2-1-2.6-1.2-3.8-.4-5.3-3.2-3.1-5.6a7.12,7.12,0,0,0,1.7-3.9,2.89,2.89,0,0,1,1.3-2.6c.7-.2-1.6-3-5.5-6.6-5.4-5-6.8-6.9-6.8-9.2,0-1.9-.5-2.9-1.5-2.9a1.66,1.66,0,0,1-1.5-1.7c0-1.9,3.8-6.3,5.4-6.3a17.27,17.27,0,0,0,4.6-3,40.23,40.23,0,0,1,3.6-3C797.58,148,799.28,148.66,801.28,149.46Zm-136,14.9c1.7,1.3,5.9,4,9.4,6.1,5.7,3.3,6.2,3.9,6.2,7.1,0,4.6,2.3,9,5.7,10.6a6.74,6.74,0,0,1,3.5,4.5c.5,1.8,1.3,3.3,1.7,3.3a11,11,0,0,1,2.5.6c1.1.4,1.6.1,1.6-1,0-.8,1.1-2.3,2.5-3.2,3.2-2.1,3.1-2.7-.5-6.4-1.6-1.7-3-3.7-3-4.5,0-1.8,1.2-1.9,2.8-.3.8.8,1.6.6,3-1.2,2.9-3.6,5.5-2,7.5,4.8,2.8,8.9,4,11.2,6.1,11.2,1,0,3.6,1,5.8,2.2,3.7,2.1,4,2.1,4.9.5,1.2-2.1,3.9-2.2,6.5-.2a6.13,6.13,0,0,0,7.8,0,9.4,9.4,0,0,1,4.8-1.5c2.4,0,2.8.4,3,2.7.3,5.6-.4,8.9-2.9,14.6-3.4,7.6-5,8.6-12.4,8a25,25,0,0,0-9.8.7c-3.6,1.1-4.5.9-16.9-3.9-12.6-5-13.2-5.1-16.5-3.8-4.6,2-7,5.3-5.5,8,1.6,3.1-2.7,5.2-5.1,2.3-.6-.7-3.2-1.6-5.8-1.9-2.9-.3-5.2-1.2-6.2-2.4-2.8-3.5-7.8-6.3-11.3-6.3a11.64,11.64,0,0,1-6.6-2.9c-3.2-2.7-3.2-2.8-1.8-6.2,1.8-4.3.3-10.4-2.9-11.4-2.7-.9-9.1-.6-14,.7-2.2.5-8.2,1.4-13.3,1.9-9.8.9-12.1,1.7-16.2,5.4-2.3,2.1-3.2,2.3-9.3,1.8s-6.8-.8-6.5-2.7c.3-2.3,3.4-4.1,9.5-5.6,4.5-1.1,12.9-8.2,11.8-10-1.2-2,3.9-9.2,8-11.2,4.6-2.4,5.7-3.6,4.9-6-.8-2.6,4.1-4.3,8.5-2.9,3,.9,3.9.7,7.7-1.9,5.8-4.1,7.9-3.9,10.3.9,2.4,4.6,6.8,8.5,12.8,11.3,4,1.9,9.3,6.9,9.3,8.7a9.16,9.16,0,0,1-2.1,3.4c-1.8,2.3-2.5,2.6-6.3,2.1-6.7-1-6.7,1.2,0,4.1,3.1,1.4,5.8,2.5,6,2.5s.4-1.4.4-3c0-2.2.5-3,1.8-3,1,0,2.6-1.3,3.5-3,1.4-2.4,1.6-3.4.7-5.1-1.7-3,.1-4.6,3.5-3.1,2.1,1,2.5.9,2.5-.4,0-.8-2.1-2.4-4.7-3.5s-5.2-2.7-5.6-3.5A3.12,3.12,0,0,0,664,171c-1.8,0-5.3-3.4-8.9-8.7-2.6-3.7-2.7-5.1-.6-7.4,1.6-1.8,1.8-1.6,4.7,2.7A31.78,31.78,0,0,0,665.28,164.36Z" transform="translate(117.47 231.53)"/><path class="cls-2" d="M260.28,30.76a5,5,0,0,0-1.6,2.3c-.4.9-3.6,2.7-7.1,4l-6.6,2.4,1.9,2.5c1.7,2.3,2,2.3,7,1.2a24.41,24.41,0,0,0,7.7-3.2c4.1-3.2,4.4-2.4,1.3,3.4a36.12,36.12,0,0,0-3,6.1c0,.3,1.4,1.1,3,1.6s3,1.7,3,2.5c0,1.8,2.3,1.8,5.8,0,5.3-2.6,19-3.6,25.8-1.7,2.5.7,3.8.4,6.3-1.1,3.6-2.3,3.6-2.2,1.5-5.2-1-1.6-1.2-2.6-.5-3.1.6-.3,1.1-2.4,1.1-4.7,0-3.8-.1-4-2.6-3.4a12.46,12.46,0,0,0-4.9,3.4c-2.2,2.5-2.4,2.6-4.2,1-1-.9-4.1-2-6.9-2.3-4.2-.6-5.4-1.2-6.8-3.6-1.7-2.8-1.9-2.9-10.4-2.9C265.28,30,260.88,30.36,260.28,30.76Z" transform="translate(117.47 231.53)"/><path class="cls-2" d="M322.58,32.66a3.92,3.92,0,0,0-.7,2.5c0,2-1.1,2.3-2.7.7a1.87,1.87,0,0,0-2.2-.4c-.7.4,0,1.7,1.9,3.6,3.2,3.3,4.3,3.3,11.1-.2,2.4-1.2,3.8-2.7,4.1-4.4.5-2.4.4-2.5-5.2-2.5C325.78,32,322.88,32.26,322.58,32.66Z" transform="translate(117.47 231.53)"/><path class="cls-2" d="M338.48,35c-1.3,1.7-5.3,4.9-8.7,7.1s-6.4,5-6.7,6.1c-.4,1.6-1.1,1.9-3.7,1.4-4.3-.8-10.5,1.8-10.5,4.4,0,1.8-.7,2-6.2,2.1-9.4.2-11.1-.1-13.4-2.2-1.9-1.8-2.5-1.9-6.8-.7-2.5.7-4.6,1.8-4.6,2.5,0,1-2.5,1.3-10.2,1.2-8.2,0-9.8-.3-8-1.1,4.3-2.1,3.5-2.6-10.9-5.8-3.2-.7-6.9-1-8.3-.6-1.9.5-2.6.3-2.6-.9s-.5-1.3-2.7-.4-3,.7-4-.7a2.29,2.29,0,0,0-3-.9c-4.2,1.7-17,4-19.3,3.5a13.11,13.11,0,0,0-6,.7c-4.8,1.7-8.6,1.6-11.6-.3-1.6-1.1-6.1-1.9-13.2-2.5-13.8-1-26.4-3.2-28.7-4.9-1.3-1-15.5,2-27.5,5.8-5.2,1.7-11.1,3.3-13,3.7-6.5,1.2-7.1,1.6-6.5,3.6.3,1,.8,2.8,1.1,3.9.4,1.7.1,2-2.5,2-1.7,0-3.1-.4-3.1-.9s-3.7,0-8.2,1.3c-6.3,1.7-8.3,2.7-8.9,4.4s-.4,2.3,1.6,2.8a26.76,26.76,0,0,0,6.5.2c3.1-.3,3.9,0,3.5,1a7.44,7.44,0,0,0-.5,2.2c0,.4-2.1,1-4.7,1.3-12.8,1.3-23,5.6-26.6,11.1-2.7,4.1-2.2,5.7,1.4,4.9l3.1-.6-1.7,2.7c-1.6,2.3-1.6,2.6-.1,2,2-.8,8.6.4,8.6,1.5,0,.8-39,16.1-41.2,16.1a13.8,13.8,0,0,0-3.8,1.5c-2.5,1.4-2.5,1.4,1,.9,11.9-1.9,32.3-7.8,39.4-11.4,4.3-2.2,8.9-4,10.1-4,3.1,0,11.7-2.8,13.9-4.5,1.6-1.2,1.7-1.7.6-3S91,90,93.28,90a30.52,30.52,0,0,0,7.8-2c2.8-1.1,5.3-1.8,5.5-1.6s-1.5,1.5-3.7,3a20,20,0,0,0-4,3c0,.7,12.8-2.4,17.6-4.2s5.1-1.9,8.4-.2a32,32,0,0,0,8.7,2.5c7.4,1,8.7,3.3,8,13.7l-.5,7.8h3.4c3.2,0,3.3.1,2.3,2.7-.7,1.7-.8,5.5-.4,9.7l.6,6.9-2.5-.7c-3.9-1-3.8,2.3.2,6.6,2.7,2.8,3.3,4,2.4,5a51.42,51.42,0,0,0-3.2,6.8,52.53,52.53,0,0,1-7.5,11.6c-3,3.3-5.7,7.4-6.1,9A20.6,20.6,0,0,1,127,176c-3,4.1-3.2,6.8-1.8,20.3l1.1,9.9,4.2,2.9c4.8,3.3,5,3.7,6,13.4a47.12,47.12,0,0,0,2.1,10.3c1.3,3.1,1.2,3.5-.3,4.7s-1.5,1.5-.3,3.2a31.61,31.61,0,0,0,4.5,4.6c2.4,2,3,3.3,2.7,5.1s.4,3.6,2.6,6.3c1.7,2.1,3.1,4.3,3.1,5a1.23,1.23,0,0,0,1,1.3c2.1,0,2.2-3.3.3-7.4a39,39,0,0,1-2.7-7.3,116.17,116.17,0,0,0-4.1-11.7c-2.5-6.4-3.2-9.5-2.8-12.1.3-1.9.7-3.5.9-3.5a25.16,25.16,0,0,1,2.7.9c2,.8,2.5,1.8,3,6.2a24,24,0,0,0,4.2,10.6c2.1,3.1,3.5,6.5,3.5,8.3,0,2.3,1.5,4.8,6,10.1,4.9,5.7,6,7.6,6,10.5a13.9,13.9,0,0,1-.9,5.2,5.46,5.46,0,0,0-.1,3.8c1,2.5,10,9.4,12.3,9.4a2.91,2.91,0,0,1,2.4,1.4c1.2,2,15,8.7,18.1,8.8a42.56,42.56,0,0,0,6.5-.7c3.6-.7,4-.6,8.6,4.2s5.8,5.4,17.9,8.6c3,.8,4.4,1.8,4.8,3.4a9.28,9.28,0,0,0,2.5,3.9,6.53,6.53,0,0,1,1.9,4.1c0,3.1,10.2,12.7,13.8,13a9.5,9.5,0,0,1,4.8,2.4c2.7,2.6,5.9,1.9,5.1-1.1-.6-2.3,2.6-5.5,4.8-4.6a4.32,4.32,0,0,1,2.1,2.3,31.57,31.57,0,0,0,2,4.5c1.7,3.2,1.9,17,.2,20.1a10.18,10.18,0,0,1-3,3.5,4.6,4.6,0,0,0-1.8,3.3,3.88,3.88,0,0,1-2.2,3c-3.2,1.4-7.2,11.8-5.9,15.2a8.81,8.81,0,0,0,2,3.2c.7.4.2,1.8-1.5,4-2.4,3.1-2.4,3.6-1.3,7.7a22.44,22.44,0,0,0,4,7.3,44.82,44.82,0,0,1,5.4,8.5,100.06,100.06,0,0,0,5.5,9.5,140.41,140.41,0,0,1,7.3,13.2c4.6,9.1,4.7,9.2,15.4,16.8,5.9,4.3,11,7.9,11.1,8.1s1.2,5.1,2.3,11.1a175.7,175.7,0,0,1,1.9,26.6c0,11.6.4,17.3,1.7,21.8,1.4,5.2,1.5,7.7.6,18.7-.9,11.3-.8,13.1.7,16.2a37.66,37.66,0,0,1,2.4,9c.9,8.1,2.5,13,4.2,13,1,0,1.3-.7.8-2.5-.4-1.4-.2-2.5.4-2.5s1.5,2.3,2.1,5c1.4,6.4,1.4,6.3-.3,5.7-2.1-.8-4.2,1.9-2.8,3.6.7.8.9,2.9.5,5-.4,2.9-.2,3.7.9,3.7a3.24,3.24,0,0,1,2.9,4.8c-.8,1.6,0,3.4,4.5,10a111.53,111.53,0,0,0,11.8,14c5.9,5.4,6.8,6,16.1,8.4l9.8,2.5,3.4-1.9c1.8-1.1,3.3-2.3,3.3-2.7s-2.5-1.5-5.4-2.5c-4.2-1.2-6.5-2.8-9.7-6.4-5.2-5.9-6.1-8.2-4.3-10.3a3.32,3.32,0,0,0,.8-3.2c-.3-.9.4-3.3,1.7-5.4,1.5-2.4,1.9-3.8,1.1-4.1a17.86,17.86,0,0,1-3.6-2.3c-3-2.4-3.7-8.5-1.1-9.5,1-.4,1.5-2,1.5-4.4,0-2.1.7-4.3,1.5-5,2.1-1.7,1.9-3-.4-3-2,0-5.1-3.5-5.1-5.7,0-.8,1.3-1.2,3.5-1.1,4.3.2,6.8-1.8,6.1-4.8-1-3.7.3-5.4,3.9-5.4,6.4,0,9.5-1.2,11-4.1,2.2-4.2,1.9-9.6-.5-10.9a6.18,6.18,0,0,1-2.6-3.5c-.3-1.4-1.3-2.5-2.2-2.5-1.2,0-1.3-.3-.4-1.2s1.6-.7,3.1.6a13.21,13.21,0,0,0,6.1,2.3c3.3.5,4.5.2,6.5-1.7,2.5-2.4,7.5-13.6,7.5-17a1.77,1.77,0,0,1,1.9-2c3.6,0,6.6-6.6,6.8-15,.1-4.1.2-7.8.2-8.1.2-1.4,14.3-10,19-11.6,8-2.5,11.3-7.6,13.6-20.7a143.06,143.06,0,0,0,2-17.7c.2-7.3.4-7.9,4.7-14a97.23,97.23,0,0,0,8.1-14.2c3.6-7.7,3.6-7.7,2-12.2-1.2-3.6-2.2-4.9-4.9-6-1.9-.8-6.1-3.8-9.3-6.6l-5.8-5.3-8.4-.2c-4.6-.2-9.2-.4-10.1-.4-1.1-.1-1.8-.9-1.8-2.3-.1-1.7-1.4-2.8-6.2-5-5.5-2.5-6.3-2.6-7.8-1.2-2.3,2.1-3,1.9-3-.8,0-1.4-1.1-2.8-3-3.9-2.5-1.4-2.9-2.2-2.4-4.2a3.19,3.19,0,0,0-1.4-3.8c-1.1-.7-2.3-3.1-2.7-5.3-1-5.2-1.2-5.6-6.3-9.9-3.8-3.1-5.1-3.6-9.5-3.6-6.5,0-15.2-4.3-16.6-8-.5-1.5-2.5-3.3-4.8-4.5s-4.4-2.8-4.9-4a8.33,8.33,0,0,0-3.6-3.3c-3-1.4-3.5-2.7-1.5-3.6.6-.3-1-.3-3.8,0s-5.3,1-5.6,1.5-2.1.3-4.2-.6a23.16,23.16,0,0,0-7.2-1.5c-4.2,0-9-2.2-9.9-4.6-.5-1.4-1.2-1-4.1,2.2-1.9,2.1-3.4,5-3.5,6.3,0,2-.2,2.2-1.5,1.1-1.1-.9-1.3-1.6-.5-2.4a6.68,6.68,0,0,0,1-3.8c0-1.5.7-3.1,1.5-3.5a1.49,1.49,0,0,0,.7-2c-.6-.9-2-.4-5.2,1.7a29.45,29.45,0,0,1-7.5,3.6c-3.3.7-5.4,2.9-5.5,5.6,0,1-1.3,3.2-2.8,5l-2.9,3.1-3.6-2.9c-2.9-2.2-4.5-2.8-7.4-2.5a16,16,0,0,0-5.7,1.3c-4.1,2.2-10.6-4.8-10.6-11.3a52.62,52.62,0,0,1,1.7-10.3l1.6-6.8-2.4-1.9c-1.9-1.5-4.2-1.9-11.1-1.9H234l2.6-6.3c1.4-3.4,3.4-8.7,4.5-11.7a69.28,69.28,0,0,1,2.9-6.6c.6-.8-.5-1.3-3.7-1.8-6.3-.8-9.8,1.1-11.6,6.6-1.4,4.2-1.6,4.3-8.7,6.2-8.4,2.2-10.7,1.5-14.4-4.3-4.4-7-4.7-10.6-1.5-20,1.5-4.7,2.8-10.1,2.8-12.2,0-3.5.4-3.9,9.3-9.8,7.6-5,10-6.1,13.4-6.1,2.3,0,4.5.4,4.8,1,1.1,1.7,4.8,1.1,7.2-1.2,3-2.8,15-3.6,16-1.1.4,1.1,1.5,1.3,3.8.9,2.5-.5,3.6-.1,5.5,1.9,2,2.2,2.3,3,1.4,5.3-1.2,3-.2,8.1,2.3,11.8,4,6.2,6.8-.5,5.8-14l-.6-9.1,4.8-5.2a72.74,72.74,0,0,1,11.8-9.7,78.8,78.8,0,0,0,10.8-8.3c3.2-3.2,3.7-4.3,3.3-7.1-.3-2.3-.1-3.2,1-3.2.8,0,2.2-1.5,3.1-3.4s2.1-3.2,2.8-3,2.6-1.2,4.3-3.3c2.2-2.9,4.5-4.3,8.5-5.6a42.82,42.82,0,0,1,6.9-1.7c2.1,0,4.2-2.6,2.9-3.5-1.6-.9,2.9-7.3,5.9-8.4l11-4c8.3-3,8.4-3,5.6-.7-3.9,3.2-3,5.9,1.4,4.6a17.21,17.21,0,0,0,4.4-1.9,20.56,20.56,0,0,1,5.8-2.1,17.28,17.28,0,0,0,6.4-3.1,5.82,5.82,0,0,1,3.6-1.9c1.3,0,1.8-.7,1.8-2.5,0-1.5-.6-2.5-1.4-2.5s-2.3,1.1-3.4,2.5c-2.7,3.4-8.5,3.5-10.7.2-1.4-2.2-1.3-2.7,1.1-7.1,2.2-4,2.4-5,1.3-5.7-2.3-1.5-4.6-1-11.7,2.1l-6.7,3,3.5-3c1.9-1.7,4.1-3,4.9-3a6.65,6.65,0,0,0,3.4-1.8c1.5-1.4,4.5-1.8,15.1-2.3,12.2-.5,13.5-.8,19.4-3.7,3.4-1.8,6.2-2.9,6.2-2.4s-3.4,4.1-7.5,8.2-7.5,7.8-7.5,8.2,2.9.8,6.4.8,6.8.5,7.1,1.1a1.78,1.78,0,0,0,2.1.5,2.06,2.06,0,0,1,2.3,1.1c.8,1.5,1.1,1.5,3.5,0,2.1-1.4,2.4-2.1,1.6-4.1a8.71,8.71,0,0,1-.3-4.5c.4-1.8.1-2.1-2.3-2.1-3.6,0-6.1-4.2-3.8-6.1.8-.6,1.1-1.5.8-2s.4-2.2,1.5-3.8c2-2.7,2-3.1.5-7.5-.9-2.6-2.5-5.1-3.8-5.7a31.2,31.2,0,0,1-4.8-3.7c-2.1-1.9-2.5-2.9-1.7-4.3,1-2-.8-15.9-2.2-15.9a13.76,13.76,0,0,0-3.6,2.4,41,41,0,0,1-6.9,4.4c-4.1,2.1-4.2,2.1-6.2.2a5,5,0,0,1,.6-7.7c1.3-1.1,1.1-1.4-1.1-2.2a18.68,18.68,0,0,1-5.6-4.3c-2.1-2.3-3.3-3-4-2.2-.7.6-3.3.8-6.7.4-5.5-.6-5.6-.6-8,2.9-1.3,2-2.4,4.3-2.4,5.1s-1.8,3.4-4,5.5c-3.3,3.2-3.7,4.1-2.5,4.8,1.8,1,1.9,2.7.4,6-1.2,2.6-10.1,8.3-13.9,8.9-2.1.3-2.7,1.1-3.9,6.4s-1.8,6.3-5.1,8.2l-3.8,2.1-.6-2.3c-.3-1.3-.9-3.1-1.2-4-.4-1.2-.2-1.5.9-1a1.93,1.93,0,0,0,2.2-.5c.3-.6-.1-1.1-.9-1.1-2.1,0-2-1.8.4-5.8l2-3.2h-3.3a22.46,22.46,0,0,1-7.2-2,27.11,27.11,0,0,0-5.2-2c-.7,0-1.3-.4-1.3-1,0-1.7-5-4.3-8.1-4.2-2.7.1-2.9-.2-2.9-3.9,0-3-.4-3.9-1.7-3.9-3.7,0,5.5-7.3,15.8-12.5,5.8-2.9,11.1-6,11.8-6.9a4.93,4.93,0,0,1,3.1-1.6c2.6,0,11-3.7,14.7-6.6a15.1,15.1,0,0,1,3.9-2.4c1.3,0-5.9,7.1-8.1,8-1.6.7-1.7.9-.3.9a2.41,2.41,0,0,1,2,1.6c.3,1.3.9,1.2,4.2-.6s4.4-1.9,6.3-1c3.3,1.5,6.3,1.4,6.3-.3,0-.7-2-3-4.5-5-5-4.1-5.9-6.2-2-4.4,1.9.9,2.8.9,3.7,0a5.1,5.1,0,0,1,3.3-1.2c2.7,0,8.5-3.6,8.5-5.3a5.77,5.77,0,0,1,2-3.2c1.4-1.3,1.7-2.2,1-2.9-2.1-2.1-.8-2.6,7.3-2.6,6.6.1,8.6.4,10.5,2,2.8,2.4,2.1,4-1.8,4-3,0-6.4,2.5-5.5,4.1s4.8,1,6.9-1c3.1-2.9,6-3.1,6.4-.4.3,1.8-.6,2.7-4.2,4.5-3.1,1.5-4.6,2.8-4.6,4.1,0,1.8-.5,1.9-6,1.4-4.7-.4-6.5-.2-8.1,1.2-1.8,1.5-1.9,1.8-.6,2.9s2.3.9,5.6-.4c4-1.6,4.3-1.6,6.2.2a18.4,18.4,0,0,1,3.4,4.5c1.1,2,3,3,8.4,4.6,7.8,2.3,8.8,1.7,5-3.1-2.6-3.3-1.1-3.3,3.8-.1,3.6,2.5,3.7,2.5,4.4.6a7.06,7.06,0,0,1,2.5-2.9c1.9-1,1.9-1.1-3.1-7.8-.7-1-.4-1.9.8-3.1,1.7-1.7,1.9-1.7,4.5,1.5,2.9,3.4,5.6,4.2,6.6,1.7a2.94,2.94,0,0,1,2.6-1.5,6.72,6.72,0,0,0,4.1-1.9c2-1.8,2-1.8-1.7-5-2.3-2-4.4-3.1-5.5-2.8-2.8.7-4.5-1.9-2.5-3.8a5.32,5.32,0,0,0,1.6-2.9c0-1.7-3.3-4.6-5.2-4.6a2.68,2.68,0,0,1-2.2-1.5,3.28,3.28,0,0,0-3-1.5c-1.5,0-3.4-1.2-5.2-3.2-2.5-3.1-3.2-3.3-10.8-3.9-8.7-.7-15.3.6-18.7,3.7-1.6,1.5-1.9,1.5-1.9.2a4.63,4.63,0,0,1,2.3-3.1c2.1-1.6,2.2-1.6.1-1.6-3.7-.1-10.8,2.9-14.6,6.2-3,2.7-3.5,3.6-2.7,5.4.6,1.7,1.6,2.3,4,2.3s3,.3,2.5,1.6a16.16,16.16,0,0,0-.6,1.9c0,.7-9.8,7.3-11.8,7.9-2.7.9-3.1-1.8-.6-3.2,2.2-1.2,1.4-4.6-1.3-5-1.7-.3-2.2-1.1-2.5-5-.6-5.8.2-6.9,5.5-7.7a29.36,29.36,0,0,0,8.2-3.1l4-2.4h-7.2C341.48,32,340.88,32.16,338.48,35Z" transform="translate(117.47 231.53)"/><path class="cls-2" d="M536.48,63.86l-2.8,1.9,2.2,1.2a5.49,5.49,0,0,0,3.6.6c.9-.3,1.4.1,1.4,1.3,0,1,1.1,2.4,2.5,3.1s2.5,1.8,2.5,2.3c0,1.1,6.6.1,13.9-2.1,6.4-2,8.7-5.2,5.5-7.7a6.06,6.06,0,0,0-4.4-1c-9.3,1.6-16.1,1.7-18.5.1C539.38,61.66,540,61.56,536.48,63.86Z" transform="translate(117.47 231.53)"/><path class="cls-2" d="M598.88,94.46a2.66,2.66,0,0,1-2.7,1.1c-.8-.3-2.8.4-4.5,1.7-3.7,2.7-5.3,6.4-3.7,8.3.9,1.1.8,1.4-.2,1.4s-.6.8.9,1.9c1.2,1.1,2.2,2.4,2.2,3s1.1,1.1,2.4,1.1c1.8,0,2.7.8,3.4,2.9,1,2.7.8,2.9-1.9,3.5s-4.2,2.6-1.9,2.6c2,0,.9,1.8-1.5,2.4-3.2.8-3.2,2.6-.1,2.6,1.4,0,2.8.4,3.1,1s0,1-.8,1c-1.3,0-5.7,4-5.7,5.2,0,.9,5.9-.9,7.5-2.2.7-.6,4.4-.9,8.2-.8,7.5.2,9.8-.6,8.9-2.9a3.36,3.36,0,0,1,.9-3c2.1-2,1.4-3.7-1.6-4.3-1.3-.3-2.5-1.1-2.7-1.9-.4-1.9-6.2-10.3-8.1-11.8-1.4-1-1.4-1.3.2-3,2.4-2.7,2.1-4.3-.7-4.3s-4.3-1.5-2.2-2.3c1.7-.7,4.1-4.7,2.8-4.7A4.29,4.29,0,0,0,598.88,94.46Z" transform="translate(117.47 231.53)"/><path class="cls-2" d="M578.68,112.56c-.8,1.8-1.7,2.4-3.1,2-2.6-.6-4.1,3.4-1.9,5.2,1.5,1.1,1.4,1.4-.6,2.8-5.4,3.8-.7,6.1,6.9,3.4,5.7-1.9,6.9-3.2,6.9-7.2,0-1.5.5-3,1-3.3,2.2-1.4,1-4.3-2.1-4.9C580.78,109.56,579.88,109.86,578.68,112.56Z" transform="translate(117.47 231.53)"/><path class="cls-2" d="M1097.48,253.86c-2.1,4-2,7,.4,10.5l1.9,3,1-2.7c1.9-4.8,2.1-7.1,1.3-10.1C1101,250.46,1099.28,250.26,1097.48,253.86Z" transform="translate(117.47 231.53)"/><path class="cls-2" d="M257.68,264c-1.6,1.2-2.8,3-2.8,4.1,0,2.6,1.5,2.4,3.7-.4,3-3.8,4-3.9,10.6-1.6,7.2,2.5,9.7,4.4,9.7,7.3,0,4.1,1.2,4.6,8.3,3.9,3.7-.3,7.5-1.1,8.4-1.8,1.5-1.1,1.2-1.4-1.9-2.4a18,18,0,0,1-6.3-4.1c-3.5-3.6-9.9-5.7-19.8-6.5C261.28,262,260.08,262.16,257.68,264Z" transform="translate(117.47 231.53)"/><path class="cls-2" d="M301.38,278.16c.7,3.1-.4,4.6-3.9,5-5,.5-4.4,2.8.8,2.8,2.5,0,4.6.4,4.6,1,0,1.6,3.2,1.1,4.5-.7.8-1,3.2-1.8,6.9-2.1,3.1-.2,5.6-.8,5.6-1.3s-1.5-1.9-3.3-3.3a10.16,10.16,0,0,0-7.2-2.4,22.78,22.78,0,0,1-6.3-.6C301.08,275.86,300.88,276.06,301.38,278.16Z" transform="translate(117.47 231.53)"/><path class="cls-2" d="M1056.08,276.66a5.09,5.09,0,0,0-3.2,2.3c-2.5,4.8,3.6,7.1,6.6,2.5,1.5-2.4,1.4-5.7-.3-5.4C1058.78,276.16,1057.38,276.46,1056.08,276.66Z" transform="translate(117.47 231.53)"/><path class="cls-2" d="M1104.68,282.06c-1.1.6-1.8,2.2-1.8,4.2a15.18,15.18,0,0,1-1.5,6c-1.8,3.5-.9,8.4,1.7,9.8a2.43,2.43,0,0,1,1.4,3.2,5.55,5.55,0,0,0,1.4,4.4c2.4,3,3,2.9,3-.7,0-2.9.1-2.9,2.7-1.7,1.5.6,4.4,3,6.4,5.2,3.2,3.4,3.5,4.1,2.2,4.9-1,.6-2.5.3-4.3-.8a16.36,16.36,0,0,0-3.4-1.6c-1.4,0-.5,5.1,1.2,6.8a14.34,14.34,0,0,1,2.5,3.5c.7,1.8,2.4,2.1,5.1,1.1,2.1-.8,2-2.3-.1-4.6-1.5-1.7-1.5-2-.3-2.8,2.3-1.5,3.2-.7,4.6,4.1,1.3,4.1,1.2,4.5-.8,6a5.59,5.59,0,0,1-3.9,1.2c-2.2-.6-5.4,2.6-6.3,6.3-.6,2.7-.5,2.8.9,1a6.4,6.4,0,0,1,3.9-2.2c2-.2,2.5.3,3,3.1a9,9,0,0,0,3.6,5.5l3,2.1v-3.6c0-2.9.4-3.5,1.8-3.3,1.1.2,1.6-.2,1.3-1.2-.1-.8-.4-3.8-.5-6.7-.1-3.8-.7-5.8-2.4-7.6a8.92,8.92,0,0,1-2.2-5.1c0-4-1.6-6.4-5-7.1-2.6-.6-2.9-1-2.4-3.4s.2-2.9-2.3-3.9a27.78,27.78,0,0,0-5.3-1.4c-2.1-.3-2.5-.9-2.8-4-.2-2,.1-4.6.7-5.6.7-1.3.7-3.2,0-5.8C1108.38,282.26,1106.88,280.76,1104.68,282.06Z" transform="translate(117.47 231.53)"/><path class="cls-2" d="M1090.58,341a16.79,16.79,0,0,1-5.2,6,33.6,33.6,0,0,0-6.2,5.3,20.78,20.78,0,0,1-5.5,4.4,10.74,10.74,0,0,0-4.3,4.4c-1.5,2.8-2,3.1-5.2,2.6-2.7-.5-3.4-.3-2.9.8a1.72,1.72,0,0,1-.4,2c-1.6,1-1.1,5.8,1,9.3a15.24,15.24,0,0,1,2,6.6c0,4.3,2.2,6,7,5.8a18.47,18.47,0,0,1,7.6,1.3c4.3,1.8,7.7,1.9,10.6.4,1.6-.9,1.9-1.7,1.4-4.4s-.2-3.8,2.4-6.5c2.2-2.2,3-4,3-6.5,0-2.9.4-3.6,2.5-4.1,3-.7,3.1-1.4.5-4.7s-2.5-7.5.5-11.9c1.4-2,2.5-4.3,2.5-5,0-1.2-7.9-9.8-9-9.8C1092.58,337,1091.58,338.76,1090.58,341Z" transform="translate(117.47 231.53)"/><path class="cls-2" d="M1001.48,345.66c-1.3,1.3-.5,2.9,2.3,4.5a18.38,18.38,0,0,1,5.5,5.6c1.4,2.2,3.4,4.3,4.5,4.7a7.29,7.29,0,0,1,3.5,3.3,138.23,138.23,0,0,1,8.6,19.5,26.61,26.61,0,0,0,14,15.3c3.3,1.5,3.5,1.5,5.3-.7a5.46,5.46,0,0,0,1.3-4.4c-.3-1.2.3-3.8,1.4-5.8l2-3.7h-2.5c-1.4,0-2.5-.5-2.5-1s-1.9-2.8-4.1-5c-3.2-3.1-3.9-4.3-3.1-5.3s.2-2.1-3.1-4.8c-2.3-1.9-5.9-4.5-7.9-5.8a16.49,16.49,0,0,1-5.5-5.3c-1.3-2.1-4.5-4.3-10.4-7.4C1006,347.06,1001.88,345.36,1001.48,345.66Z" transform="translate(117.47 231.53)"/><path class="cls-2" d="M1124.38,365.06c-2.4,1.4-4,1.6-8,.9-8-1.4-9.1-1.2-10.3,1.5a13.51,13.51,0,0,0-1.2,5,23.4,23.4,0,0,1-2,6.9c-1.5,3.7-1.7,5.2-.9,7.4a22,22,0,0,1,1,7.4c-.1,4.9.8,5.8,3.9,3.8,1.1-.7,1.4-2.5,1.3-7-.2-5.7.7-7.5,2.4-4.8a5.77,5.77,0,0,1,.8,2.3c.3,2.9,2,7.1,3.4,8.1,3.9,3,5.5-2.6,2.4-8.8-.9-1.8-2-4.1-2.5-5.1-.7-1.4-.3-2.3,1.6-3.8,1.5-1.1,2.6-2.5,2.6-3,0-1.3-4.7-1.1-7.1.3-1.7,1.1-2.2,1-3.5-.7-3.4-4.6.4-8.9,5.8-6.5,7,3,14.4,1,13.6-3.7C1127.38,363.36,1127.28,363.36,1124.38,365.06Z" transform="translate(117.47 231.53)"/><path class="cls-2" d="M1152.18,374.66c-1.3.2-2.3.8-2.3,1.2,0,1.1,3.4,4.1,4.7,4.1s4.8,3.9,4,4.6c-1.2,1.2,2.3,6.4,4.1,6.1,2.3-.3,15.3,4.2,17.4,6,2.5,2.2,3.5,9.3,1.4,10.5-2.4,1.4-1.9,2.8.9,2.8,1.4,0,4.8,1.1,7.5,2.5,6.9,3.5,9.2,3.2,14.1-1.5,2.3-2.2,4.5-4,5-4s2.9,2.5,5.5,5.5c3.5,4.1,6,5.9,9.6,7.1,2.6.8,5.3,1.4,6,1.2s-1.6-3.2-4.9-6.7c-6.7-6.8-8.4-10.1-5.2-10.1,1,0,1.9-.6,1.9-1.4,0-1.9-4.7-5.6-7.1-5.6a1.74,1.74,0,0,1-1.9-1.9c0-1.1-1.5-3.1-3.2-4.4-6.3-4.7-24.3-12.7-28.6-12.7-.8,0-3.3,2.1-5.7,4.7l-4.3,4.6-3.6-3.9c-2.9-3.1-3.5-4.4-3-6.7.6-2.7.5-2.7-4.8-2.6C1156.78,374.16,1153.38,374.46,1152.18,374.66Z" transform="translate(117.47 231.53)"/><path class="cls-2" d="M1048.38,399.66c-4.8,1.2-6,4.3-1.6,4.3a11.12,11.12,0,0,1,6.1,2.6c2.5,2.1,5,2.9,13.3,4.1a114.31,114.31,0,0,1,14.1,2.8c3.3,1.2,4.6,1.2,7.9,0,3-1,4.6-1.1,6-.3,1.1.5,4.5.8,7.6.6a32.65,32.65,0,0,1,8.6.3,12.19,12.19,0,0,0,6,0c1.6-.5,4.8-1.2,7-1.6l4-.6-4,2.7-4.1,2.8a16.69,16.69,0,0,0-.9,2.5c-.6,2.1,0,1.8,4.7-2.2,3-2.5,6.7-5.1,8.3-5.7,2.7-1,2.8-1.3,1.2-2.1-1.2-.7-3.5-.6-7.2.2-4.1.9-6.1.9-8,.1s-3.2-.8-5.7.2-4.5,1.2-8.8.4a84.23,84.23,0,0,0-11.5-1.3c-11-.3-17.6-2.4-13-4.1,2.6-1,.5-2.4-3.6-2.4a13,13,0,0,1-6.5-1.7c-2.4-1.5-2.5-1.5-3.1.5-.8,3.2-6.6,3-10.5-.3a12.7,12.7,0,0,0-3.6-2.4C1050.68,399.16,1049.48,399.46,1048.38,399.66Z" transform="translate(117.47 231.53)"/><path class="cls-2" d="M1154.18,426c.6,2.6.3,3-2.1,3.5a29.18,29.18,0,0,0-4.2,1.4c-1.9,1-6,8.2-5.4,9.3.3.4.4.8.2.8s-1.8.4-3.6.9c-3,.9-3.4.7-4.4-1.5-2.2-4.7-8.3-4.1-9,.9-.2,1.6-.9,2.1-2.5,1.9-1.3-.2-2.3.2-2.3.8s-1.6,2.6-3.5,4.6c-2.8,2.8-3.6,3.2-4.1,1.9s-.9-1.2-2.5.6a7.29,7.29,0,0,0-1.9,4c0,4-5.8,8.6-14.6,11.8-4.7,1.7-9.2,3.1-10,3.1s-3.6,1.5-6.2,3.2-5.4,3.3-6.2,3.3c-1,0-1.6,1.3-1.8,4.2-.2,2.3-.9,4.7-1.7,5.3-.9.8-1.2,2.2-.8,4.1.4,2.2.1,3.3-1.2,4.3-1.5,1.1-1.6,1.6-.5,3.5.7,1.4,1.2,7,1.3,14,.2,9.5-.1,12.4-1.7,15.9-1,2.3-2.5,4.2-3.3,4.2-2.5,0-1.4,3.9,1.7,5.5,4.1,2.1,6,1.9,12.3-1.5,4.8-2.5,6.8-3,12.7-3,3.9,0,7-.4,7-1,0-3.2,20.2-9.5,30.2-9.3,8.7.1,17.2,6.6,15.2,11.7-1.1,2.8,2.5,3.2,4.9.4,2.7-3.1,7.7-6.2,7.7-4.8,0,.5-1.3,2.2-3,3.7-3.6,3.2-4,5.2-.5,2.9,3.1-2.1,3.4-2,2.8.4-.3,1.1-2.3,2.7-4.4,3.7-4.1,1.8-4.8,2.7-2.5,3.6.8.3,2.4-.5,3.7-1.9,3.2-3.4,4.2-3,3.6,1.5-.7,5.4,2,9.6,7,11,5.2,1.5,7.8,1.4,9.3-.4s3-1.9,3-.1a4.08,4.08,0,0,0,1.3,2.5c1.1.8,2.4.3,5.8-2.3a20,20,0,0,1,8.3-3.9c2.1-.3,4.1-.9,4.5-1.4,3.2-4.9,17.5-21.2,19.4-22.2,4.1-2.2,10.7-14.6,13.7-25.6l2.7-10.1-2.8-3.9a24.78,24.78,0,0,1-3.4-6.7,8.31,8.31,0,0,0-2.7-4.2,7.08,7.08,0,0,1-2.3-4.8c-.2-2.1-1.6-4.8-4-7.6a27.56,27.56,0,0,1-6.5-16.8c0-5.2-1.7-8.6-3.9-7.9-1.6.5-2-.1-2.6-3.7-2.7-17-4.9-16.9-7.9.7-1.7,9.8-5.9,18.5-8.8,18.5-2.1,0-6.9-2.8-8.1-4.7a43.42,43.42,0,0,0-5.2-5.4l-4.3-4.1,2.9-4.4c1.7-2.4,3.4-4.6,4-4.9,1.1-.8,1.1-1.6,0-3.4-.7-1.1-1.5-1.1-4.3-.1-3,1.1-3.9,1-7.5-.9a16.88,16.88,0,0,1-4.8-3.1C1155,421.76,1153.68,423.06,1154.18,426Z" transform="translate(117.47 231.53)"/><path class="cls-2" d="M806.78,431.66a74.17,74.17,0,0,0-5.7,7.4c-2.3,3.5-4.5,5.2-8.6,7-6.8,2.9-9.3,7.2-7.6,12.9,1.6,5.4,1.2,9-1.4,13.4a20.4,20.4,0,0,0-2.6,9.1c-.4,7.1-.3,7.3,2.6,10,5.9,5.5,13,1.6,15.8-8.7,2.6-9.8,5.5-19.7,7.8-26.6,1.1-3.4,1.7-7,1.4-7.8-.4-1.1.1-1.8,1.4-2.1,1.7-.5,2-1.4,2-6.7-.1-3.3-.6-7.1-1.3-8.4l-1.3-2.2Z" transform="translate(117.47 231.53)"/><path class="cls-2" d="M1289.48,539.76a54.49,54.49,0,0,0-.6,6.4c0,4.3-3,9.6-6.2,10.9-2.6,1.1-2.7,1.3-1.3,2.9,2.1,2.3,1.9,3.6-.7,5.4-2.8,2-3.8,2-3.8.1,0-1.3-.4-1.4-2.1-.5a5.19,5.19,0,0,1-3.2.7c-.7-.2-3,1-5.2,2.7a89.55,89.55,0,0,1-10.6,6.8c-3.6,2-10.7,6.1-15.8,9.3l-9.3,5.7,3.1,1.9c3.1,1.9,3.2,1.9,6.9,0a87.61,87.61,0,0,0,9.7-6.4c3.3-2.4,7.4-4.8,9.2-5.1,1.9-.5,3.5-1.5,3.8-2.7a9.35,9.35,0,0,1,3.8-3.5,28.16,28.16,0,0,0,5.4-3.6,10.36,10.36,0,0,1,6-2.2c4.4-.2,12.8-5.4,13.8-8.6a2.88,2.88,0,0,1,2.5-2c1.9,0,8-5.4,8-7.2,0-.6-.8-.7-1.7-.3-3.3,1.3-4.8,1-5.8-1.3-.5-1.2-1.3-2.2-1.8-2.2s-.5-2-.2-4.4c.6-3.8.4-4.6-1.3-5.5S1290.08,536.46,1289.48,539.76Z" transform="translate(117.47 231.53)"/><path class="cls-2" d="M1162,569.46c-2.6,8.3-2.6,8.3.2,8.7,3.8.7,9.3-3.1,12.2-8.3l2.6-4.9-4.6.6c-3.5.5-5,.3-6.4-1.1C1164.08,562.86,1164,563,1162,569.46Z" transform="translate(117.47 231.53)"/><path class="cls-2" d="M3046.42,4.14c-4.9.3-9.9,1.1-11,1.7s-9,1.4-17.5,1.7c-14.1.5-37.8,3.2-39,4.5-.3.2.1.7.8.9,1.3.5,1.7,3.3.5,3.3-.5.1-5.7.7-11.7,1.4-11.6,1.5-14.1,2.8-10.7,5.7,1.8,1.5,4.8,2.2,19.4,4.8,9.9,1.8,14.1,6.5,10.2,11.7-2.2,3-1.8,4,2.3,5.1l3.7,1-4.2.8c-3.4.6-4.3,1.2-4.3,2.8s.5,1.9,3.4,1.4,3.4-.3,2.9.9a3,3,0,0,1-2.8,1.4c-1.4,0-3.3,1.3-4.9,3.4-2.4,3.1-2.6,4.3-2.6,12.4,0,10,2.2,19,4.8,19.8.9.3,3.6,1.4,5.9,2.5,5.8,2.9,9.4,1.9,13.6-3.5,1.8-2.4,6.1-7.4,9.5-11.1l6.2-6.8,9.8-2.2c7.1-1.6,11.3-3.2,15.2-5.8,5.3-3.5,27.8-11.2,34.5-11.9,2.8-.3,3-.6,3.3-4.5.3-4.5,2.4-6.9,9.3-10.6,2.4-1.4,2.9-2.1,2-2.7-1.8-1-.6-6,1.4-6,2.3,0,2.7-1.8,1-4.9-1.7-3.4-1.5-3.6,5.5-5.7a84.38,84.38,0,0,0,11.2-4.5l6.3-3-7,.6a88.72,88.72,0,0,0-9.2,1.1,3.05,3.05,0,0,1-3-1c-.4-.7-5-2.3-10.1-3.5C3081.42,3.14,3067.82,2.84,3046.42,4.14Z" transform="translate(117.47 231.53)"/><path class="cls-2" d="M2949.92,6.34c-8.2,1.5-34,3.9-35.5,3.3-.9-.4-3.4.6-5.7,2.2-2.8,2-4.3,2.5-4.5,1.6-.9-2.5-2.3-1.1-2.3,2.2,0,4.4,3,6.8,7.3,5.9,5.8-1.2,1.8,1.6-5.4,3.7-6.3,1.9-7.3,2-8.7.6a12.75,12.75,0,0,0-5.7-1.8c-3.7-.3-4-.1-4.5,2.7-.4,2.5-1,3-3.5,3-2.2,0-2.9-.4-2.7-1.7.3-1.9-.2-2.3-4.5-3.2-2.9-.7-3.3-.4-4.8,2.4-.9,1.8-1.5,3.4-1.2,3.6s4.4.9,9.3,1.5l8.9,1,2.1-2.7c2.1-2.6,4.8-2.6,3.8-.1-.8,2.2,10.9,3.9,17.9,2.8a29.83,29.83,0,0,1,8.5-.5c2.9.6,7.3-1.9,5.9-3.3-.5-.4-5.3-.8-10.7-.8-9.7,0-9.8,0-7.1-1.8,2.1-1.5,4.3-1.7,11.6-1.5,5,.1,9.5-.1,10.2-.5a3.54,3.54,0,0,1,2.7-.1c.8.3,5.9-1.5,11.3-4.1,9.8-4.7,17.8-7.3,30.8-10,17.4-3.5,19.5-4,19.5-4.5C2992.92,5.34,2954.72,5.44,2949.92,6.34Z" transform="translate(117.47 231.53)"/><path class="cls-2" d="M2891.22,16.24c-2,.8-2.1,1.2-1.2,3.4,1.1,2.3,4.2,4,5.3,2.8a8.92,8.92,0,0,0,.6-3.9C2895.92,15,2895.12,14.64,2891.22,16.24Z" transform="translate(117.47 231.53)"/><path class="cls-2" d="M2851.62,17.84a22,22,0,0,0-4.8,3.5c-1.9,1.9-1.9,1.9.7,1.9,3.2,0,9.6-3.8,9.1-5.3C2856.12,16.24,2854.62,16.24,2851.62,17.84Z" transform="translate(117.47 231.53)"/><path class="cls-2" d="M2872.62,16.94c-1.5,1.5-.4,2.3,4.8,3.8,4.1,1.2,5.9,1.4,7.5.5,2.8-1.5,1.9-2.5-3.4-3.9C2876.42,16,2873.52,15.94,2872.62,16.94Z" transform="translate(117.47 231.53)"/><path class="cls-2" d="M2823.92,23.44c-4.1,1.1-9.2,2.2-11.2,2.5-4.6.6-4,2.3.8,2.3a7.93,7.93,0,0,1,5.4,2,7,7,0,0,0,3.9,2,13,13,0,0,1,4.9,1.7c2.9,1.7,3.3,1.7,7.9,0a39.1,39.1,0,0,1,10.5-1.7c4.1,0,6.1-.5,7.4-1.8,1.7-1.6,1.7-1.7,0-2a1.36,1.36,0,0,1-1.2-1.8c.8-2-1.7-1.7-5.9.7-3.7,2.2-5.1,2.2-11.9-.4-2.2-.8-3.4-1.7-2.7-2.1,1.2-.8,1.5-3.6.4-3.5C2831.72,21.34,2828,22.34,2823.92,23.44Z" transform="translate(117.47 231.53)"/><path class="cls-2" d="M3430.92,23.14c-1.4.4-2.5,1.2-2.5,1.9,0,2.2-2.8,3.2-9.1,3.2s-21.8,2.5-24.4,4c-1.3.8-1.3,1,.3,1.5,3.7,1.5,1.3,2.5-6,2.5l-7.8.1,3.5,2.9c1.9,1.7,4.6,3,6,3,2.3.1,2.3.2.6,1.2-1.4.8-2.7.7-5.3-.6-3.3-1.6-10.4-2.2-11.6-1s.5,3.4,2.6,3.4c1.5,0,1.8.3,1,1.1-1.9,1.9-5.2-.1-7.3-4.2-1.1-2.2-2.8-3.9-3.7-3.9-1.4,0-1.3.4.6,2.4s2,2.4.7,2.9c-2.3.9-1.9,3.1.7,4.2a5,5,0,0,1,2.5,3.2c.5,3.5,2.7,4.7,6.4,3.4,2.1-.8,3.5-.8,4.2-.1,1,1-.3,1.4-3.1,1.1-1.8-.2-2.6,1.8-1.4,3.3,2,2.4-.7,6.6-4.1,6.6-3,0-3.8-1.4-1.3-2.4,2.2-.8,1.9-5.9-.5-7.4-1.1-.6-2.8-2.9-3.9-5.1s-2.7-4.1-3.6-4.4a3.79,3.79,0,0,1-1.5-3.2c0-1.8-.5-2.5-1.9-2.5a5.41,5.41,0,0,1-3.5-1.6c-2.4-2.4-5.4-.9-6.2,3.1-.3,1.8-1.3,3.6-2.1,4-1.4.5-1.4.7-.1,2.3a11.22,11.22,0,0,1,2.1,3.4c.3.9,2,1.9,3.7,2.3,2.8.6,5,2.9,3.8,4-.2.2-3.8-.7-7.9-2.1a70,70,0,0,0-12.9-3.1,25.12,25.12,0,0,1-7.7-1.9,8.48,8.48,0,0,0-3.8-1.4c-2.8,0-1.5,1.7,2.6,3.3,3.7,1.4,4,1.9,2.9,3.2-1.2,1.5-1.5,1.4-2.4-.4-.9-1.6-1.5-1.8-3.1-.9a19.47,19.47,0,0,1-5.5,1.9,26.72,26.72,0,0,0-5.2,1.4c-1.3.5-1.8.2-1.8-.9a1.58,1.58,0,0,0-1.6-1.6c-2.5,0-14.8,5.1-16,6.6s-4.6,1.9-5.7.7c-.4-.3-.2-1.2.4-2,1.8-2.1-.8-4.3-5.1-4.3h-3.8l2.4,4.6c2.7,5.2,2.5,6.2-.9,4.7-1.8-.8-2.8-.7-4.6.8a7.85,7.85,0,0,1-3.8,1.9c-1,0-1.2.6-.8,1.9.6,2.1-1,3.8-2,2.1-.8-1.3-8.5-1.3-8.5,0,0,.5,1.1,1.2,2.5,1.6s2.5,1.1,2.5,1.6c0,1.3-4.6.2-8.5-2.1-1.7-1-3-2.5-3-3.7a4.36,4.36,0,0,0-2-3.1c-1.9-1.2-1.9-1.2.5-1.2,1.4,0,5,.4,8,.8,7,1.1,13-.9,13-4.3,0-2-.8-2.5-5.7-3.5-3.2-.7-10.7-2.6-16.6-4.2s-11.5-2.8-12.4-2.5-1.3.1-.8-1.3c.5-1.6-.2-2.1-4.2-2.9-3.3-.7-5.2-.7-6,0s-3.1.8-5.6.5c-4.8-.7-16.2,1.9-27.4,6.1-6.9,2.6-9.1,4.2-5.8,4.2.8,0,1.5.4,1.5,1,0,1-5.1,6-6.1,6s-4.9,6.8-4.9,8.2c0,2.4-3.2,4.8-5,3.8-5.1-2.7-16,5.1-16,11.6,0,1.9.6,3.7,1.3,4s1.2,1.6.9,3.3c-.3,2.4.1,3,3.1,4.4,4.5,2.2,4.4,2.2,9.6-1.3,5-3.4,6.1-3.7,6.1-1.5,0,.9,1.1,3.3,2.5,5.4,2.6,3.8,2.5,7.1,0,7.1a10.07,10.07,0,0,0-2.8.6c-1.2.4-1.4,0-1-1.4.2-1.1,0-2.3-.6-2.6a1.76,1.76,0,0,1-.4-2.1c.9-2.5-3.5-1.8-6.2,1-2.9,2.8-3.1,5.4-.9,9.7,1.9,3.8,1.1,4.8-4.7,5.5-6.5.8-9.7,2.8-10.1,6-.2,2.3-1.3,3.3-5.6,5.3-2.8,1.4-5.5,3.3-5.8,4.3s-2,2.4-3.7,3.1c-2.7,1.1-3.6,1.1-5.9-.1-3.1-1.5-3.2-1.4-1.9,2,.9,2.4.9,2.5-2.9,2-4.4-.6-9,.3-9,1.7,0,.5,2.1,2.1,4.8,3.4,6,3,8.6,7.8,7.6,14.2-.4,2.9-1.2,4.5-2.4,4.9-2.6.8-18.3.3-20.3-.7-1.2-.6-2.9-.5-4.8.4-2.9,1.3-3,1.5-2.4,6.3a20.74,20.74,0,0,1-1.4,10.5c-1.3,3.7-1.6,6-1,7.2a10.93,10.93,0,0,1,.9,4.3c0,2.5.2,2.6,3.9,2s4-.4,5.8,2.7,1.9,3.5.3,7c-1,2.4-3.7,5.2-7.1,7.7-6.1,4.4-7.9,7.3-7.9,13,0,3.3-.7,4.5-5,8.5-2.7,2.5-5.8,4.6-6.9,4.6a4.18,4.18,0,0,0-3.2,2.2,40.2,40.2,0,0,1-4.6,6.1c-1.9,2.1-3.2,4.5-2.9,5.2s-.8,2.5-2.4,4a13.51,13.51,0,0,0-3.4,6,9.94,9.94,0,0,1-2.1,4.5c-1.9,1.6-1.9,6-.1,8.6,1,1.3,1.1,2.3.4,3.1s-.6,1.8.1,3.2a11.7,11.7,0,0,1,1.1,4.8c-.1,3.7-3.5,13.6-4.9,14.1-1.7.6-1.3,2.9.5,3.6,1.2.5,1.5,1.4,1,4-.8,4.4.8,8.4,3.8,9.5,3.4,1.3,9.2,8.8,10.7,13.9,1.3,4.6,2.6,5.8,15.6,15l7.2,5.1,4.3-1.9c4.7-2.1,14.7-2.7,17.8-1,1.5.8,3.6.3,9.4-2.5,13.3-6.3,20.4-5.6,24,2.3l1.7,3.9,5.3-.5c3.9-.3,6,0,8,1.3,2.3,1.5,2.6,2.4,2.6,7.6A33.34,33.34,0,0,1,3176,374l-2,4.9,5.6,8.4c6.7,9.9,13.7,26.3,12.4,28.8-.6,1-.4,2.8.5,5,2,4.8,1.7,8.8-1.2,15.6-6.6,15.6-6.3,20.4,2,38,5.1,10.9,5.6,12.6,5.6,18.8,0,5.9.5,7.7,3.8,14,7.9,15.4,10.6,22.7,8.2,22.7-1.3,0,3.2,8.7,4.9,9.5.7.3,4.3-.2,7.8-1.1s7.8-1.3,9.5-1a9.78,9.78,0,0,0,5.8-.9,15.58,15.58,0,0,1,5.8-1.5c3,0,7.2-4,19.8-18.6,6.6-7.7,6.6-7.7,7.3-14.3.6-5.4.8-5.7,5.8-8.9,4.4-2.9,5.3-4,5.8-7.3a35.21,35.21,0,0,0-.6-10.4l-1.3-6.5,6-5.5a60.79,60.79,0,0,1,10.4-7.9c7.1-3.8,7.8-5,8.6-15.1.6-8.3.4-10-2.6-20.3-4.2-15-4.2-18.1-.3-26.5,3.5-7.4,16.8-23.5,23.9-28.8,4.4-3.3,14.9-19.2,20-30.3,4.3-9.4,4.3-20.3.1-16.7-.7.5-4,1.4-7.2,2a76.94,76.94,0,0,0-11.7,2.9l-5.7,1.9-2.6-2.7c-1.5-1.6-2.3-3.3-2-4.2.7-1.8-8.1-12.6-14.7-18-3.3-2.7-4.8-4.9-5.8-8.2-.7-2.4-2.3-5.5-3.6-6.7a7.29,7.29,0,0,1-2.4-5.9c0-2.6-1.5-6.3-4.9-12.2-2.7-4.7-6.5-12.2-8.4-16.6-3.5-8-3.5-8.1-1.4-8.8,2.6-.8,6.8,3.8,12.8,13.8,2.1,3.7,4.3,7,4.8,7.3s1.5,3,2.1,6c.9,4.4,2,6.3,5.1,9.2,2.1,2,4.1,4.5,4.5,5.7s1.9,3.4,3.4,5.1c4.9,5.3,6.3,9.9,1.8,5.8-1.5-1.4-1.8-1.4-1.8-.1a6,6,0,0,0,2,3.3c1,.9,2.9,4.7,4.1,8.4s2.7,6.9,3.3,7.3c1.5,1.1,6.9-.1,8.2-1.8.6-.8,2.5-1.4,4.3-1.4,2.8,0,4.8-.7,9.1-3.2.8-.5,4.3-2.2,7.6-3.9s6.4-3.8,6.6-4.7c.3-1.1,2.6-2.4,6.1-3.5,3.7-1.2,5.8-2.4,6.2-3.7.4-1.1,1.2-2,2-2,2.2,0,7.5-6,7.5-8.5a2.56,2.56,0,0,1,2.1-2.8c1.2-.3,1.8-1,1.4-1.6s.3-2.4,1.4-4a10.86,10.86,0,0,0,2.1-4c0-1.8-6.3-7-8.5-7.1-3.7-.1-6.5-3.7-6.5-8.4,0-3.5-.9-3.3-5.5,1.4-3.8,3.9-10.4,6.8-12.5,5.5-.6-.3-1-1.9-1-3.4a7.17,7.17,0,0,0-2-4.6c-1.8-1.6-2-1.6-2.6-.1-.9,2.3-2.3,1.1-4.4-3.8a22.49,22.49,0,0,0-4.4-6.5c-3.2-3-3.5-7.5-.7-9.1,3.9-2.1,5.7-1.2,9.2,4.6,2.7,4.5,4.6,6.4,9.3,8.9,6,3.3,8.2,3.4,12,.9,2-1.4,6.2-.1,5.1,1.6-2,3.3,8.7,5.9,27,6.6l12,.5,4,3.8a38.14,38.14,0,0,0,7.5,5.7c1.9.9,2.9,1.9,2.3,2.1-2.2.8-1.4,3,2.2,6.2,3.1,2.7,3.8,2.9,6,1.9,1.4-.6,2.5-1.9,2.5-2.9a2.9,2.9,0,0,1,.9-2.3c1-.7,2.1,2.7,2.1,7,0,5.2,5.5,22.3,11.9,36.8,3.3,7.6,6.5,15.5,7.1,17.7,1.5,5.4,4.5,6.2,8,1.9,2.3-2.8,2.9-3.1,4.6-2s2,2.4,2,6.8c.1,4.1.6,5.9,1.9,6.9,1.6,1.1,2.1,1,3.6-.3a13.85,13.85,0,0,0,2.8-4.4c.8-2.5.5-3.5-1.9-6.8-3.5-4.8-5-5.9-6-4.2-.9,1.5-3,.5-3-1.5a2.14,2.14,0,0,1,1.4-1.8c1.2-.5,1.4-3.1,1.3-13.3l-.2-12.7,2.7-.9c1.5-.5,3-1.7,3.3-2.7s3-3.8,5.9-6.4,5.8-5.6,6.1-6.7a8.12,8.12,0,0,1,3.6-3.5c2-1.1,2.9-2.3,2.9-3.9,0-3.4,1.7-4.3,8.5-4.4,4.7,0,6.3-.5,7.6-2.1,1.9-2.3,3.1-1.5,4.4,2.9,1.2,4.2,5.4,9,7.1,8.3,1.3-.5,1.5-.2.9,1.6s0,2.7,1.9,4.2c2.2,1.8,2.6,2.8,2.6,7.5,0,4.9.2,5.4,2.6,6a4.55,4.55,0,0,0,4.7-1.3c5.8-5,5.3-5.3,8.6,5.4,3.9,12.7,5.2,18.5,4.3,19.8-.4.5-.7,3.9-.7,7.5,0,5.6.2,6.5,1.7,6.2,2.7-.4,9.8,11.3,9.1,15s3.4,9.8,8.3,12.4a18,18,0,0,1,5,4.1c3.5,5.4,4.7.7,1.4-5.7a20,20,0,0,1-2-7.4c0-3.9-5.4-11.1-11.4-15.2-2.4-1.7-3.6-3.2-3.6-4.9,0-1.3-1.2-3.8-2.6-5.5l-2.7-3.1,1.6-5.7a58.18,58.18,0,0,0,1.9-8.2c.4-3.6,3.4-3.3,3.1.3-.2,2.4.1,2.7,1.9,2.2,1.5-.5,3.1.4,6.4,3.7,2.4,2.3,4.4,4.8,4.4,5.5s1,1.3,2.3,1.5c1.7.2,2.2,1,2.4,3.6a14.47,14.47,0,0,0,.5,3.8c.8.7,7.8-5.7,7.8-7.2,0-.7,1.1-1.6,2.4-2a14.13,14.13,0,0,0,5.1-3.4c2.5-2.7,2.7-3.4,2.2-8.3-.7-7.3-2.2-9.9-11.2-19.7-4.9-5.3-7.5-9-7.5-10.5,0-3.6,7.7-10.5,11.7-10.5,2.7,0,3.2.4,3.5,2.7.4,3.6,3.8,4.5,3.8,1.1,0-2.5,4.1-5.1,6.6-4.1a4.07,4.07,0,0,0,3.2-.8c1.5-1.3,5.1-3.1,10.7-5.5,4.7-2,11.3-10.8,13.9-18.4,3.1-9.2,4.5-19.1,2.5-17.3-1.8,1.8-4.3,1.6-3.5-.2.3-.8.9-2.2,1.2-3,.4-1,0-1.5-1.1-1.5s-1.5-.5-1.1-1.5c.7-1.9-7.3-11.3-12.3-14.6l-2.4-1.5,3.2-4.7c2-2.9,3.9-4.7,5.1-4.7s2-.6,2-1.4c0-2-7.7-2.5-11.1-.7-2.4,1.2-2.8,1.1-5.2-1.3-1.4-1.4-3.3-2.6-4.2-2.6-2.5,0-1.7-1.6,3.5-7,4.8-5,7.7-5.8,6.7-1.9-.5,2,1.3,6.9,2.5,6.9.4,0,1.2-.8,1.7-1.9,1.3-2.4,5.2-3.4,8.5-2.1,2.1.8,2.6,1.6,2.6,4.4,0,3.3.2,3.4,5,4.6,4.4,1,5,1.5,4.4,3.2a2.64,2.64,0,0,0,1.2,3.2c1.1.8,1.7,2.6,1.7,4.7,0,5.2,1.2,6.1,5.5,4.3a22.6,22.6,0,0,0,5.3-3c1.6-1.5,1.6-1.9-.4-6.6-1.6-3.9-3.2-5.8-7.8-8.9a49.88,49.88,0,0,1-6.3-4.7c-.3-.5.6-2,1.9-3.2a7.54,7.54,0,0,0,2.5-6.2c0-4.2,3.1-8.4,5.6-7.4.8.3,2,.9,2.8,1.2,2.4.9,6.4-3.8,8-9.8a54,54,0,0,0,1.6-12.5c0-6.3-.4-7.7-4.3-14.9-6.4-11.8-6.8-12.3-11.6-14.5-5.2-2.3-7.7-2.4-8.5-.4-.9,2.4-2,1.8-4.5-2.3-2.2-3.6-2.2-3.6-1.6-.7s.6,2.9-1.3,1.2a6.68,6.68,0,0,0-3.5-1.7c-2.6,0-3-1.8-.9-4.5a15.71,15.71,0,0,0,2.6-6.2c1.4-7.7,2.3-9,7.3-9.7,8-1.1,25.3-.7,25.3.5,0,.8,1.7,1,5.6.6,5.5-.6,8-1.6,5.8-2.4-3.7-1.3-4.4-2.7-3.2-6.6,1-3.4,1.5-3.7,4.7-3.7,2.6,0,4.4.8,6.8,3.2l3.3,3.2,2.4-2.3c2-1.9,2.3-2.6,1.3-4.2-1.2-2-.5-3.5,1.2-2.4a10,10,0,0,1,2.6,3.5c1.3,2.5,1.3,3.3,0,7a28.79,28.79,0,0,0-1.5,6.1,4,4,0,0,1-1.8,3c-1.7,1.1-1.8,1.5-.5,5.3a21.3,21.3,0,0,0,5.6,7.6c2.3,1.9,7.9,7,12.5,11.3s8.7,7.5,9.3,7.2c1.3-.9,1.1-6.2-.3-7.1-.8-.5-.5-1.1.7-2,1.7-1.3,1.7-1.5.2-3.2-1.9-2-.7-5,1.4-3.6.8.4.2-.7-1.3-2.5-3.1-3.6-3.6-5.3-1.3-4.5,3.1,1.2,1.4-1.3-2-2.9-1.9-.9-3.5-2.3-3.5-3.2s-1.2-1.7-2.7-2.1c-4.9-1-5.4-1.4-5.1-3.2a4.59,4.59,0,0,0-1-3.4c-1-1.3-.8-1.7,1.9-2.8,2.5-1.1,3.5-1.1,5.1-.1s2.3.9,3.9-.5c1.8-1.6,2.2-1.6,5.9-.1,2.7,1,4,1.2,4,.4,0-2.3,5.3-8.6,8.2-9.8a7.18,7.18,0,0,1,5.9-.2c5,1.9,4.3-.6-.8-2.7-2.6-1.1-6.2-2.8-8-3.7-3.1-1.6-3.1-1.7-1.2-3.1,1.2-.8,1.8-2,1.5-2.9-.5-1.3.2-1.4,4.6-.8a29.42,29.42,0,0,1,8.5,2.6c3.7,2.3,13.3,3.8,13.3,2.1a3.28,3.28,0,0,0-1.7-2.1c-1.6-.9-1.6-1.2-.3-2.1,2.5-1.7-1-3.5-9.2-4.9-4-.6-15.8-3.4-26.3-6.1s-24.6-5.6-31.5-6.5-13.3-1.8-14.4-2c-1.5-.3-1.3.2,1,2.6l2.9,3.1-2.5-.6c-10.2-2.1-14.4-2.6-23.9-2.6-9.3,0-11-.3-12.5-1.9-2.3-2.5-4.6-2.9-22.1-4-8.6-.6-16.5-1.6-18.5-2.4-3.9-1.6-30.7-4.3-31.8-3.2-.4.3.4,1.5,1.8,2.6l2.5,2.1-9.3-.7a80,80,0,0,1-10.7-1.1c-1.1-.5-1.5.1-1.5,2,0,1.4-.2,2.6-.4,2.6-1.6,0-10.6-4.7-12.6-6.6-2.5-2.3-13.8-5.4-19.7-5.4-2.1,0-2.4.2-1.3,1.5s.3,1.5-5.8,1.5c-3.9,0-7.4-.5-7.7-1s-3.8-1-7.7-1c-5.4,0-7.6-.5-9.8-2-2.8-2-5-1.9-8,.5-1.5,1.2-8,2.9-8,2a31.14,31.14,0,0,1,5-3.1c4.9-2.7,5.7-3.8,4.2-5.9-1.2-1.7-9.9-3.5-17.1-3.5-5.2,0-7-.4-7.5-1.5C3443.92,22.14,3435.82,21.74,3430.92,23.14Zm-203,46.4c0,.6-2.7,3-6,5.2l-5.9,4,.1,5.7c.1,8.6,1.4,9.5,12.5,7.8,12.8-1.9,15.9-1.6,13.4,1.4-.8,1-3.1,1.4-7.4,1.4-3.4-.1-7.3.4-8.6,1.2l-2.5,1.3,2.3,1.8c1.7,1.4,2.2,2.5,1.7,4.4-.7,2.9-1.8,3.2-3.6,1a4.57,4.57,0,0,0-3-1.5c-3,0-4.3,2.6-3.6,7,.6,3.8.5,4-3.3,6s-4,1.9-5.3.1-1.5-1.8-6.8.5c-6.5,2.8-8.6,2.9-9.8.8-.8-1.5-1.2-1.5-4.1.1-3.9,2-4.9,1.5-2.1-1a5.93,5.93,0,0,0,2-3.1c0-1.5,5.5-.9,7.8.9.8.6,1.2.6,1.2-.1a2.33,2.33,0,0,0-1-1.7c-1.6-1-.1-2.5,2.6-2.5s4.6-3.4,3.8-6.6c-.5-2.3.2-3.4,4.4-6.3,1.7-1.2,3.2-2.5,3.2-2.9s-1.4-1.5-3-2.4c-6-3.4-2.6-11.9,6.3-15.6,1.5-.6,2.7-1.7,2.7-2.5a8,8,0,0,1,1.6-3.5c1.2-1.7,2.5-2.2,6-2.2C3226.42,68.24,3227.92,68.64,3227.92,69.54Zm55.9,85.2c-1.2,1.9-2.5,3.5-3,3.5-2.4,0-.3,2.2,4.9,5.1,6,3.4,14.2,10.5,14.2,12.5a5,5,0,0,1-1.7,2.6c-2.4,2.1-14.3.9-19.9-2-3.9-2-4.4-2-10.4-.6-3.5.8-6.9,1.9-7.6,2.5-1.7,1.4-7.8.1-10.7-2.2-1.8-1.4-2.3-2.5-1.9-4.8.2-1.7.8-3.1,1.2-3.1s1.1-1.3,1.5-2.9,1.3-3.2,2.1-3.5a2.15,2.15,0,0,0,1.4-1.9c0-.7,1-2.3,2.3-3.5,1.8-1.7,3-2,6-1.5,3.7.6,4.6,1.6,2.7,2.8-.7.4,0,1.7,1.6,3.2,2.1,2,3.1,2.3,4.8,1.5,1.2-.5,3.2-1.4,4.6-2,1.7-.7,1.9-1.1.8-1.1-4.4-.2-2.5-5.5,2.5-7C3285.52,150.54,3286.12,150.84,3283.82,154.74Zm52.5-2c3.6,1.5,4.5,3.6,2.7,6.4-.5.7-1.3,1.1-1.9.7-1.5-.9-4.2.4-4.2,1.9a1.91,1.91,0,0,1-1.1,1.7c-.6.2,1.4,2.6,4.5,5.3,3.8,3.3,5.6,5.6,5.6,7.2,0,2.7.8,2.9,2.6.5,1.3-1.6,1.5-1.6,3.4.7,2.7,3.2,2.5,4.1-.9,4.1-4.4,0-4.6,1.6-.8,5.2a11.12,11.12,0,0,1,4,8l.6,4.6-4.8.7c-4.8.6-9.1-.5-9.1-2.5,0-.5-1.2-1-2.6-1.2-3.8-.4-5.3-3.2-3.1-5.6a7.12,7.12,0,0,0,1.7-3.9,2.89,2.89,0,0,1,1.3-2.6c.7-.2-1.6-3-5.5-6.6-5.4-5-6.8-6.9-6.8-9.2,0-1.9-.5-2.9-1.5-2.9a1.66,1.66,0,0,1-1.5-1.7c0-1.9,3.8-6.3,5.4-6.3a17.27,17.27,0,0,0,4.6-3,40.23,40.23,0,0,1,3.6-3C3332.62,151.24,3334.32,151.94,3336.32,152.74Zm-136,14.9c1.7,1.3,5.9,4,9.4,6.1,5.7,3.3,6.2,3.9,6.2,7.1,0,4.6,2.3,9,5.7,10.6a6.74,6.74,0,0,1,3.5,4.5c.5,1.8,1.3,3.3,1.7,3.3a11,11,0,0,1,2.5.6c1.1.4,1.6.1,1.6-1,0-.8,1.1-2.3,2.5-3.2,3.2-2.1,3.1-2.7-.5-6.4-1.6-1.7-3-3.7-3-4.5,0-1.8,1.2-1.9,2.8-.3.8.8,1.6.6,3-1.2,2.9-3.6,5.5-2,7.5,4.8,2.8,8.9,4,11.2,6.1,11.2,1,0,3.6,1,5.8,2.2,3.7,2.1,4,2.1,4.9.5,1.2-2.1,3.9-2.2,6.5-.2a6.13,6.13,0,0,0,7.8,0,9.4,9.4,0,0,1,4.8-1.5c2.4,0,2.8.4,3,2.7.3,5.6-.4,8.9-2.9,14.6-3.4,7.6-5,8.6-12.4,8a25,25,0,0,0-9.8.7c-3.6,1.1-4.5.9-16.9-3.9-12.6-5-13.2-5.1-16.5-3.8-4.6,2-7,5.3-5.5,8,1.6,3.1-2.7,5.2-5.1,2.3-.6-.7-3.2-1.6-5.8-1.9-2.9-.3-5.2-1.2-6.2-2.4-2.8-3.5-7.8-6.3-11.3-6.3a11.64,11.64,0,0,1-6.6-2.9c-3.2-2.7-3.2-2.8-1.8-6.2,1.8-4.3.3-10.4-2.9-11.4-2.7-.9-9.1-.6-14,.7-2.2.5-8.2,1.4-13.3,1.9-9.8.9-12.1,1.7-16.2,5.4-2.3,2.1-3.2,2.3-9.3,1.8s-6.8-.8-6.5-2.7c.3-2.3,3.4-4.1,9.5-5.6,4.5-1.1,12.9-8.2,11.8-10-1.2-2,3.9-9.2,8-11.2,4.6-2.4,5.7-3.6,4.9-6-.8-2.6,4.1-4.3,8.5-2.9,3,.9,3.9.7,7.7-1.9,5.8-4.1,7.9-3.9,10.3.9,2.4,4.6,6.8,8.5,12.8,11.3,4,1.9,9.3,6.9,9.3,8.7a9.16,9.16,0,0,1-2.1,3.4c-1.8,2.3-2.5,2.6-6.3,2.1-6.7-1-6.7,1.2,0,4.1,3.1,1.4,5.8,2.5,6,2.5s.4-1.4.4-3c0-2.2.5-3,1.8-3,1,0,2.6-1.3,3.5-3,1.4-2.4,1.6-3.4.7-5.1-1.7-3,.1-4.6,3.5-3.1,2.1,1,2.5.9,2.5-.4,0-.8-2.1-2.4-4.7-3.5s-5.2-2.7-5.6-3.5a3.12,3.12,0,0,0-2.6-1.4c-1.8,0-5.3-3.4-8.9-8.7-2.6-3.7-2.7-5.1-.6-7.4,1.6-1.8,1.8-1.6,4.7,2.7A31.78,31.78,0,0,0,3200.32,167.64Z" transform="translate(117.47 231.53)"/><path class="cls-2" d="M2795.32,34a5,5,0,0,0-1.6,2.3c-.4.9-3.6,2.7-7.1,4l-6.6,2.4,1.9,2.5c1.7,2.3,2,2.3,7,1.2a24.41,24.41,0,0,0,7.7-3.2c4.1-3.2,4.4-2.4,1.3,3.4a36.12,36.12,0,0,0-3,6.1c0,.3,1.4,1.1,3,1.6s3,1.7,3,2.5c0,1.8,2.3,1.8,5.8,0,5.3-2.6,19-3.6,25.8-1.7,2.5.7,3.8.4,6.3-1.1,3.6-2.3,3.6-2.2,1.5-5.2-1-1.6-1.2-2.6-.5-3.1.6-.3,1.1-2.4,1.1-4.7,0-3.8-.1-4-2.6-3.4a12.46,12.46,0,0,0-4.9,3.4c-2.2,2.5-2.4,2.6-4.2,1-1-.9-4.1-2-6.9-2.3-4.2-.6-5.4-1.2-6.8-3.6-1.7-2.8-1.9-2.9-10.4-2.9C2800.32,33.24,2795.92,33.64,2795.32,34Z" transform="translate(117.47 231.53)"/><path class="cls-2" d="M2857.62,35.94a3.92,3.92,0,0,0-.7,2.5c0,2-1.1,2.3-2.7.7a1.87,1.87,0,0,0-2.2-.4c-.7.4,0,1.7,1.9,3.6,3.2,3.3,4.3,3.3,11.1-.2,2.4-1.2,3.8-2.7,4.1-4.4.5-2.4.4-2.5-5.2-2.5C2860.82,35.24,2857.92,35.54,2857.62,35.94Z" transform="translate(117.47 231.53)"/><path class="cls-2" d="M2873.52,38.24c-1.3,1.7-5.3,4.9-8.7,7.1s-6.4,5-6.7,6.1c-.4,1.6-1.1,1.9-3.7,1.4-4.3-.8-10.5,1.8-10.5,4.4,0,1.8-.7,2-6.2,2.1-9.4.2-11.1-.1-13.4-2.2-1.9-1.8-2.5-1.9-6.8-.7-2.5.7-4.6,1.8-4.6,2.5,0,1-2.5,1.3-10.2,1.2-8.2,0-9.8-.3-8-1.1,4.3-2.1,3.5-2.6-10.9-5.8-3.2-.7-6.9-1-8.3-.6-1.9.5-2.6.3-2.6-.9s-.5-1.3-2.7-.4-3,.7-4-.7a2.29,2.29,0,0,0-3-.9c-4.2,1.7-17,4-19.3,3.5a13.11,13.11,0,0,0-6,.7c-4.8,1.7-8.6,1.6-11.6-.3-1.6-1.1-6.1-1.9-13.2-2.5-13.8-1-26.4-3.2-28.7-4.9-1.3-1-15.5,2-27.5,5.8-5.2,1.7-11.1,3.3-13,3.7-6.5,1.2-7.1,1.6-6.5,3.6.3,1,.8,2.8,1.1,3.9.4,1.7.1,2-2.5,2-1.7,0-3.1-.4-3.1-.9s-3.7,0-8.2,1.3c-6.3,1.7-8.3,2.7-8.9,4.4s-.4,2.3,1.6,2.8a26.76,26.76,0,0,0,6.5.2c3.1-.3,3.9,0,3.5,1a7.44,7.44,0,0,0-.5,2.2c0,.4-2.1,1-4.7,1.3-12.8,1.3-23,5.6-26.6,11.1-2.7,4.1-2.2,5.7,1.4,4.9l3.1-.6-1.7,2.7c-1.6,2.3-1.6,2.6-.1,2,2-.8,8.6.4,8.6,1.5,0,.8-36.66-13.09-38.86-13.09a13.8,13.8,0,0,0-3.8,1.5c-2.5,1.4-2.5,1.4,1,.9,11.9-1.9,30,21.39,37.06,17.79,4.3-2.2,8.9-4,10.1-4,3.1,0,11.7-2.8,13.9-4.5,1.6-1.2,1.7-1.7.6-3s-.9-1.5,1.4-1.5a30.52,30.52,0,0,0,7.8-2c2.8-1.1,5.3-1.8,5.5-1.6s-1.5,1.5-3.7,3a20,20,0,0,0-4,3c0,.7,12.8-2.4,17.6-4.2s5.1-1.9,8.4-.2a32,32,0,0,0,8.7,2.5c7.4,1,8.7,3.3,8,13.7l-.5,7.8h3.4c3.2,0,3.3.1,2.3,2.7-.7,1.7-.8,5.5-.4,9.7l.6,6.9-2.5-.7c-3.9-1-3.8,2.3.2,6.6,2.7,2.8,3.3,4,2.4,5a51.42,51.42,0,0,0-3.2,6.8,52.53,52.53,0,0,1-7.5,11.6c-3,3.3-5.7,7.4-6.1,9a20.6,20.6,0,0,1-3.3,6.4c-3,4.1-3.2,6.8-1.8,20.3l1.1,9.9,4.2,2.9c4.8,3.3,5,3.7,6,13.4a47.12,47.12,0,0,0,2.1,10.3c1.3,3.1,1.2,3.5-.3,4.7s-1.5,1.5-.3,3.2a31.61,31.61,0,0,0,4.5,4.6c2.4,2,3,3.3,2.7,5.1s.4,3.6,2.6,6.3c1.7,2.1,3.1,4.3,3.1,5a1.23,1.23,0,0,0,1,1.3c2.1,0,2.2-3.3.3-7.4a39,39,0,0,1-2.7-7.3,116.17,116.17,0,0,0-4.1-11.7c-2.5-6.4-3.2-9.5-2.8-12.1.3-1.9.7-3.5.9-3.5a25.16,25.16,0,0,1,2.7.9c2,.8,2.5,1.8,3,6.2a24,24,0,0,0,4.2,10.6c2.1,3.1,3.5,6.5,3.5,8.3,0,2.3,1.5,4.8,6,10.1,4.9,5.7,6,7.6,6,10.5a13.9,13.9,0,0,1-.9,5.2,5.46,5.46,0,0,0-.1,3.8c1,2.5,10,9.4,12.3,9.4a2.91,2.91,0,0,1,2.4,1.4c1.2,2,15,8.7,18.1,8.8a42.56,42.56,0,0,0,6.5-.7c3.6-.7,4-.6,8.6,4.2s5.8,5.4,17.9,8.6c3,.8,4.4,1.8,4.8,3.4a9.28,9.28,0,0,0,2.5,3.9,6.53,6.53,0,0,1,1.9,4.1c0,3.1,10.2,12.7,13.8,13a9.5,9.5,0,0,1,4.8,2.4c2.7,2.6,5.9,1.9,5.1-1.1-.6-2.3,2.6-5.5,4.8-4.6a4.32,4.32,0,0,1,2.1,2.3,31.57,31.57,0,0,0,2,4.5c1.7,3.2,1.9,17,.2,20.1a10.18,10.18,0,0,1-3,3.5,4.6,4.6,0,0,0-1.8,3.3,3.88,3.88,0,0,1-2.2,3c-3.2,1.4-7.2,11.8-5.9,15.2a8.81,8.81,0,0,0,2,3.2c.7.4.2,1.8-1.5,4-2.4,3.1-2.4,3.6-1.3,7.7a22.44,22.44,0,0,0,4,7.3,44.82,44.82,0,0,1,5.4,8.5,100.06,100.06,0,0,0,5.5,9.5,140.41,140.41,0,0,1,7.3,13.2c4.6,9.1,4.7,9.2,15.4,16.8,5.9,4.3,11,7.9,11.1,8.1s1.2,5.1,2.3,11.1a175.7,175.7,0,0,1,1.9,26.6c0,11.6.4,17.3,1.7,21.8,1.4,5.2,1.5,7.7.6,18.7-.9,11.3-.8,13.1.7,16.2a37.66,37.66,0,0,1,2.4,9c.9,8.1,2.5,13,4.2,13,1,0,1.3-.7.8-2.5-.4-1.4-.2-2.5.4-2.5s1.5,2.3,2.1,5c1.4,6.4,1.4,6.3-.3,5.7-2.1-.8-4.2,1.9-2.8,3.6.7.8.9,2.9.5,5-.4,2.9-.2,3.7.9,3.7a3.24,3.24,0,0,1,2.9,4.8c-.8,1.6,0,3.4,4.5,10a111.53,111.53,0,0,0,11.8,14c5.9,5.4,6.8,6,16.1,8.4l9.8,2.5,3.4-1.9c1.8-1.1,3.3-2.3,3.3-2.7s-2.5-1.5-5.4-2.5c-4.2-1.2-6.5-2.8-9.7-6.4-5.2-5.9-6.1-8.2-4.3-10.3a3.32,3.32,0,0,0,.8-3.2c-.3-.9.4-3.3,1.7-5.4,1.5-2.4,1.9-3.8,1.1-4.1a17.86,17.86,0,0,1-3.6-2.3c-3-2.4-3.7-8.5-1.1-9.5,1-.4,1.5-2,1.5-4.4,0-2.1.7-4.3,1.5-5,2.1-1.7,1.9-3-.4-3-2,0-5.1-3.5-5.1-5.7,0-.8,1.3-1.2,3.5-1.1,4.3.2,6.8-1.8,6.1-4.8-1-3.7.3-5.4,3.9-5.4,6.4,0,9.5-1.2,11-4.1,2.2-4.2,1.9-9.6-.5-10.9a6.18,6.18,0,0,1-2.6-3.5c-.3-1.4-1.3-2.5-2.2-2.5-1.2,0-1.3-.3-.4-1.2s1.6-.7,3.1.6a13.21,13.21,0,0,0,6.1,2.3c3.3.5,4.5.2,6.5-1.7,2.5-2.4,7.5-13.6,7.5-17a1.77,1.77,0,0,1,1.9-2c3.6,0,6.6-6.6,6.8-15,.1-4.1.2-7.8.2-8.1.2-1.4,14.3-10,19-11.6,8-2.5,11.3-7.6,13.6-20.7a143.06,143.06,0,0,0,2-17.7c.2-7.3.4-7.9,4.7-14a97.23,97.23,0,0,0,8.1-14.2c3.6-7.7,3.6-7.7,2-12.2-1.2-3.6-2.2-4.9-4.9-6-1.9-.8-6.1-3.8-9.3-6.6l-5.8-5.3-8.4-.2c-4.6-.2-9.2-.4-10.1-.4-1.1-.1-1.8-.9-1.8-2.3-.1-1.7-1.4-2.8-6.2-5-5.5-2.5-6.3-2.6-7.8-1.2-2.3,2.1-3,1.9-3-.8,0-1.4-1.1-2.8-3-3.9-2.5-1.4-2.9-2.2-2.4-4.2a3.19,3.19,0,0,0-1.4-3.8c-1.1-.7-2.3-3.1-2.7-5.3-1-5.2-1.2-5.6-6.3-9.9-3.8-3.1-5.1-3.6-9.5-3.6-6.5,0-15.2-4.3-16.6-8-.5-1.5-2.5-3.3-4.8-4.5s-4.4-2.8-4.9-4a8.33,8.33,0,0,0-3.6-3.3c-3-1.4-3.5-2.7-1.5-3.6.6-.3-1-.3-3.8,0s-5.3,1-5.6,1.5-2.1.3-4.2-.6a23.16,23.16,0,0,0-7.2-1.5c-4.2,0-9-2.2-9.9-4.6-.5-1.4-1.2-1-4.1,2.2-1.9,2.1-3.4,5-3.5,6.3,0,2-.2,2.2-1.5,1.1-1.1-.9-1.3-1.6-.5-2.4a6.68,6.68,0,0,0,1-3.8c0-1.5.7-3.1,1.5-3.5a1.49,1.49,0,0,0,.7-2c-.6-.9-2-.4-5.2,1.7a29.45,29.45,0,0,1-7.5,3.6c-3.3.7-5.4,2.9-5.5,5.6,0,1-1.3,3.2-2.8,5l-2.9,3.1-3.6-2.9c-2.9-2.2-4.5-2.8-7.4-2.5a16,16,0,0,0-5.7,1.3c-4.1,2.2-10.6-4.8-10.6-11.3a52.62,52.62,0,0,1,1.7-10.3l1.6-6.8-2.4-1.9c-1.9-1.5-4.2-1.9-11.1-1.9H2769l2.6-6.3c1.4-3.4,3.4-8.7,4.5-11.7a69.28,69.28,0,0,1,2.9-6.6c.6-.8-.5-1.3-3.7-1.8-6.3-.8-9.8,1.1-11.6,6.6-1.4,4.2-1.6,4.3-8.7,6.2-8.4,2.2-10.7,1.5-14.4-4.3-4.4-7-4.7-10.6-1.5-20,1.5-4.7,2.8-10.1,2.8-12.2,0-3.5.4-3.9,9.3-9.8,7.6-5,10-6.1,13.4-6.1,2.3,0,4.5.4,4.8,1,1.1,1.7,4.8,1.1,7.2-1.2,3-2.8,15-3.6,16-1.1.4,1.1,1.5,1.3,3.8.9,2.5-.5,3.6-.1,5.5,1.9,2,2.2,2.3,3,1.4,5.3-1.2,3-.2,8.1,2.3,11.8,4,6.2,6.8-.5,5.8-14l-.6-9.1,4.8-5.2a72.74,72.74,0,0,1,11.8-9.7,78.8,78.8,0,0,0,10.8-8.3c3.2-3.2,3.7-4.3,3.3-7.1-.3-2.3-.1-3.2,1-3.2.8,0,2.2-1.5,3.1-3.4s2.1-3.2,2.8-3,2.6-1.2,4.3-3.3c2.2-2.9,4.5-4.3,8.5-5.6a42.82,42.82,0,0,1,6.9-1.7c2.1,0,4.2-2.6,2.9-3.5-1.6-.9,2.9-7.3,5.9-8.4l11-4c8.3-3,8.4-3,5.6-.7-3.9,3.2-3,5.9,1.4,4.6a17.21,17.21,0,0,0,4.4-1.9,20.56,20.56,0,0,1,5.8-2.1,17.28,17.28,0,0,0,6.4-3.1,5.82,5.82,0,0,1,3.6-1.9c1.3,0,1.8-.7,1.8-2.5,0-1.5-.6-2.5-1.4-2.5s-2.3,1.1-3.4,2.5c-2.7,3.4-8.5,3.5-10.7.2-1.4-2.2-1.3-2.7,1.1-7.1,2.2-4,2.4-5,1.3-5.7-2.3-1.5-4.6-1-11.7,2.1l-6.7,3,3.5-3c1.9-1.7,4.1-3,4.9-3a6.65,6.65,0,0,0,3.4-1.8c1.5-1.4,4.5-1.8,15.1-2.3,12.2-.5,13.5-.8,19.4-3.7,3.4-1.8,6.2-2.9,6.2-2.4s-3.4,4.1-7.5,8.2-7.5,7.8-7.5,8.2,2.9.8,6.4.8,6.8.5,7.1,1.1a1.78,1.78,0,0,0,2.1.5,2.06,2.06,0,0,1,2.3,1.1c.8,1.5,1.1,1.5,3.5,0,2.1-1.4,2.4-2.1,1.6-4.1a8.71,8.71,0,0,1-.3-4.5c.4-1.8.1-2.1-2.3-2.1-3.6,0-6.1-4.2-3.8-6.1.8-.6,1.1-1.5.8-2s.4-2.2,1.5-3.8c2-2.7,2-3.1.5-7.5-.9-2.6-2.5-5.1-3.8-5.7a31.2,31.2,0,0,1-4.8-3.7c-2.1-1.9-2.5-2.9-1.7-4.3,1-2-.8-15.9-2.2-15.9a13.76,13.76,0,0,0-3.6,2.4,41,41,0,0,1-6.9,4.4c-4.1,2.1-4.2,2.1-6.2.2a5,5,0,0,1,.6-7.7c1.3-1.1,1.1-1.4-1.1-2.2A18.68,18.68,0,0,1,2907,84c-2.1-2.3-3.3-3-4-2.2-.7.6-3.3.8-6.7.4-5.5-.6-5.6-.6-8,2.9-1.3,2-2.4,4.3-2.4,5.1s-1.8,3.4-4,5.5c-3.3,3.2-3.7,4.1-2.5,4.8,1.8,1,1.9,2.7.4,6-1.2,2.6-10.1,8.3-13.9,8.9-2.1.3-2.7,1.1-3.9,6.4s-1.8,6.3-5.1,8.2l-3.8,2.1-.6-2.3c-.3-1.3-.9-3.1-1.2-4-.4-1.2-.2-1.5.9-1a1.93,1.93,0,0,0,2.2-.5c.3-.6-.1-1.1-.9-1.1-2.1,0-2-1.8.4-5.8l2-3.2h-3.3a22.46,22.46,0,0,1-7.2-2,27.11,27.11,0,0,0-5.2-2c-.7,0-1.3-.4-1.3-1,0-1.7-5-4.3-8.1-4.2-2.7.1-2.9-.2-2.9-3.9,0-3-.4-3.9-1.7-3.9-3.7,0,5.5-7.3,15.8-12.5,5.8-2.9,11.1-6,11.8-6.9a4.93,4.93,0,0,1,3.1-1.6c2.6,0,11-3.7,14.7-6.6a15.1,15.1,0,0,1,3.9-2.4c1.3,0-5.9,7.1-8.1,8-1.6.7-1.7.9-.3.9a2.41,2.41,0,0,1,2,1.6c.3,1.3.9,1.2,4.2-.6s4.4-1.9,6.3-1c3.3,1.5,6.3,1.4,6.3-.3,0-.7-2-3-4.5-5-5-4.1-5.9-6.2-2-4.4,1.9.9,2.8.9,3.7,0a5.1,5.1,0,0,1,3.3-1.2c2.7,0,8.5-3.6,8.5-5.3a5.77,5.77,0,0,1,2-3.2c1.4-1.3,1.7-2.2,1-2.9-2.1-2.1-.8-2.6,7.3-2.6,6.6.1,8.6.4,10.5,2,2.8,2.4,2.1,4-1.8,4-3,0-6.4,2.5-5.5,4.1s4.8,1,6.9-1c3.1-2.9,6-3.1,6.4-.4.3,1.8-.6,2.7-4.2,4.5-3.1,1.5-4.6,2.8-4.6,4.1,0,1.8-.5,1.9-6,1.4-4.7-.4-6.5-.2-8.1,1.2-1.8,1.5-1.9,1.8-.6,2.9s2.3.9,5.6-.4c4-1.6,4.3-1.6,6.2.2a18.4,18.4,0,0,1,3.4,4.5c1.1,2,3,3,8.4,4.6,7.8,2.3,8.8,1.7,5-3.1-2.6-3.3-1.1-3.3,3.8-.1,3.6,2.5,3.7,2.5,4.4.6a7.06,7.06,0,0,1,2.5-2.9c1.9-1,1.9-1.1-3.1-7.8-.7-1-.4-1.9.8-3.1,1.7-1.7,1.9-1.7,4.5,1.5,2.9,3.4,5.6,4.2,6.6,1.7a2.94,2.94,0,0,1,2.6-1.5,6.72,6.72,0,0,0,4.1-1.9c2-1.8,2-1.8-1.7-5-2.3-2-4.4-3.1-5.5-2.8-2.8.7-4.5-1.9-2.5-3.8a5.32,5.32,0,0,0,1.6-2.9c0-1.7-3.3-4.6-5.2-4.6a2.68,2.68,0,0,1-2.2-1.5,3.28,3.28,0,0,0-3-1.5c-1.5,0-3.4-1.2-5.2-3.2-2.5-3.1-3.2-3.3-10.8-3.9-8.7-.7-15.3.6-18.7,3.7-1.6,1.5-1.9,1.5-1.9.2a4.63,4.63,0,0,1,2.3-3.1c2.1-1.6,2.2-1.6.1-1.6-3.7-.1-10.8,2.9-14.6,6.2-3,2.7-3.5,3.6-2.7,5.4.6,1.7,1.6,2.3,4,2.3s3,.3,2.5,1.6a16.16,16.16,0,0,0-.6,1.9c0,.7-9.8,7.3-11.8,7.9-2.7.9-3.1-1.8-.6-3.2,2.2-1.2,1.4-4.6-1.3-5-1.7-.3-2.2-1.1-2.5-5-.6-5.8.2-6.9,5.5-7.7a29.36,29.36,0,0,0,8.2-3.1l4-2.4h-7.2C2876.52,35.24,2875.92,35.44,2873.52,38.24Z" transform="translate(117.47 231.53)"/><path class="cls-2" d="M3071.52,67.14l-2.8,1.9,2.2,1.2a5.49,5.49,0,0,0,3.6.6c.9-.3,1.4.1,1.4,1.3,0,1,1.1,2.4,2.5,3.1s2.5,1.8,2.5,2.3c0,1.1,6.6.1,13.9-2.1,6.4-2,8.7-5.2,5.5-7.7a6.06,6.06,0,0,0-4.4-1c-9.3,1.6-16.1,1.7-18.5.1C3074.42,64.94,3075,64.84,3071.52,67.14Z" transform="translate(117.47 231.53)"/><path class="cls-2" d="M3133.92,97.74a2.66,2.66,0,0,1-2.7,1.1c-.8-.3-2.8.4-4.5,1.7-3.7,2.7-5.3,6.4-3.7,8.3.9,1.1.8,1.4-.2,1.4s-.6.8.9,1.9c1.2,1.1,2.2,2.4,2.2,3s1.1,1.1,2.4,1.1c1.8,0,2.7.8,3.4,2.9,1,2.7.8,2.9-1.9,3.5s-4.2,2.6-1.9,2.6c2,0,.9,1.8-1.5,2.4-3.2.8-3.2,2.6-.1,2.6,1.4,0,2.8.4,3.1,1s0,1-.8,1c-1.3,0-5.7,4-5.7,5.2,0,.9,5.9-.9,7.5-2.2.7-.6,4.4-.9,8.2-.8,7.5.2,9.8-.6,8.9-2.9a3.36,3.36,0,0,1,.9-3c2.1-2,1.4-3.7-1.6-4.3-1.3-.3-2.5-1.1-2.7-1.9-.4-1.9-6.2-10.3-8.1-11.8-1.4-1-1.4-1.3.2-3,2.4-2.7,2.1-4.3-.7-4.3s-4.3-1.5-2.2-2.3c1.7-.7,4.1-4.7,2.8-4.7A4.29,4.29,0,0,0,3133.92,97.74Z" transform="translate(117.47 231.53)"/><path class="cls-2" d="M3113.72,115.84c-.8,1.8-1.7,2.4-3.1,2-2.6-.6-4.1,3.4-1.9,5.2,1.5,1.1,1.4,1.4-.6,2.8-5.4,3.8-.7,6.1,6.9,3.4,5.7-1.9,6.9-3.2,6.9-7.2,0-1.5.5-3,1-3.3,2.2-1.4,1-4.3-2.1-4.9C3115.82,112.84,3114.92,113.14,3113.72,115.84Z" transform="translate(117.47 231.53)"/><path class="cls-2" d="M3632.52,257.14c-2.1,4-2,7,.4,10.5l1.9,3,1-2.7c1.9-4.8,2.1-7.1,1.3-10.1C3636,253.74,3634.32,253.54,3632.52,257.14Z" transform="translate(117.47 231.53)"/><path class="cls-2" d="M2792.72,267.24c-1.6,1.2-2.8,3-2.8,4.1,0,2.6,1.5,2.4,3.7-.4,3-3.8,4-3.9,10.6-1.6,7.2,2.5,9.7,4.4,9.7,7.3,0,4.1,1.2,4.6,8.3,3.9,3.7-.3,7.5-1.1,8.4-1.8,1.5-1.1,1.2-1.4-1.9-2.4a18,18,0,0,1-6.3-4.1c-3.5-3.6-9.9-5.7-19.8-6.5C2796.32,265.24,2795.12,265.44,2792.72,267.24Z" transform="translate(117.47 231.53)"/><path class="cls-2" d="M2836.42,281.44c.7,3.1-.4,4.6-3.9,5-5,.5-4.4,2.8.8,2.8,2.5,0,4.6.4,4.6,1,0,1.6,3.2,1.1,4.5-.7.8-1,3.2-1.8,6.9-2.1,3.1-.2,5.6-.8,5.6-1.3s-1.5-1.9-3.3-3.3a10.16,10.16,0,0,0-7.2-2.4,22.78,22.78,0,0,1-6.3-.6C2836.12,279.14,2835.92,279.34,2836.42,281.44Z" transform="translate(117.47 231.53)"/><path class="cls-2" d="M3591.12,279.94a5.09,5.09,0,0,0-3.2,2.3c-2.5,4.8,3.6,7.1,6.6,2.5,1.5-2.4,1.4-5.7-.3-5.4C3593.82,279.44,3592.42,279.74,3591.12,279.94Z" transform="translate(117.47 231.53)"/><path class="cls-2" d="M3639.72,285.34c-1.1.6-1.8,2.2-1.8,4.2a15.18,15.18,0,0,1-1.5,6c-1.8,3.5-.9,8.4,1.7,9.8a2.43,2.43,0,0,1,1.4,3.2,5.55,5.55,0,0,0,1.4,4.4c2.4,3,3,2.9,3-.7,0-2.9.1-2.9,2.7-1.7,1.5.6,4.4,3,6.4,5.2,3.2,3.4,3.5,4.1,2.2,4.9-1,.6-2.5.3-4.3-.8a16.36,16.36,0,0,0-3.4-1.6c-1.4,0-.5,5.1,1.2,6.8a14.34,14.34,0,0,1,2.5,3.5c.7,1.8,2.4,2.1,5.1,1.1,2.1-.8,2-2.3-.1-4.6-1.5-1.7-1.5-2-.3-2.8,2.3-1.5,3.2-.7,4.6,4.1,1.3,4.1,1.2,4.5-.8,6a5.59,5.59,0,0,1-3.9,1.2c-2.2-.6-5.4,2.6-6.3,6.3-.6,2.7-.5,2.8.9,1a6.4,6.4,0,0,1,3.9-2.2c2-.2,2.5.3,3,3.1a9,9,0,0,0,3.6,5.5l3,2.1v-3.6c0-2.9.4-3.5,1.8-3.3,1.1.2,1.6-.2,1.3-1.2-.1-.8-.4-3.8-.5-6.7-.1-3.8-.7-5.8-2.4-7.6a8.92,8.92,0,0,1-2.2-5.1c0-4-1.6-6.4-5-7.1-2.6-.6-2.9-1-2.4-3.4s.2-2.9-2.3-3.9a27.78,27.78,0,0,0-5.3-1.4c-2.1-.3-2.5-.9-2.8-4-.2-2,.1-4.6.7-5.6.7-1.3.7-3.2,0-5.8C3643.42,285.54,3641.92,284,3639.72,285.34Z" transform="translate(117.47 231.53)"/><path class="cls-2" d="M3625.62,344.24a16.79,16.79,0,0,1-5.2,6,33.6,33.6,0,0,0-6.2,5.3,20.78,20.78,0,0,1-5.5,4.4,10.74,10.74,0,0,0-4.3,4.4c-1.5,2.8-2,3.1-5.2,2.6-2.7-.5-3.4-.3-2.9.8a1.72,1.72,0,0,1-.4,2c-1.6,1-1.1,5.8,1,9.3a15.24,15.24,0,0,1,2,6.6c0,4.3,2.2,6,7,5.8a18.47,18.47,0,0,1,7.6,1.3c4.3,1.8,7.7,1.9,10.6.4,1.6-.9,1.9-1.7,1.4-4.4s-.2-3.8,2.4-6.5c2.2-2.2,3-4,3-6.5,0-2.9.4-3.6,2.5-4.1,3-.7,3.1-1.4.5-4.7s-2.5-7.5.5-11.9c1.4-2,2.5-4.3,2.5-5,0-1.2-7.9-9.8-9-9.8C3627.62,340.24,3626.62,342,3625.62,344.24Z" transform="translate(117.47 231.53)"/><path class="cls-2" d="M3536.52,348.94c-1.3,1.3-.5,2.9,2.3,4.5a18.38,18.38,0,0,1,5.5,5.6c1.4,2.2,3.4,4.3,4.5,4.7a7.29,7.29,0,0,1,3.5,3.3,138.23,138.23,0,0,1,8.6,19.5,26.61,26.61,0,0,0,14,15.3c3.3,1.5,3.5,1.5,5.3-.7a5.46,5.46,0,0,0,1.3-4.4c-.3-1.2.3-3.8,1.4-5.8l2-3.7h-2.5c-1.4,0-2.5-.5-2.5-1s-1.9-2.8-4.1-5c-3.2-3.1-3.9-4.3-3.1-5.3s.2-2.1-3.1-4.8c-2.3-1.9-5.9-4.5-7.9-5.8a16.49,16.49,0,0,1-5.5-5.3c-1.3-2.1-4.5-4.3-10.4-7.4C3541,350.34,3536.92,348.64,3536.52,348.94Z" transform="translate(117.47 231.53)"/><path class="cls-2" d="M3659.42,368.34c-2.4,1.4-4,1.6-8,.9-8-1.4-9.1-1.2-10.3,1.5a13.51,13.51,0,0,0-1.2,5,23.4,23.4,0,0,1-2,6.9c-1.5,3.7-1.7,5.2-.9,7.4a22,22,0,0,1,1,7.4c-.1,4.9.8,5.8,3.9,3.8,1.1-.7,1.4-2.5,1.3-7-.2-5.7.7-7.5,2.4-4.8a5.77,5.77,0,0,1,.8,2.3c.3,2.9,2,7.1,3.4,8.1,3.9,3,5.5-2.6,2.4-8.8-.9-1.8-2-4.1-2.5-5.1-.7-1.4-.3-2.3,1.6-3.8,1.5-1.1,2.6-2.5,2.6-3,0-1.3-4.7-1.1-7.1.3-1.7,1.1-2.2,1-3.5-.7-3.4-4.6.4-8.9,5.8-6.5,7,3,14.4,1,13.6-3.7C3662.42,366.64,3662.32,366.64,3659.42,368.34Z" transform="translate(117.47 231.53)"/><path class="cls-2" d="M3687.22,377.94c-1.3.2-2.3.8-2.3,1.2,0,1.1,3.4,4.1,4.7,4.1s4.8,3.9,4,4.6c-1.2,1.2,2.3,6.4,4.1,6.1,2.3-.3,15.3,4.2,17.4,6,2.5,2.2,3.5,9.3,1.4,10.5-2.4,1.4-1.9,2.8.9,2.8,1.4,0,4.8,1.1,7.5,2.5,6.9,3.5,9.2,3.2,14.1-1.5,2.3-2.2,4.5-4,5-4s2.9,2.5,5.5,5.5c3.5,4.1,6,5.9,9.6,7.1,2.6.8,5.3,1.4,6,1.2s-1.6-3.2-4.9-6.7c-6.7-6.8-8.4-10.1-5.2-10.1,1,0,1.9-.6,1.9-1.4,0-1.9-4.7-5.6-7.1-5.6a1.74,1.74,0,0,1-1.9-1.9c0-1.1-1.5-3.1-3.2-4.4-6.3-4.7-24.3-12.7-28.6-12.7-.8,0-3.3,2.1-5.7,4.7l-4.3,4.6-3.6-3.9c-2.9-3.1-3.5-4.4-3-6.7.6-2.7.5-2.7-4.8-2.6C3691.82,377.44,3688.42,377.74,3687.22,377.94Z" transform="translate(117.47 231.53)"/><path class="cls-2" d="M3583.42,402.94c-4.8,1.2-6,4.3-1.6,4.3a11.12,11.12,0,0,1,6.1,2.6c2.5,2.1,5,2.9,13.3,4.1a114.31,114.31,0,0,1,14.1,2.8c3.3,1.2,4.6,1.2,7.9,0,3-1,4.6-1.1,6-.3,1.1.5,4.5.8,7.6.6a32.65,32.65,0,0,1,8.6.3,12.19,12.19,0,0,0,6,0c1.6-.5,4.8-1.2,7-1.6l4-.6-4,2.7-4.1,2.8a16.69,16.69,0,0,0-.9,2.5c-.6,2.1,0,1.8,4.7-2.2,3-2.5,6.7-5.1,8.3-5.7,2.7-1,2.8-1.3,1.2-2.1-1.2-.7-3.5-.6-7.2.2-4.1.9-6.1.9-8,.1s-3.2-.8-5.7.2-4.5,1.2-8.8.4a84.23,84.23,0,0,0-11.5-1.3c-11-.3-17.6-2.4-13-4.1,2.6-1,.5-2.4-3.6-2.4a13,13,0,0,1-6.5-1.7c-2.4-1.5-2.5-1.5-3.1.5-.8,3.2-6.6,3-10.5-.3a12.7,12.7,0,0,0-3.6-2.4C3585.72,402.44,3584.52,402.74,3583.42,402.94Z" transform="translate(117.47 231.53)"/><path class="cls-2" d="M3689.22,429.24c.6,2.6.3,3-2.1,3.5a29.18,29.18,0,0,0-4.2,1.4c-1.9,1-6,8.2-5.4,9.3.3.4.4.8.2.8s-1.8.4-3.6.9c-3,.9-3.4.7-4.4-1.5-2.2-4.7-8.3-4.1-9,.9-.2,1.6-.9,2.1-2.5,1.9-1.3-.2-2.3.2-2.3.8s-1.6,2.6-3.5,4.6c-2.8,2.8-3.6,3.2-4.1,1.9s-.9-1.2-2.5.6a7.29,7.29,0,0,0-1.9,4c0,4-5.8,8.6-14.6,11.8-4.7,1.7-9.2,3.1-10,3.1s-3.6,1.5-6.2,3.2-5.4,3.3-6.2,3.3c-1,0-1.6,1.3-1.8,4.2-.2,2.3-.9,4.7-1.7,5.3-.9.8-1.2,2.2-.8,4.1.4,2.2.1,3.3-1.2,4.3-1.5,1.1-1.6,1.6-.5,3.5.7,1.4,1.2,7,1.3,14,.2,9.5-.1,12.4-1.7,15.9-1,2.3-2.5,4.2-3.3,4.2-2.5,0-1.4,3.9,1.7,5.5,4.1,2.1,6,1.9,12.3-1.5,4.8-2.5,6.8-3,12.7-3,3.9,0,7-.4,7-1,0-3.2,20.2-9.5,30.2-9.3,8.7.1,17.2,6.6,15.2,11.7-1.1,2.8,2.5,3.2,4.9.4,2.7-3.1,7.7-6.2,7.7-4.8,0,.5-1.3,2.2-3,3.7-3.6,3.2-4,5.2-.5,2.9,3.1-2.1,3.4-2,2.8.4-.3,1.1-2.3,2.7-4.4,3.7-4.1,1.8-4.8,2.7-2.5,3.6.8.3,2.4-.5,3.7-1.9,3.2-3.4,4.2-3,3.6,1.5-.7,5.4,2,9.6,7,11,5.2,1.5,7.8,1.4,9.3-.4s3-1.9,3-.1a4.08,4.08,0,0,0,1.3,2.5c1.1.8,2.4.3,5.8-2.3a20,20,0,0,1,8.3-3.9c2.1-.3,4.1-.9,4.5-1.4,3.2-4.9,17.5-21.2,19.4-22.2,4.1-2.2,10.7-14.6,13.7-25.6l2.7-10.1-2.8-3.9a24.78,24.78,0,0,1-3.4-6.7,8.31,8.31,0,0,0-2.7-4.2,7.08,7.08,0,0,1-2.3-4.8c-.2-2.1-1.6-4.8-4-7.6a27.56,27.56,0,0,1-6.5-16.8c0-5.2-1.7-8.6-3.9-7.9-1.6.5-2-.1-2.6-3.7-2.7-17-4.9-16.9-7.9.7-1.7,9.8-5.9,18.5-8.8,18.5-2.1,0-6.9-2.8-8.1-4.7a43.42,43.42,0,0,0-5.2-5.4l-4.3-4.1,2.9-4.4c1.7-2.4,3.4-4.6,4-4.9,1.1-.8,1.1-1.6,0-3.4-.7-1.1-1.5-1.1-4.3-.1-3,1.1-3.9,1-7.5-.9a16.88,16.88,0,0,1-4.8-3.1C3690,425,3688.72,426.34,3689.22,429.24Z" transform="translate(117.47 231.53)"/><path class="cls-2" d="M3341.82,434.94a74.17,74.17,0,0,0-5.7,7.4c-2.3,3.5-4.5,5.2-8.6,7-6.8,2.9-9.3,7.2-7.6,12.9,1.6,5.4,1.2,9-1.4,13.4a20.4,20.4,0,0,0-2.6,9.1c-.4,7.1-.3,7.3,2.6,10,5.9,5.5,13,1.6,15.8-8.7,2.6-9.8,5.5-19.7,7.8-26.6,1.1-3.4,1.7-7,1.4-7.8-.4-1.1.1-1.8,1.4-2.1,1.7-.5,2-1.4,2-6.7-.1-3.3-.6-7.1-1.3-8.4l-1.3-2.2Z" transform="translate(117.47 231.53)"/><path class="cls-2" d="M3824.52,543a54.49,54.49,0,0,0-.6,6.4c0,4.3-3,9.6-6.2,10.9-2.6,1.1-2.7,1.3-1.3,2.9,2.1,2.3,1.9,3.6-.7,5.4-2.8,2-3.8,2-3.8.1,0-1.3-.4-1.4-2.1-.5a5.19,5.19,0,0,1-3.2.7c-.7-.2-3,1-5.2,2.7a89.55,89.55,0,0,1-10.6,6.8c-3.6,2-10.7,6.1-15.8,9.3l-9.3,5.7,3.1,1.9c3.1,1.9,3.2,1.9,6.9,0a87.61,87.61,0,0,0,9.7-6.4c3.3-2.4,7.4-4.8,9.2-5.1,1.9-.5,3.5-1.5,3.8-2.7a9.35,9.35,0,0,1,3.8-3.5,28.16,28.16,0,0,0,5.4-3.6,10.36,10.36,0,0,1,6-2.2c4.4-.2,12.8-5.4,13.8-8.6a2.88,2.88,0,0,1,2.5-2c1.9,0,8-5.4,8-7.2,0-.6-.8-.7-1.7-.3-3.3,1.3-4.8,1-5.8-1.3-.5-1.2-1.3-2.2-1.8-2.2s-.5-2-.2-4.4c.6-3.8.4-4.6-1.3-5.5S3825.12,539.74,3824.52,543Z" transform="translate(117.47 231.53)"/><path class="cls-2" d="M3697,572.74c-2.6,8.3-2.6,8.3.2,8.7,3.8.7,9.3-3.1,12.2-8.3l2.6-4.9-4.6.6c-3.5.5-5,.3-6.4-1.1C3699.12,566.14,3699,566.24,3697,572.74Z" transform="translate(117.47 231.53)"/></svg>